SplineFontDB: 3.2
FontName: SeriousShannsItalic
FullName: Serious Shanns Italic
FamilyName: Serious Shanns Italic
Weight: Book
Copyright: https://github.com/kaBeech/serious-shanns/blob/main/LICENSE
Version: 6.0.0
ItalicAngle: -12.7
UnderlinePosition: 0
UnderlineWidth: 0
Ascent: 800
Descent: 200
InvalidEm: 0
sfntRevision: 0x00003333
LayerCount: 2
Layer: 0 0 "Back" 1
Layer: 1 0 "Fore" 0
XUID: [1021 45 630387186 1984481]
StyleMap: 0x0040
FSType: 4
OS2Version: 3
OS2_WeightWidthSlopeOnly: 0
OS2_UseTypoMetrics: 0
CreationTime: 1532631502
ModificationTime: 315532800
PfmFamily: 81
TTFWeight: 400
TTFWidth: 5
LineGap: 0
VLineGap: 0
Panose: 0 0 0 0 0 0 0 0 0 0
OS2TypoAscent: 613
OS2TypoAOffset: 0
OS2TypoDescent: -188
OS2TypoDOffset: 0
OS2TypoLinegap: 98
OS2WinAscent: 778
OS2WinAOffset: 0
OS2WinDescent: 308
OS2WinDOffset: 0
HheadAscent: 796
HheadAOffset: 0
HheadDescent: -317
HheadDOffset: 0
OS2SubXSize: 317
OS2SubYSize: 293
OS2SubXOff: 0
OS2SubYOff: 37
OS2SupXSize: 317
OS2SupYSize: 293
OS2SupXOff: 0
OS2SupYOff: 171
OS2StrikeYSize: 0
OS2StrikeYPos: 132
OS2CapHeight: 576
OS2XHeight: 485
OS2Vendor: 'NONE'
OS2CodePages: 00000001.00000000
OS2UnicodeRanges: 00000001.00000000.00000000.00000000
MarkAttachClasses: 1
DEI: 91125
LangName: 1033 "" "" "Normal" "" "" "Version 0.2.0"
Encoding: UnicodeBmp
Compacted: 1
UnicodeInterp: none
NameList: AGL For New Fonts
DisplaySize: -48
AntiAlias: 1
FitToEm: 0
WinInfo: 0 16 14
BeginPrivate: 8
BlueValues 32 [-40 -6 497 511 708 718 765 769]
OtherBlues 11 [-298 -287]
BlueScale 9 0.0291667
BlueShift 1 2
StdHW 4 [86]
StdVW 4 [58]
StemSnapH 19 [82 85 86 89 90 94]
StemSnapV 7 [58 68]
EndPrivate
BeginChars: 65537 123

StartChar: .notdef
Encoding: 65536 -1 0
Width: 650
GlyphClass: 1
Flags: W
HStem: -268 54<124.699 422.699> 695 54<334.699 632.699>
LayerCount: 2
Fore
SplineSet
62.69921875 -268 m 1
 296.69921875 749 l 1
 695.69921875 749 l 1
 460.69921875 -268 l 1
 62.69921875 -268 l 1
124.69921875 -214 m 1
 422.69921875 -214 l 1
 632.69921875 695 l 1
 334.69921875 695 l 1
 124.69921875 -214 l 1
EndSplineSet
Validated: 524289
EndChar

StartChar: exclam
Encoding: 33 33 12
Width: 650
GlyphClass: 2
Flags: HMW
HStem: -24.001 152.997
VStem: 261.783 151
LayerCount: 2
Fore
SplineSet
548.786132812 738 m 0
 547.453125 732 536.116210938 688.166015625 514.783203125 606.499023438 c 0
 493.450195312 524.83203125 477.450195312 458.33203125 466.783203125 406.999023438 c 0
 456.116210938 356.999023438 449.116210938 327.166015625 445.783203125 317.499023438 c 0
 442.450195312 307.83203125 438.450195312 292.33203125 433.783203125 270.999023438 c 0
 429.116210938 256.33203125 421.116210938 244.83203125 409.783203125 236.499023438 c 0
 399.290039062 228.783203125 388.225585938 224.92578125 376.588867188 224.92578125 c 0
 375.657226562 224.92578125 374.721679688 224.950195312 373.783203125 225 c 0
 361.116210938 225 351.783203125 229.333007812 345.783203125 238 c 0
 342.606445312 242.587890625 341.018554688 248.297851562 341.018554688 255.127929688 c 0
 341.018554688 261.200195312 342.2734375 268.157226562 344.783203125 276.000976562 c 0
 348.116210938 286.000976562 351.616210938 295.66796875 355.283203125 305.000976562 c 0
 358.950195312 314.333984375 361.783203125 322.166992188 363.783203125 328.5 c 0
 365.783203125 334.833007812 369.616210938 349.833007812 375.283203125 373.5 c 0
 380.950195312 397.166992188 387.450195312 427.666992188 394.783203125 465 c 0
 399.450195312 491 405.1171875 518.5 411.784179688 547.5 c 0
 418.451171875 576.5 424.284179688 600.666992188 429.284179688 620 c 0
 434.284179688 639.333007812 439.951171875 661.333007812 446.284179688 686 c 0
 452.6171875 710.666992188 456.784179688 727 458.784179688 735 c 0
 463.451171875 753 471.118164062 766.666992188 481.78515625 776 c 0
 492.452148438 785.333007812 504.119140625 790 516.786132812 790 c 0
 517.739257812 790.047851562 518.672851562 790.071289062 519.587890625 790.071289062 c 0
 531.482421875 790.071289062 540.21484375 786.047851562 545.786132812 778 c 0
 549.385742188 772.799804688 551.186523438 765.919921875 551.186523438 757.360351562 c 0
 551.186523438 751.653320312 550.385742188 745.200195312 548.786132812 738 c 0
320.782226562 -24.0009765625 m 0
 317.447265625 -24.3818359375 314.2421875 -24.572265625 311.166015625 -24.572265625 c 0
 292.719726562 -24.572265625 278.926757812 -17.7177734375 269.784179688 -4.0048828125 c 0
 262.672851562 6.662109375 259.1171875 18.810546875 259.1171875 32.4404296875 c 0
 259.1171875 39.2548828125 260.005859375 46.439453125 261.783203125 53.9951171875 c 0
 266.450195312 73.9951171875 278.450195312 91.328125 297.783203125 105.995117188 c 0
 317.116210938 120.662109375 336.783203125 128.329101562 356.783203125 128.99609375 c 0
 357.76171875 129.025390625 358.727539062 129.041015625 359.682617188 129.041015625 c 0
 380.194335938 129.041015625 395.227539062 122.192382812 404.783203125 108.497070312 c 0
 411.6015625 98.724609375 415.010742188 87.3251953125 415.010742188 74.298828125 c 0
 415.010742188 68.2197265625 414.268554688 61.7861328125 412.783203125 54.998046875 c 0
 408.116210938 33.6650390625 397.44921875 15.83203125 380.782226562 1.4990234375 c 0
 364.115234375 -12.833984375 344.115234375 -21.333984375 320.782226562 -24.0009765625 c 0
EndSplineSet
Validated: 524289
EndChar

StartChar: quotedbl
Encoding: 34 34 13
Width: 650
GlyphClass: 2
Flags: HMW
VStem: 309.302 306.002
LayerCount: 2
Fore
SplineSet
466.306640625 738 m 0
 460.306640625 710.666992188 449.471679688 665.830078125 433.8046875 603.497070312 c 0
 418.137695312 541.1640625 406.3046875 498.331054688 398.3046875 474.998046875 c 0
 393.637695312 461.665039062 385.970703125 451.665039062 375.303710938 444.998046875 c 0
 365.606445312 438.9375 356.185546875 435.907226562 347.040039062 435.907226562 c 0
 346.125 435.907226562 345.212890625 435.9375 344.303710938 435.998046875 c 0
 331.63671875 436.665039062 321.469726562 440.83203125 313.802734375 448.499023438 c 0
 309.037109375 453.264648438 306.654296875 459.25390625 306.654296875 466.466796875 c 0
 306.654296875 470.857421875 307.537109375 475.701171875 309.302734375 480.999023438 c 0
 319.302734375 514.999023438 330.135742188 558.666015625 341.802734375 611.999023438 c 0
 353.469726562 665.33203125 362.63671875 709.33203125 369.303710938 743.999023438 c 0
 370.63671875 751.999023438 373.63671875 758.83203125 378.303710938 764.499023438 c 0
 382.970703125 770.166015625 388.303710938 774.333007812 394.303710938 777 c 0
 400.303710938 779.666992188 406.303710938 781.5 412.303710938 782.5 c 0
 418.303710938 783.5 424.303710938 783.666992188 430.303710938 783 c 0
 435.63671875 783 440.63671875 782.333007812 445.303710938 781 c 0
 449.970703125 779.666992188 454.137695312 777.5 457.8046875 774.5 c 0
 461.471679688 771.5 464.138671875 766.833007812 465.805664062 760.5 c 0
 467.47265625 754.166992188 467.639648438 746.666992188 466.306640625 738 c 0
615.3046875 737.99609375 m 0
 609.971679688 710.663085938 599.473632812 665.826171875 583.806640625 603.493164062 c 0
 568.139648438 541.16015625 555.97265625 498.327148438 547.305664062 474.994140625 c 0
 542.638671875 461.661132812 534.971679688 451.661132812 524.3046875 444.994140625 c 0
 514.607421875 438.93359375 505.186523438 435.903320312 496.041015625 435.903320312 c 0
 495.125976562 435.903320312 494.213867188 435.93359375 493.3046875 435.994140625 c 0
 481.3046875 436.661132812 471.3046875 440.828125 463.3046875 448.495117188 c 0
 458.504882812 453.095703125 456.104492188 458.834960938 456.104492188 465.71484375 c 0
 456.104492188 470.301757812 457.171875 475.395507812 459.3046875 480.995117188 c 0
 469.3046875 514.995117188 479.971679688 558.662109375 491.3046875 611.995117188 c 0
 502.637695312 665.328125 511.637695312 709.328125 518.3046875 743.995117188 c 0
 519.637695312 751.995117188 522.637695312 758.828125 527.3046875 764.495117188 c 0
 531.971679688 770.162109375 537.471679688 774.329101562 543.8046875 776.99609375 c 0
 550.137695312 779.663085938 556.137695312 781.49609375 561.8046875 782.49609375 c 0
 567.471679688 783.49609375 573.3046875 783.663085938 579.3046875 782.99609375 c 0
 585.3046875 782.99609375 590.471679688 782.329101562 594.8046875 780.99609375 c 0
 599.137695312 779.663085938 603.3046875 777.49609375 607.3046875 774.49609375 c 0
 611.3046875 771.49609375 614.137695312 766.829101562 615.8046875 760.49609375 c 0
 617.471679688 754.163085938 617.3046875 746.663085938 615.3046875 737.99609375 c 0
EndSplineSet
Validated: 524289
EndChar

StartChar: numbersign
Encoding: 35 35 14
Width: 650
GlyphClass: 2
Flags: HMW
HStem: 192 82<528.114 547.115 495.115 566.114> 445 84<395.108 535.113 429.113 502.108 429.113 628.114 429.113 594.114>
LayerCount: 2
Fore
SplineSet
226.115234375 42 m 0
 218.115234375 28 206.44140625 16.5 191.108398438 7.5 c 0
 180.493164062 1.26953125 170.99609375 -1.845703125 162.6171875 -1.845703125 c 0
 158.893554688 -1.845703125 155.390625 -1.23046875 152.108398438 0 c 0
 141.44140625 2.6669921875 134.94140625 11.1669921875 132.608398438 25.5 c 0
 132.11328125 28.5400390625 131.866210938 31.6474609375 131.866210938 34.822265625 c 0
 131.866210938 46.6162109375 135.280273438 59.341796875 142.109375 72.9990234375 c 0
 151.442382812 90.9990234375 169.109375 129.666015625 195.109375 188.999023438 c 1
 167.109375 188.999023438 l 2
 151.776367188 188.999023438 140.776367188 192.33203125 134.109375 198.999023438 c 0
 127.442382812 205.666015625 125.442382812 214.666015625 128.109375 225.999023438 c 0
 130.109375 237.999023438 135.776367188 247.999023438 145.109375 255.999023438 c 0
 154.442382812 263.999023438 167.109375 268.666015625 183.109375 269.999023438 c 0
 187.776367188 269.999023438 195.276367188 270.166015625 205.609375 270.499023438 c 0
 215.942382812 270.83203125 223.775390625 270.999023438 229.108398438 270.999023438 c 1
 301.108398438 443.999023438 l 1
 295.775390625 443.999023438 288.775390625 443.83203125 280.108398438 443.499023438 c 0
 271.44140625 443.166015625 265.44140625 442.999023438 262.108398438 442.999023438 c 0
 260.880859375 442.9453125 259.682617188 442.918945312 258.513671875 442.918945312 c 0
 245.0703125 442.918945312 235.435546875 446.4453125 229.609375 453.499023438 c 0
 223.276367188 461.166015625 221.443359375 470.666015625 224.110351562 481.999023438 c 0
 226.110351562 493.999023438 231.943359375 504.166015625 241.610351562 512.499023438 c 0
 251.27734375 520.83203125 264.444335938 525.33203125 281.111328125 525.999023438 c 0
 293.111328125 526.666015625 311.111328125 526.999023438 335.111328125 526.999023438 c 1
 376.444335938 627.666015625 397.444335938 679.666015625 398.111328125 682.999023438 c 0
 406.778320312 699.666015625 417.111328125 711.333007812 429.111328125 718 c 0
 437.111328125 722.4453125 444.815429688 724.666992188 452.223632812 724.666992188 c 0
 455.926757812 724.666992188 459.555664062 724.112304688 463.111328125 723.000976562 c 0
 475.778320312 720.333984375 484.4453125 713.666992188 489.112304688 703 c 0
 490.927734375 698.8515625 491.834960938 694.19921875 491.834960938 689.041992188 c 0
 491.834960938 680.939453125 489.594726562 671.591796875 485.11328125 661 c 2
 429.11328125 529 l 1
 535.11328125 529 l 1
 593.11328125 675 l 2
 601.780273438 692.333007812 612.11328125 704.333007812 624.11328125 711 c 0
 632.11328125 715.4453125 639.965820312 717.666992188 647.669921875 717.666992188 c 0
 651.521484375 717.666992188 655.3359375 717.112304688 659.11328125 716.000976562 c 0
 672.446289062 713.333984375 681.446289062 706.666992188 686.11328125 696 c 0
 687.747070312 692.266601562 688.563476562 688.125 688.563476562 683.57421875 c 0
 688.563476562 675.124023438 685.747070312 665.266601562 680.11328125 654 c 0
 666.780273438 626 649.780273438 585 629.11328125 531 c 1
 639.11328125 531 l 2
 653.780273438 531 665.280273438 526.5 673.61328125 517.5 c 0
 680.333984375 510.2421875 683.694335938 502.658203125 683.694335938 494.75 c 0
 683.694335938 492.852539062 683.5 490.935546875 683.11328125 489 c 0
 680.446289062 477 674.446289062 466.833007812 665.11328125 458.5 c 0
 655.780273438 450.166992188 643.447265625 445.666992188 628.114257812 445 c 2
 594.114257812 445 l 1
 528.114257812 274 l 1
 566.114257812 274 l 2
 580.78125 274 589.948242188 270.5 593.615234375 263.5 c 0
 597.282226562 256.5 598.115234375 247.333007812 596.115234375 236 c 0
 589.448242188 206.666992188 573.115234375 192 547.115234375 192 c 2
 495.115234375 192 l 1
 465.115234375 116 444.115234375 64.6669921875 432.115234375 38 c 0
 423.448242188 24 412.115234375 13.1669921875 398.115234375 5.5 c 0
 388.915039062 0.4619140625 380.291015625 -2.0576171875 372.243164062 -2.0576171875 c 0
 368.043945312 -2.0576171875 364.000976562 -1.37109375 360.115234375 0 c 0
 349.448242188 2.6669921875 342.615234375 10.5 339.615234375 23.5 c 0
 338.84375 26.8427734375 338.458007812 30.3076171875 338.458007812 33.892578125 c 0
 338.458007812 44.25 341.676757812 55.619140625 348.115234375 68 c 0
 360.782226562 94.6669921875 378.115234375 135.666992188 400.115234375 191 c 1
 387.448242188 191 368.615234375 190.833007812 343.615234375 190.5 c 0
 318.615234375 190.166992188 300.448242188 190 289.115234375 190 c 1
 259.115234375 118 238.115234375 68.6669921875 226.115234375 42 c 0
395.108398438 445 m 1
 324.109375 273.999023438 l 1
 349.442382812 274.666015625 385.775390625 274.999023438 433.108398438 274.999023438 c 1
 455.775390625 329.666015625 478.775390625 386.333007812 502.108398438 445 c 1
 395.108398438 445 l 1
EndSplineSet
Validated: 524289
EndChar

StartChar: dollar
Encoding: 36 36 15
Width: 650
GlyphClass: 2
Flags: HMW
HStem: -28.9932 84.9932<261.539 298.538 272.539 298.538> 642.998 79.002
VStem: 257.539 82.999 517.04 93.998
LayerCount: 2
Fore
SplineSet
340.538085938 -99 m 0
 335.87109375 -113.666992188 327.872070312 -124.993164062 316.5390625 -132.993164062 c 0
 305.206054688 -140.993164062 293.206054688 -144.993164062 280.5390625 -144.993164062 c 0
 269.206054688 -144.993164062 261.5390625 -140.493164062 257.5390625 -131.493164062 c 0
 255.939453125 -127.893554688 255.138671875 -123.6796875 255.138671875 -118.853515625 c 0
 255.138671875 -111.61328125 256.939453125 -102.993164062 260.5390625 -92.9931640625 c 0
 265.206054688 -76.9931640625 270.5390625 -55.66015625 276.5390625 -28.9931640625 c 1
 272.5390625 -28.9931640625 l 2
 250.5390625 -28.9931640625 230.5390625 -25.9931640625 212.5390625 -19.9931640625 c 0
 194.5390625 -13.9931640625 179.5390625 -5.9931640625 167.5390625 4.0068359375 c 0
 155.5390625 14.0068359375 145.872070312 24.673828125 138.5390625 36.0068359375 c 0
 131.206054688 47.33984375 125.5390625 59.6728515625 121.5390625 73.005859375 c 0
 120.256835938 79.9287109375 119.616210938 86.3583984375 119.616210938 92.2958984375 c 0
 119.616210938 101.794921875 121.256835938 110.03125 124.5390625 117.005859375 c 0
 129.872070312 128.338867188 138.205078125 136.671875 149.538085938 142.004882812 c 0
 157.538085938 145.337890625 164.038085938 147.670898438 169.038085938 149.00390625 c 0
 174.038085938 150.336914062 179.038085938 150.669921875 184.038085938 150.002929688 c 0
 189.038085938 149.3359375 193.538085938 146.668945312 197.538085938 142.001953125 c 0
 201.538085938 137.334960938 205.538085938 130.66796875 209.538085938 122.000976562 c 0
 217.538085938 101.333984375 228.038085938 85.1669921875 241.038085938 73.5 c 0
 254.038085938 61.8330078125 272.538085938 56 296.538085938 56 c 2
 298.538085938 56 l 1
 325.87109375 167.333007812 349.204101562 266.666015625 368.537109375 353.999023438 c 1
 365.204101562 353.999023438 360.037109375 354.666015625 353.037109375 355.999023438 c 0
 346.037109375 357.33203125 340.537109375 357.999023438 336.537109375 357.999023438 c 0
 315.204101562 360.666015625 296.537109375 366.999023438 280.537109375 376.999023438 c 0
 264.537109375 386.999023438 252.537109375 399.166015625 244.537109375 413.499023438 c 0
 236.537109375 427.83203125 231.204101562 442.83203125 228.537109375 458.499023438 c 0
 227.470703125 464.765625 226.936523438 471.05859375 226.936523438 477.37890625 c 0
 226.936523438 486.859375 228.13671875 496.399414062 230.537109375 505.999023438 c 0
 235.870117188 529.999023438 244.537109375 552.999023438 256.537109375 574.999023438 c 0
 268.537109375 596.999023438 283.704101562 617.499023438 302.037109375 636.499023438 c 0
 320.370117188 655.499023438 342.537109375 671.83203125 368.537109375 685.499023438 c 0
 394.537109375 699.166015625 422.537109375 708.666015625 452.537109375 713.999023438 c 1
 457.204101562 729.999023438 462.537109375 749.33203125 468.537109375 771.999023438 c 0
 477.870117188 808.666015625 494.537109375 826.999023438 518.537109375 826.999023438 c 0
 519.055664062 827.01171875 519.568359375 827.017578125 520.075195312 827.017578125 c 0
 540.827148438 827.017578125 551.204101562 816.641601562 551.204101562 795.888671875 c 0
 551.204101562 789.814453125 550.314453125 782.8515625 548.537109375 775 c 2
 535.537109375 722 l 1
 549.537109375 721.333007812 568.037109375 718 591.037109375 712 c 0
 614.037109375 706 630.870117188 700.333007812 641.537109375 695 c 0
 652.204101562 690.333007812 659.037109375 683 662.037109375 673 c 0
 663.2109375 669.086914062 663.797851562 665.071289062 663.797851562 660.954101562 c 0
 663.797851562 654.549804688 662.377929688 647.8984375 659.537109375 641 c 0
 656.870117188 633 653.037109375 626.833007812 648.037109375 622.5 c 0
 643.037109375 618.166992188 637.537109375 615.5 631.537109375 614.5 c 0
 625.537109375 613.5 619.870117188 613.333007812 614.537109375 614 c 0
 609.204101562 614.666992188 604.204101562 615.666992188 599.537109375 617 c 0
 594.204101562 618.333007812 587.704101562 621.166015625 580.037109375 625.499023438 c 0
 572.370117188 629.83203125 563.537109375 633.665039062 553.537109375 636.998046875 c 0
 543.537109375 640.331054688 531.204101562 642.331054688 516.537109375 642.998046875 c 1
 503.204101562 589.665039062 485.87109375 518.998046875 464.538085938 430.998046875 c 1
 491.87109375 426.998046875 515.538085938 419.831054688 535.538085938 409.498046875 c 0
 555.538085938 399.165039062 570.705078125 387.33203125 581.038085938 373.999023438 c 0
 591.37109375 360.666015625 599.038085938 345.333007812 604.038085938 328 c 0
 608.725585938 311.749023438 611.069335938 295.791992188 611.069335938 280.126953125 c 0
 611.069335938 266.818359375 609.493164062 247.967773438 603.538085938 225 c 0
 596.205078125 194.333007812 584.705078125 165.333007812 569.038085938 138 c 0
 553.37109375 110.666992188 534.538085938 87 512.538085938 67 c 0
 490.538085938 47 466.37109375 29.6669921875 440.038085938 15 c 0
 413.705078125 0.3330078125 386.205078125 -10.6669921875 357.538085938 -18 c 1
 348.205078125 -58 342.538085938 -85 340.538085938 -99 c 0
322.5390625 531.006835938 m 0
 321.206054688 524.911132812 320.5390625 519.034179688 320.5390625 513.374023438 c 0
 320.5390625 499.224609375 324.706054688 486.435546875 333.0390625 475.006835938 c 0
 344.706054688 459.006835938 363.206054688 447.673828125 388.5390625 441.006835938 c 1
 399.872070312 487.006835938 415.205078125 551.006835938 434.538085938 633.006835938 c 1
 405.87109375 624.33984375 381.37109375 611.33984375 361.038085938 594.006835938 c 0
 340.705078125 576.673828125 327.872070312 555.673828125 322.5390625 531.006835938 c 0
513.5390625 208.006835938 m 0
 515.91015625 219.267578125 517.095703125 229.73828125 517.095703125 239.418945312 c 0
 517.095703125 252.064453125 514.829101562 263.998046875 510.540039062 276.508789062 c 0
 506.540039062 288.17578125 498.70703125 299.008789062 487.040039062 309.008789062 c 0
 475.373046875 319.008789062 460.206054688 327.67578125 441.5390625 335.008789062 c 1
 434.206054688 305.67578125 423.5390625 261.508789062 409.5390625 202.508789062 c 0
 395.5390625 143.508789062 385.206054688 100.67578125 378.5390625 74.0087890625 c 1
 411.872070312 87.341796875 441.0390625 105.674804688 466.0390625 129.0078125 c 0
 491.0390625 152.340820312 506.872070312 178.673828125 513.5390625 208.006835938 c 0
EndSplineSet
Validated: 524289
EndChar

StartChar: percent
Encoding: 37 37 16
Width: 650
GlyphClass: 2
Flags: HMW
HStem: -28.001 76 170.999 74<491.087 504.087> 432 75<279.42 325.087> 632 73<348.753 352.753>
LayerCount: 2
Fore
SplineSet
290.419921875 432 m 0
 268.419921875 432 250.420898438 438.5 236.420898438 451.5 c 0
 222.420898438 464.5 213.587890625 480.833007812 209.920898438 500.5 c 0
 208.426757812 508.513671875 207.6796875 516.775390625 207.6796875 525.286132812 c 0
 207.6796875 537.665039062 209.259765625 550.569335938 212.419921875 564.000976562 c 0
 221.752929688 605.333984375 240.252929688 639.166992188 267.919921875 665.5 c 0
 295.586914062 691.833007812 329.086914062 705 368.419921875 705 c 0
 383.752929688 705 397.419921875 702.166992188 409.419921875 696.5 c 0
 421.419921875 690.833007812 431.419921875 682.333007812 439.419921875 671 c 0
 447.419921875 659.666992188 451.919921875 644.166992188 452.919921875 624.5 c 0
 453.040039062 622.139648438 453.099609375 619.734375 453.099609375 617.283203125 c 0
 453.099609375 599.307617188 449.873046875 578.879882812 443.419921875 556 c 0
 432.086914062 515.333007812 414.086914062 484.5 389.419921875 463.5 c 0
 364.752929688 442.5 331.752929688 432 290.419921875 432 c 0
110.420898438 19 m 0
 129.75390625 47.6669921875 174.419921875 107.833984375 244.419921875 199.500976562 c 0
 314.419921875 291.16796875 384.586914062 383.66796875 454.919921875 477.000976562 c 0
 525.252929688 570.333984375 573.419921875 637.000976562 599.419921875 677.000976562 c 0
 609.419921875 689.000976562 620.752929688 696.500976562 633.419921875 699.500976562 c 0
 637.3515625 700.431640625 641.122070312 700.897460938 644.732421875 700.897460938 c 0
 652.75390625 700.897460938 659.983398438 698.598632812 666.419921875 694.000976562 c 0
 676.419921875 688.66796875 680.919921875 680.834960938 679.919921875 670.501953125 c 0
 678.919921875 660.168945312 672.752929688 647.668945312 661.419921875 633.001953125 c 0
 628.752929688 592.334960938 549.919921875 488.66796875 424.919921875 322.000976562 c 0
 299.919921875 155.333984375 216.419921875 42.6669921875 174.419921875 -16 c 0
 157.189453125 -39.630859375 141.049804688 -51.4462890625 126 -51.4462890625 c 0
 120.669921875 -51.4462890625 115.477539062 -49.9638671875 110.420898438 -47 c 0
 99.4208984375 -40.666015625 93.9208984375 -32 93.9208984375 -21 c 0
 93.9208984375 -10 99.4208984375 3.333984375 110.420898438 19 c 0
317.419921875 507 m 0
 332.752929688 507 345.75390625 512.33203125 356.420898438 522.999023438 c 0
 367.087890625 533.666015625 375.087890625 547.999023438 380.420898438 565.999023438 c 0
 383.262695312 576.736328125 384.684570312 586.126953125 384.684570312 594.171875 c 0
 384.684570312 603.109375 382.9296875 610.385742188 379.420898438 616 c 0
 372.75390625 626.666992188 361.086914062 632 344.419921875 632 c 0
 329.752929688 632 316.919921875 626.166992188 305.919921875 614.5 c 0
 294.919921875 602.833007812 286.419921875 587 280.419921875 567 c 0
 278.0859375 557.666015625 276.919921875 549.416015625 276.919921875 542.25 c 0
 276.919921875 535.083007812 278.0859375 529 280.419921875 524 c 0
 285.086914062 514 297.419921875 508.333007812 317.419921875 507 c 0
433.420898438 -28.0009765625 m 0
 411.420898438 -28.0009765625 393.419921875 -21.5009765625 379.419921875 -8.5009765625 c 0
 365.419921875 4.4990234375 356.586914062 20.83203125 352.919921875 40.4990234375 c 0
 351.42578125 48.5126953125 350.678710938 56.7744140625 350.678710938 65.28515625 c 0
 350.678710938 77.6640625 352.258789062 90.568359375 355.418945312 104 c 0
 364.751953125 145.333007812 383.251953125 179.166015625 410.918945312 205.499023438 c 0
 438.5859375 231.83203125 471.752929688 244.999023438 510.419921875 244.999023438 c 0
 525.752929688 244.999023438 539.5859375 242.33203125 551.918945312 236.999023438 c 0
 564.251953125 231.666015625 574.418945312 223.166015625 582.418945312 211.499023438 c 0
 590.418945312 199.83203125 594.918945312 184.165039062 595.918945312 164.498046875 c 0
 596.030273438 162.3125 596.0859375 160.088867188 596.0859375 157.825195312 c 0
 596.0859375 139.717773438 592.530273438 119.109375 585.418945312 95.998046875 c 0
 574.0859375 55.3310546875 556.252929688 24.3310546875 531.919921875 2.998046875 c 0
 508.32421875 -17.6884765625 476.737304688 -28.03125 437.157226562 -28.03125 c 0
 435.918945312 -28.03125 434.673828125 -28.021484375 433.420898438 -28.0009765625 c 0
460.419921875 47.9990234375 m 0
 461.258789062 47.9609375 462.08984375 47.94140625 462.916015625 47.94140625 c 0
 476.528320312 47.94140625 488.36328125 53.1279296875 498.420898438 63.4990234375 c 0
 509.087890625 74.4990234375 517.087890625 88.666015625 522.420898438 105.999023438 c 0
 525.172851562 116.522460938 526.548828125 125.768554688 526.548828125 133.736328125 c 0
 526.548828125 158.578125 513.172851562 170.999023438 486.420898438 170.999023438 c 0
 471.75390625 170.999023438 459.086914062 165.166015625 448.419921875 153.499023438 c 0
 437.752929688 141.83203125 429.419921875 126.33203125 423.419921875 106.999023438 c 0
 421.166992188 98.3095703125 420.040039062 90.513671875 420.040039062 83.6103515625 c 0
 420.040039062 76.2138671875 421.333984375 69.84375 423.919921875 64.4990234375 c 0
 428.919921875 54.166015625 441.086914062 48.666015625 460.419921875 47.9990234375 c 0
EndSplineSet
Validated: 524289
EndChar

StartChar: ampersand
Encoding: 38 38 17
Width: 650
GlyphClass: 2
Flags: HMW
HStem: -41.998 93.998<244.054 287.718> 645.001 79<468.72 469.053>
VStem: 461.389 89.9971 548.386 83.5<297 297>
LayerCount: 2
Fore
SplineSet
526.385742188 -35 m 0xe0
 519.868164062 -38.5849609375 513.469726562 -40.376953125 507.19140625 -40.376953125 c 0
 500.626953125 -40.376953125 494.192382812 -38.4169921875 487.887695312 -34.498046875 c 0
 475.5546875 -26.8310546875 466.721679688 -13.6640625 461.388671875 5.0029296875 c 0xe0
 460.721679688 8.3359375 459.221679688 18.3359375 456.888671875 35.0029296875 c 0
 454.555664062 51.669921875 452.388671875 63.669921875 450.388671875 71.0029296875 c 1
 448.388671875 68.3359375 443.388671875 62.6689453125 435.388671875 54.001953125 c 0
 427.388671875 45.3349609375 421.388671875 39.001953125 417.388671875 35.001953125 c 0
 413.388671875 31.001953125 406.888671875 25.001953125 397.888671875 17.001953125 c 0
 388.888671875 9.001953125 381.388671875 2.8349609375 375.388671875 -1.498046875 c 0
 369.388671875 -5.8310546875 361.555664062 -10.998046875 351.888671875 -16.998046875 c 0
 342.221679688 -22.998046875 333.0546875 -27.498046875 324.387695312 -30.498046875 c 0
 315.720703125 -33.498046875 305.887695312 -36.1650390625 294.887695312 -38.498046875 c 0
 283.887695312 -40.8310546875 272.720703125 -41.998046875 261.387695312 -41.998046875 c 0
 226.720703125 -41.998046875 197.053710938 -32.3310546875 172.38671875 -12.998046875 c 0
 147.719726562 6.3349609375 131.052734375 31.66796875 122.385742188 63.0009765625 c 0
 117.87890625 79.2939453125 115.625976562 96.30859375 115.625976562 114.04296875 c 0
 115.625976562 130.415039062 117.545898438 147.400390625 121.385742188 165.000976562 c 0
 150.052734375 291.000976562 218.385742188 376.66796875 326.385742188 422.000976562 c 1
 323.052734375 432.000976562 318.885742188 444.000976562 313.885742188 458.000976562 c 0
 308.885742188 472.000976562 305.385742188 481.833984375 303.385742188 487.500976562 c 0
 301.385742188 493.16796875 299.21875 500.500976562 296.885742188 509.500976562 c 0
 294.552734375 518.500976562 293.385742188 526.333984375 293.385742188 533.000976562 c 0
 293.385742188 539.66796875 293.885742188 547.834960938 294.885742188 557.501953125 c 0
 295.885742188 567.168945312 297.71875 577.668945312 300.385742188 589.001953125 c 0
 303.052734375 601.001953125 307.219726562 612.834960938 312.88671875 624.501953125 c 0
 318.553710938 636.168945312 326.38671875 648.168945312 336.38671875 660.501953125 c 0
 346.38671875 672.834960938 357.88671875 683.66796875 370.88671875 693.000976562 c 0
 383.88671875 702.333984375 399.88671875 709.833984375 418.88671875 715.500976562 c 0
 437.88671875 721.16796875 458.053710938 724.000976562 479.38671875 724.000976562 c 0
 497.38671875 724.000976562 514.38671875 721.000976562 530.38671875 715.000976562 c 0
 546.38671875 709.000976562 560.219726562 700.16796875 571.88671875 688.500976562 c 0
 583.553710938 676.833984375 591.38671875 661.500976562 595.38671875 642.500976562 c 0
 597.100585938 634.358398438 597.958007812 625.817382812 597.958007812 616.87890625 c 0
 597.958007812 604.9609375 596.434570312 592.333984375 593.38671875 579.000976562 c 0
 588.719726562 557.66796875 581.552734375 537.834960938 571.885742188 519.501953125 c 0
 562.21875 501.168945312 552.21875 485.8359375 541.885742188 473.502929688 c 0
 531.552734375 461.169921875 519.052734375 449.336914062 504.385742188 438.00390625 c 0
 489.71875 426.670898438 476.71875 417.670898438 465.385742188 411.00390625 c 0
 454.052734375 404.336914062 441.052734375 397.669921875 426.385742188 391.002929688 c 1
 433.052734375 370.3359375 445.052734375 339.668945312 462.385742188 299.001953125 c 0
 479.71875 258.334960938 490.71875 231.334960938 495.385742188 218.001953125 c 1
 501.385742188 227.334960938 508.385742188 238.16796875 516.385742188 250.500976562 c 0
 524.385742188 262.833984375 531.052734375 272.833984375 536.385742188 280.500976562 c 0
 541.71875 288.16796875 545.71875 293.66796875 548.385742188 297.000976562 c 0
 563.052734375 314.333984375 575.885742188 325.166992188 586.885742188 329.5 c 0
 591.21875 331.20703125 595.525390625 332.060546875 599.806640625 332.060546875 c 0
 606.39453125 332.060546875 612.920898438 330.040039062 619.385742188 325.999023438 c 0
 627.815429688 321.181640625 632.03125 312.694335938 632.03125 300.534179688 c 0
 632.03125 288.635742188 628.213867188 271.743164062 612.385742188 248 c 0
 607.71875 242 595.385742188 228.666992188 575.385742188 208 c 0
 555.385742188 187.333007812 538.052734375 168.333007812 523.385742188 151 c 1
 527.385742188 138.333007812 533.052734375 120.166015625 540.385742188 96.4990234375 c 0
 547.71875 72.83203125 551.71875 58.9990234375 552.385742188 54.9990234375 c 0
 554.895507812 47.4697265625 556.150390625 39.5712890625 556.150390625 31.302734375 c 0
 556.150390625 22.001953125 554.5625 12.234375 551.385742188 1.9990234375 c 0
 545.385742188 -17.333984375 537.052734375 -29.6669921875 526.385742188 -35 c 0xe0
384.38671875 572.000976562 m 0
 382.385742188 563.665039062 381.385742188 554.913085938 381.385742188 545.744140625 c 0
 381.385742188 536.579101562 382.385742188 526.999023438 384.384765625 517.000976562 c 0
 388.384765625 497.000976562 394.717773438 479.333984375 403.384765625 464.000976562 c 1
 418.051757812 468.66796875 430.71875 473.500976562 441.385742188 478.500976562 c 0
 452.052734375 483.500976562 462.552734375 490.000976562 472.885742188 498.000976562 c 0
 483.21875 506.000976562 491.71875 515.833984375 498.385742188 527.500976562 c 0
 505.052734375 539.16796875 510.052734375 553.000976562 513.385742188 569.000976562 c 0
 515.462890625 577.5390625 516.500976562 585.37890625 516.500976562 592.51953125 c 0
 516.500976562 606.006835938 512.795898438 617.000976562 505.385742188 625.500976562 c 0
 494.052734375 638.500976562 478.719726562 645.000976562 459.38671875 645.000976562 c 0
 420.719726562 645.000976562 395.719726562 620.66796875 384.38671875 572.000976562 c 0
216.384765625 174.000976562 m 0
 213.237304688 160.361328125 211.663085938 147.59765625 211.663085938 135.711914062 c 0
 211.663085938 117.389648438 215.403320312 101.15234375 222.883789062 87 c 0
 235.216796875 63.6669921875 255.383789062 52 283.383789062 52 c 0
 292.05078125 52 300.717773438 53 309.384765625 55 c 0
 318.051757812 57 325.71875 59 332.385742188 61 c 0
 339.052734375 63 346.052734375 66.3330078125 353.385742188 71 c 0
 360.71875 75.6669921875 366.551757812 79.5 370.884765625 82.5 c 0
 375.217773438 85.5 380.717773438 90.1669921875 387.384765625 96.5 c 0
 394.051757812 102.833007812 398.71875 107.333007812 401.385742188 110 c 0
 404.052734375 112.666992188 408.385742188 117.5 414.385742188 124.5 c 0
 420.385742188 131.5 424.052734375 135.666992188 425.385742188 137 c 0
 420.71875 163 416.051757812 183.333007812 411.384765625 198 c 0
 407.384765625 213.333007812 398.217773438 238.333007812 383.884765625 273 c 0
 369.551757812 307.666992188 359.384765625 333.333984375 353.384765625 350.000976562 c 1
 332.717773438 341.333984375 314.384765625 330.500976562 298.384765625 317.500976562 c 0
 282.384765625 304.500976562 269.051757812 290.16796875 258.384765625 274.500976562 c 0
 247.717773438 258.833984375 239.217773438 243.000976562 232.884765625 227.000976562 c 0
 226.551757812 211.000976562 221.051757812 193.333984375 216.384765625 174.000976562 c 0
EndSplineSet
Validated: 524289
EndChar

StartChar: quotesingle
Encoding: 39 39 18
Width: 650
GlyphClass: 2
Flags: HMW
HStem: 446.001 325.499
VStem: 386.464 152
LayerCount: 2
Fore
SplineSet
538.463867188 728 m 0
 533.130859375 701.333007812 523.465820312 660.16796875 509.465820312 604.500976562 c 0
 495.465820312 548.833984375 484.1328125 509.333984375 475.465820312 486.000976562 c 0
 470.798828125 472.000976562 463.131835938 461.66796875 452.46484375 455.000976562 c 0
 442.767578125 448.940429688 433.346679688 445.91015625 424.201171875 445.91015625 c 0
 423.286132812 445.91015625 422.374023438 445.940429688 421.46484375 446.000976562 c 0
 408.797851562 446.66796875 398.630859375 451.000976562 390.963867188 459.000976562 c 0
 386.198242188 463.973632812 383.815429688 470.106445312 383.815429688 477.397460938 c 0
 383.815429688 481.8359375 384.698242188 486.703125 386.463867188 492.000976562 c 0
 396.463867188 526.66796875 406.463867188 566.66796875 416.463867188 612.000976562 c 0
 426.463867188 657.333984375 434.796875 697.666992188 441.463867188 733 c 0
 442.796875 741 445.796875 748 450.463867188 754 c 0
 455.130859375 760 460.630859375 764.166992188 466.963867188 766.5 c 0
 473.296875 768.833007812 479.296875 770.5 484.963867188 771.5 c 0
 490.630859375 772.5 496.463867188 772.666992188 502.463867188 772 c 0
 507.796875 772 512.796875 771.333007812 517.463867188 770 c 0
 522.130859375 768.666992188 526.463867188 766.5 530.463867188 763.5 c 0
 534.463867188 760.5 537.130859375 756 538.463867188 750 c 0
 539.796875 744 539.796875 736.666992188 538.463867188 728 c 0
EndSplineSet
Validated: 524289
EndChar

StartChar: parenleft
Encoding: 40 40 19
Width: 650
GlyphClass: 2
Flags: HMW
HStem: -130.998 83.998<371.371 418.04> 733.002 81<583.04 623.706>
LayerCount: 2
Fore
SplineSet
438.040039062 -93 m 0
 435.373046875 -103.666992188 429.205078125 -112.665039062 419.538085938 -119.998046875 c 0
 409.87109375 -127.331054688 400.704101562 -130.998046875 392.037109375 -130.998046875 c 0
 350.704101562 -130.998046875 316.87109375 -114.998046875 290.538085938 -82.998046875 c 0
 264.205078125 -50.998046875 247.038085938 -6.6650390625 239.038085938 50.001953125 c 0
 235.482421875 75.1875 233.705078125 102.083984375 233.705078125 130.693359375 c 0
 233.705078125 166.455078125 236.482421875 204.890625 242.038085938 246.001953125 c 0
 248.705078125 294.668945312 264.372070312 358.001953125 289.0390625 436.001953125 c 0
 313.706054688 514.001953125 340.706054688 578.334960938 370.0390625 629.001953125 c 0
 383.372070312 651.001953125 399.0390625 672.834960938 417.0390625 694.501953125 c 0
 435.0390625 716.168945312 454.706054688 736.001953125 476.0390625 754.001953125 c 0
 497.372070312 772.001953125 520.0390625 786.501953125 544.0390625 797.501953125 c 0
 568.0390625 808.501953125 590.372070312 814.001953125 611.0390625 814.001953125 c 0
 631.521484375 814.001953125 641.762695312 805.068359375 641.762695312 787.200195312 c 0
 641.762695312 782.96875 641.1875 778.236328125 640.0390625 773.001953125 c 0
 636.706054688 759.001953125 630.373046875 748.834960938 621.040039062 742.501953125 c 0
 611.70703125 736.168945312 601.70703125 733.001953125 591.040039062 733.001953125 c 0
 575.040039062 733.001953125 558.873046875 728.001953125 542.540039062 718.001953125 c 0
 526.20703125 708.001953125 510.70703125 694.334960938 496.040039062 677.001953125 c 0
 481.373046875 659.668945312 467.873046875 640.668945312 455.540039062 620.001953125 c 0
 443.20703125 599.334960938 431.70703125 577.001953125 421.040039062 553.001953125 c 0
 405.040039062 518.334960938 388.540039062 470.66796875 371.540039062 410.000976562 c 0
 354.540039062 349.333984375 343.040039062 300.000976562 337.040039062 262.000976562 c 0
 332.130859375 228.727539062 329.676757812 196.235351562 329.676757812 164.5234375 c 0
 329.676757812 157.477539062 329.797851562 150.469726562 330.040039062 143.500976562 c 0
 331.373046875 105.16796875 335.540039062 72.16796875 342.540039062 44.5009765625 c 0
 349.540039062 16.833984375 359.20703125 -5.3330078125 371.540039062 -22 c 0
 383.873046875 -38.6669921875 397.373046875 -47 412.040039062 -47 c 0
 424.040039062 -47 432.373046875 -50.3330078125 437.040039062 -57 c 0
 439.552734375 -60.58984375 440.809570312 -65.7255859375 440.809570312 -72.408203125 c 0
 440.809570312 -78.1357421875 439.88671875 -85 438.040039062 -93 c 0
EndSplineSet
Validated: 524289
EndChar

StartChar: parenright
Encoding: 41 41 20
Width: 650
GlyphClass: 2
Flags: HMW
HStem: -131.005 84<206.675 213.676> 732.998 81.002<388.344 420.677>
VStem: 481.01 86.001
LayerCount: 2
Fore
SplineSet
517.01171875 246 m 0
 493.01171875 172 464.008789062 106.662109375 430.008789062 49.9951171875 c 0
 396.008789062 -6.671875 358.341796875 -51.0048828125 317.008789062 -83.0048828125 c 0
 275.67578125 -115.004882812 234.342773438 -131.004882812 193.009765625 -131.004882812 c 0
 184.342773438 -131.004882812 176.67578125 -127.337890625 170.008789062 -120.004882812 c 0
 163.341796875 -112.671875 161.341796875 -103.671875 164.008789062 -93.0048828125 c 0
 168.008789062 -75.671875 174.008789062 -63.671875 182.008789062 -57.0048828125 c 0
 190.008789062 -50.337890625 200.341796875 -47.0048828125 213.008789062 -47.0048828125 c 0
 227.67578125 -47.0048828125 244.842773438 -38.671875 264.509765625 -22.0048828125 c 0
 284.176757812 -5.337890625 304.009765625 16.8291015625 324.009765625 44.49609375 c 0
 344.009765625 72.1630859375 363.676757812 105.330078125 383.009765625 143.997070312 c 0
 402.342773438 182.6640625 418.009765625 221.997070312 430.009765625 261.997070312 c 0
 442.009765625 299.997070312 453.342773438 349.330078125 464.009765625 409.997070312 c 0
 474.676757812 470.6640625 480.34375 518.331054688 481.010742188 552.998046875 c 0
 481.010742188 576.998046875 479.510742188 599.331054688 476.510742188 619.998046875 c 0
 473.510742188 640.665039062 468.84375 659.665039062 462.510742188 676.998046875 c 0
 456.177734375 694.331054688 447.177734375 707.998046875 435.510742188 717.998046875 c 0
 423.84375 727.998046875 410.010742188 732.998046875 394.010742188 732.998046875 c 0
 382.677734375 732.998046875 374.010742188 736.165039062 368.010742188 742.498046875 c 0
 363.856445312 746.8828125 361.780273438 753.104492188 361.780273438 761.1640625 c 0
 361.780273438 764.745117188 362.190429688 768.690429688 363.010742188 772.998046875 c 0
 365.010742188 781.665039062 368.010742188 788.83203125 372.010742188 794.499023438 c 0
 376.010742188 800.166015625 380.34375 804.333007812 385.010742188 807 c 0
 389.677734375 809.666992188 394.010742188 811.5 398.010742188 812.5 c 0
 402.010742188 813.5 406.010742188 814 410.010742188 814 c 0
 431.34375 814 451.34375 808.5 470.010742188 797.5 c 0
 488.677734375 786.5 504.510742188 772 517.510742188 754 c 0
 530.510742188 736 541.34375 716.166992188 550.010742188 694.5 c 0
 558.677734375 672.833007812 564.344726562 651 567.01171875 629 c 0
 569.049804688 611.791992188 570.068359375 593.0078125 570.068359375 572.647460938 c 0
 570.068359375 533.057617188 566.215820312 487.508789062 558.51171875 436 c 0
 546.844726562 358 533.01171875 294.666992188 517.01171875 246 c 0
EndSplineSet
Validated: 524289
EndChar

StartChar: asterisk
Encoding: 42 42 21
Width: 650
GlyphClass: 2
Flags: HMW
HStem: 292.998 103.999 305.999 77<461.193 505.193>
VStem: 310.192 86.001 410.193 86
LayerCount: 2
Fore
SplineSet
306.1953125 139 m 0x70
 302.1953125 131 296.693359375 124.999023438 289.693359375 120.999023438 c 0
 282.693359375 116.999023438 275.526367188 114.666015625 268.193359375 113.999023438 c 0
 260.860351562 113.33203125 254.193359375 113.83203125 248.193359375 115.499023438 c 0
 242.193359375 117.166015625 237.193359375 119.333007812 233.193359375 122 c 0
 228.526367188 125.333007812 224.859375 130.166015625 222.192382812 136.499023438 c 0
 219.525390625 142.83203125 218.692382812 150.665039062 219.692382812 159.998046875 c 0
 220.692382812 169.331054688 224.859375 178.998046875 232.192382812 188.998046875 c 2
 319.192382812 297.998046875 l 1
 267.192382812 294.665039062 229.192382812 292.998046875 205.192382812 292.998046875 c 0
 190.525390625 292.998046875 180.192382812 298.331054688 174.192382812 308.998046875 c 0
 170.038085938 316.3828125 167.961914062 324.086914062 167.961914062 332.110351562 c 0
 167.961914062 335.676757812 168.372070312 339.305664062 169.192382812 342.998046875 c 0
 169.859375 348.998046875 171.692382812 355.165039062 174.692382812 361.498046875 c 0
 177.692382812 367.831054688 181.525390625 373.831054688 186.192382812 379.498046875 c 0
 190.859375 385.165039062 196.859375 389.665039062 204.192382812 392.998046875 c 0
 211.525390625 396.331054688 218.858398438 397.6640625 226.19140625 396.997070312 c 0xb0
 254.19140625 394.330078125 295.524414062 390.997070312 350.19140625 386.997070312 c 1
 334.858398438 435.6640625 321.525390625 472.997070312 310.192382812 498.997070312 c 0
 307.525390625 506.6640625 306.192382812 514.247070312 306.192382812 521.747070312 c 0
 306.192382812 529.247070312 307.525390625 536.663085938 310.192382812 543.997070312 c 0
 315.525390625 558.6640625 323.525390625 568.331054688 334.192382812 572.998046875 c 0
 340.859375 576.998046875 348.359375 579.165039062 356.692382812 579.498046875 c 0
 365.025390625 579.831054688 373.025390625 577.331054688 380.692382812 571.998046875 c 0
 388.359375 566.665039062 393.526367188 558.665039062 396.193359375 547.998046875 c 0
 399.526367188 531.998046875 408.859375 493.665039062 424.192382812 432.998046875 c 1
 459.525390625 478.331054688 486.858398438 516.331054688 506.19140625 546.998046875 c 0
 512.858398438 557.665039062 521.025390625 565.665039062 530.692382812 570.998046875 c 0
 540.359375 576.331054688 549.026367188 578.831054688 556.693359375 578.498046875 c 0
 564.360351562 578.165039062 570.52734375 575.665039062 575.194335938 570.998046875 c 0
 580.52734375 567.665039062 584.360351562 562.33203125 586.693359375 554.999023438 c 0
 589.026367188 547.666015625 589.026367188 538.999023438 586.693359375 528.999023438 c 0
 584.360351562 518.999023438 579.193359375 509.33203125 571.193359375 499.999023438 c 0
 543.860351562 468.666015625 512.860351562 429.666015625 478.193359375 382.999023438 c 1
 532.193359375 382.999023438 571.526367188 386.666015625 596.193359375 393.999023438 c 0
 600.860351562 395.484375 605.172851562 396.2265625 609.130859375 396.2265625 c 0
 617.612304688 396.2265625 624.466796875 392.817382812 629.694335938 385.999023438 c 0
 635.775390625 378.068359375 638.815429688 369.717773438 638.815429688 360.948242188 c 0
 638.815429688 358.66015625 638.608398438 356.34375 638.194335938 353.999023438 c 0
 636.861328125 347.999023438 634.861328125 341.999023438 632.194335938 335.999023438 c 0
 629.52734375 329.999023438 626.02734375 323.999023438 621.694335938 317.999023438 c 0
 617.361328125 311.999023438 611.861328125 307.33203125 605.194335938 303.999023438 c 0
 598.52734375 300.666015625 591.860351562 299.999023438 585.193359375 301.999023438 c 0
 570.193359375 304.999023438 543.192382812 306.499023438 504.19140625 306.499023438 c 0
 491.192382812 306.499023438 476.859375 306.33203125 461.193359375 305.999023438 c 1
 497.193359375 189.999023438 l 2
 498.708007812 183.029296875 499.465820312 176.438476562 499.465820312 170.2265625 c 0
 499.465820312 162.771484375 498.375 155.862304688 496.193359375 149.499023438 c 0
 492.193359375 137.83203125 485.526367188 129.33203125 476.193359375 123.999023438 c 0
 469.526367188 119.999023438 461.193359375 117.666015625 451.193359375 116.999023438 c 0
 441.193359375 116.33203125 432.026367188 118.33203125 423.693359375 122.999023438 c 0
 415.360351562 127.666015625 410.860351562 135.333007812 410.193359375 146 c 0
 408.860351562 172.666992188 401.52734375 211 388.194335938 261 c 1
 344.861328125 199.666992188 317.528320312 159 306.1953125 139 c 0x70
EndSplineSet
Validated: 524289
EndChar

StartChar: plus
Encoding: 43 43 22
Width: 650
GlyphClass: 2
Flags: HMW
HStem: 356.998 84.001<358.99 385.322>
LayerCount: 2
Fore
SplineSet
416.323242188 250 m 0
 412.990234375 234.666992188 407.322265625 223.831054688 399.322265625 217.498046875 c 0
 391.322265625 211.165039062 381.989257812 207.998046875 371.322265625 207.998046875 c 0
 349.771484375 207.998046875 338.995117188 216.701171875 338.995117188 234.108398438 c 0
 338.995117188 238.778320312 339.771484375 244.075195312 341.322265625 249.998046875 c 2
 365.322265625 356.998046875 l 1
 352.655273438 356.998046875 335.822265625 356.831054688 314.822265625 356.498046875 c 0
 293.822265625 356.165039062 279.655273438 355.998046875 272.322265625 355.998046875 c 0
 256.989257812 355.998046875 246.489257812 360.165039062 240.822265625 368.498046875 c 0
 236.96875 374.1640625 235.041992188 380.678710938 235.041992188 388.041015625 c 0
 235.041992188 391.505859375 235.46875 395.158203125 236.322265625 398.998046875 c 0
 238.322265625 411.665039062 243.989257812 422.33203125 253.322265625 430.999023438 c 0
 261.98828125 439.046875 273.529296875 443.0703125 287.943359375 443.0703125 c 0
 289.052734375 443.0703125 290.178710938 443.046875 291.322265625 442.999023438 c 0
 334.655273438 441.666015625 365.98828125 440.999023438 385.321289062 440.999023438 c 1
 393.321289062 474.33203125 400.654296875 510.33203125 407.321289062 548.999023438 c 0
 412.654296875 577.666015625 429.321289062 591.999023438 457.321289062 591.999023438 c 0
 469.98828125 592.666015625 479.655273438 589.999023438 486.322265625 583.999023438 c 0
 490.244140625 580.469726562 492.205078125 575.094726562 492.205078125 567.875 c 0
 492.205078125 562.8203125 491.244140625 556.862304688 489.322265625 549.999023438 c 0
 477.989257812 511.33203125 468.322265625 474.33203125 460.322265625 438.999023438 c 1
 562.322265625 438.999023438 l 2
 576.989257812 438.999023438 586.322265625 435.666015625 590.322265625 428.999023438 c 0
 594.322265625 422.33203125 595.655273438 413.33203125 594.322265625 401.999023438 c 0
 592.989257812 395.999023438 591.15625 390.499023438 588.823242188 385.499023438 c 0
 586.490234375 380.499023438 583.323242188 375.666015625 579.323242188 370.999023438 c 0
 575.323242188 366.33203125 570.323242188 362.83203125 564.323242188 360.499023438 c 0
 558.323242188 358.166015625 551.65625 357.333007812 544.323242188 358 c 0
 534.723632812 359.200195312 518.524414062 359.799804688 495.724609375 359.799804688 c 0
 480.524414062 359.799804688 462.390625 359.533203125 441.323242188 359 c 1
 437.323242188 341 432.490234375 319.666992188 426.823242188 295 c 0
 421.15625 270.333007812 417.65625 255.333007812 416.323242188 250 c 0
EndSplineSet
Validated: 524289
EndChar

StartChar: comma
Encoding: 44 44 23
Width: 650
GlyphClass: 2
Flags: HMW
VStem: 188.421 254.999
LayerCount: 2
Fore
SplineSet
441.919921875 96 m 0
 427.919921875 63.3330078125 402.921875 12.9990234375 366.921875 -55.0009765625 c 0
 330.921875 -123.000976562 305.588867188 -165.000976562 290.921875 -181.000976562 c 0
 277.588867188 -195.000976562 262.588867188 -205.000976562 245.921875 -211.000976562 c 0
 235.921875 -214.600585938 227.361328125 -216.401367188 220.241210938 -216.401367188 c 0
 215.494140625 -216.401367188 211.387695312 -215.600585938 207.920898438 -214.000976562 c 0
 201.920898438 -212.000976562 196.920898438 -208.000976562 192.920898438 -202.000976562 c 0
 188.920898438 -196.000976562 187.420898438 -188.66796875 188.420898438 -180.000976562 c 0
 189.420898438 -171.333984375 193.920898438 -162.333984375 201.920898438 -153.000976562 c 0
 219.25390625 -133.000976562 247.086914062 -89.0009765625 285.419921875 -21.0009765625 c 0
 323.752929688 46.9990234375 348.5859375 94.33203125 359.918945312 120.999023438 c 0
 363.918945312 130.33203125 370.0859375 137.665039062 378.418945312 142.998046875 c 0
 386.751953125 148.331054688 394.751953125 150.998046875 402.418945312 150.998046875 c 0
 410.0859375 150.998046875 417.252929688 150.331054688 423.919921875 148.998046875 c 0
 432.586914062 145.665039062 439.086914062 139.33203125 443.419921875 129.999023438 c 0
 445.362304688 125.815429688 446.333007812 121.229492188 446.333007812 116.2421875 c 0
 446.333007812 110.103515625 444.862304688 103.356445312 441.919921875 96 c 0
EndSplineSet
Validated: 524289
EndChar

StartChar: hyphen
Encoding: 45 45 24
Width: 650
GlyphClass: 2
Flags: HMW
HStem: 243 87<280.842 286.51> 251 82<481.51 511.844>
VStem: 245.51 290.001
LayerCount: 2
Fore
SplineSet
294.508789062 330 m 0xa0
 329.841796875 330 372.010742188 330.5 421.010742188 331.5 c 0
 470.010742188 332.5 497.84375 333 504.510742188 333 c 0
 519.177734375 333 528.510742188 329.5 532.510742188 322.5 c 0
 536.510742188 315.5 537.510742188 306.333007812 535.510742188 295 c 0
 528.84375 265.666992188 512.176757812 251 485.509765625 251 c 0x60
 477.509765625 251 446.009765625 249.666992188 391.009765625 247 c 0
 336.009765625 244.333007812 297.509765625 243 275.509765625 243 c 0
 254.176757812 243 243.509765625 252.172851562 243.509765625 270.51953125 c 0
 243.509765625 275.106445312 244.176757812 280.266601562 245.509765625 286 c 0
 250.842773438 315.333007812 267.17578125 330 294.508789062 330 c 0xa0
EndSplineSet
Validated: 524289
EndChar

StartChar: period
Encoding: 46 46 25
Width: 650
GlyphClass: 2
Flags: HMW
HStem: -14 153.998
VStem: 264.035 151
LayerCount: 2
Fore
SplineSet
323.034179688 -14 m 0
 319.7578125 -14.3740234375 316.606445312 -14.5615234375 313.581054688 -14.5615234375 c 0
 295.052734375 -14.5615234375 281.205078125 -7.5439453125 272.036132812 6.49609375 c 0
 264.924804688 17.384765625 261.369140625 29.5341796875 261.369140625 42.94140625 c 0
 261.369140625 49.6455078125 262.2578125 56.6630859375 264.03515625 63.99609375 c 0
 268.702148438 84.6630859375 280.702148438 102.330078125 300.03515625 116.997070312 c 0
 319.368164062 131.6640625 339.03515625 139.331054688 359.03515625 139.998046875 c 0
 360.013671875 140.02734375 360.98046875 140.04296875 361.935546875 140.04296875 c 0
 382.4609375 140.04296875 397.661132812 133.194335938 407.53515625 119.499023438 c 0
 414.350585938 110.044921875 417.758789062 98.923828125 417.758789062 86.1337890625 c 0
 417.758789062 79.533203125 416.850585938 72.48828125 415.03515625 64.9990234375 c 0
 410.368164062 43.666015625 399.701171875 25.8330078125 383.034179688 11.5 c 0
 366.3671875 -2.8330078125 346.3671875 -11.3330078125 323.034179688 -14 c 0
EndSplineSet
Validated: 524289
EndChar

StartChar: slash
Encoding: 47 47 26
Width: 650
GlyphClass: 2
Flags: HMW
VStem: 86.5907 95
LayerCount: 2
Fore
SplineSet
703.58984375 676 m 0
 679.58984375 642 615.091796875 558.498046875 510.091796875 425.498046875 c 0
 405.091796875 292.498046875 340.924804688 209.998046875 317.591796875 177.998046875 c 0
 302.924804688 157.331054688 278.7578125 122.331054688 245.090820312 72.998046875 c 0
 211.423828125 23.6650390625 190.256835938 -6.3349609375 181.58984375 -17.001953125 c 0
 167.58984375 -35.6689453125 152.08984375 -48.6689453125 135.08984375 -56.001953125 c 0
 126.58984375 -59.66796875 118.96484375 -61.501953125 112.21484375 -61.501953125 c 0
 105.46484375 -61.501953125 99.58984375 -59.66796875 94.58984375 -56.001953125 c 0
 88.58984375 -52.001953125 85.58984375 -44.0654296875 85.58984375 -32.1904296875 c 0
 85.58984375 -28.232421875 85.9228515625 -23.8359375 86.58984375 -19.0029296875 c 0
 89.2568359375 0.330078125 97.2568359375 17.9970703125 110.58984375 33.9970703125 c 0
 238.58984375 193.997070312 348.922851562 336.330078125 441.58984375 460.997070312 c 0
 499.58984375 537.6640625 562.256835938 624.331054688 629.58984375 720.998046875 c 0
 636.922851562 731.665039062 645.58984375 739.83203125 655.58984375 745.499023438 c 0
 665.58984375 751.166015625 674.58984375 753.833007812 682.58984375 753.5 c 0
 690.58984375 753.166992188 698.256835938 751.333984375 705.58984375 748.000976562 c 0
 715.58984375 742.000976562 720.58984375 732.66796875 720.58984375 720.000976562 c 0
 720.58984375 707.333984375 714.922851562 692.666992188 703.58984375 676 c 0
EndSplineSet
Validated: 524289
EndChar

StartChar: zero
Encoding: 48 48 27
Width: 650
GlyphClass: 2
Flags: HMW
HStem: -24 83.999<295.937 307.269> 636.999 81.001<482.269 483.603>
LayerCount: 2
Fore
SplineSet
297.936523438 -24 m 0
 269.26953125 -24 243.770507812 -18.333984375 221.4375 -7.0009765625 c 0
 199.104492188 4.33203125 181.604492188 19.9990234375 168.9375 39.9990234375 c 0
 156.270507812 59.9990234375 148.4375 84.9990234375 145.4375 114.999023438 c 0
 144.708007812 122.295898438 144.342773438 129.770507812 144.342773438 137.422851562 c 0
 144.342773438 161.23046875 147.875 186.755859375 154.9375 213.999023438 c 0
 156.270507812 220.666015625 159.770507812 237.166015625 165.4375 263.499023438 c 0
 171.104492188 289.83203125 175.771484375 310.83203125 179.438476562 326.499023438 c 0
 183.10546875 342.166015625 188.60546875 363.833007812 195.938476562 391.5 c 0
 203.271484375 419.166992188 210.271484375 443 216.938476562 463 c 0
 223.60546875 483 231.938476562 504.5 241.938476562 527.5 c 0
 251.938476562 550.5 261.938476562 570.666992188 271.938476562 588 c 0
 297.271484375 630 330.104492188 662.166992188 370.4375 684.5 c 0
 410.770507812 706.833007812 456.603515625 718 507.936523438 718 c 0
 533.26953125 718 555.76953125 713.333007812 575.436523438 704 c 0
 595.103515625 694.666992188 611.770507812 681 625.4375 663 c 0
 639.104492188 645 648.271484375 621.666992188 652.938476562 593 c 0
 655.116210938 579.62109375 656.206054688 565.298828125 656.206054688 550.032226562 c 0
 656.206054688 532.586914062 654.783203125 513.91015625 651.939453125 494 c 0
 646.606445312 460.666992188 639.2734375 422.833984375 629.940429688 380.500976562 c 0
 620.607421875 338.16796875 609.607421875 295.500976562 596.940429688 252.500976562 c 0
 584.2734375 209.500976562 572.606445312 176.66796875 561.939453125 154.000976562 c 0
 551.272460938 131.333984375 540.60546875 111.333984375 529.938476562 94.0009765625 c 0
 519.271484375 76.66796875 508.604492188 61.66796875 497.9375 49.0009765625 c 0
 487.270507812 36.333984375 475.770507812 25.6669921875 463.4375 17 c 0
 451.104492188 8.3330078125 439.104492188 1.3330078125 427.4375 -4 c 0
 415.770507812 -9.3330078125 402.770507812 -13.5 388.4375 -16.5 c 0
 374.104492188 -19.5 360.104492188 -21.5 346.4375 -22.5 c 0
 332.770507812 -23.5 316.603515625 -24 297.936523438 -24 c 0
248.9375 229.999023438 m 0
 248.270507812 227.33203125 247.4375 223.333007812 246.4375 218 c 0
 245.4375 212.666992188 244.604492188 209 243.9375 207 c 1
 355.270507812 329 459.270507812 454.333007812 555.9375 583 c 1
 548.604492188 600.333007812 537.9375 613.666015625 523.9375 622.999023438 c 0
 509.9375 632.33203125 493.270507812 636.999023438 473.9375 636.999023438 c 0
 439.270507812 636.999023438 409.9375 626.666015625 385.9375 605.999023438 c 0
 361.9375 585.33203125 339.9375 551.999023438 319.9375 505.999023438 c 0
 311.9375 489.33203125 304.4375 469.83203125 297.4375 447.499023438 c 0
 290.4375 425.166015625 283.4375 398.166015625 276.4375 366.499023438 c 0
 269.4375 334.83203125 264.770507812 312.499023438 262.4375 299.499023438 c 0
 260.104492188 286.499023438 255.604492188 263.33203125 248.9375 229.999023438 c 0
477.9375 168 m 0
 481.9375 176 489.604492188 197.999023438 500.9375 233.999023438 c 0
 512.270507812 269.999023438 523.9375 311.166015625 535.9375 357.499023438 c 0
 547.9375 403.83203125 557.270507812 448.33203125 563.9375 490.999023438 c 1
 463.270507812 344.33203125 356.270507812 221.33203125 242.9375 121.999023438 c 1
 250.270507812 80.666015625 274.9375 59.9990234375 316.9375 59.9990234375 c 0
 333.604492188 59.9990234375 348.9375 61.4990234375 362.9375 64.4990234375 c 0
 376.9375 67.4990234375 390.770507812 72.83203125 404.4375 80.4990234375 c 0
 418.104492188 88.166015625 430.9375 99.3330078125 442.9375 114 c 0
 454.9375 128.666992188 466.604492188 146.666992188 477.9375 168 c 0
EndSplineSet
Validated: 524289
EndChar

StartChar: one
Encoding: 49 49 28
Width: 650
GlyphClass: 2
Flags: HMW
HStem: -9 85.5 -5 89<151.731 152.396>
LayerCount: 2
Fore
SplineSet
560.064453125 38 m 0x80
 557.397460938 24.6669921875 551.561523438 13.5 542.561523438 4.5 c 0
 533.561523438 -4.5 519.728515625 -9 501.061523438 -9 c 0x80
 493.061523438 -9 438.061523438 -8.3330078125 336.061523438 -7 c 0
 234.061523438 -5.6669921875 167.728515625 -5 137.061523438 -5 c 0
 123.061523438 -5 113.89453125 -1 109.561523438 7 c 0
 106.87890625 11.9521484375 105.538085938 17.7978515625 105.538085938 24.5380859375 c 0
 105.538085938 28.6865234375 106.045898438 33.173828125 107.0625 38 c 0
 109.729492188 51.3330078125 115.396484375 62.3330078125 124.063476562 71 c 0
 132.73046875 79.6669921875 144.397460938 84 159.064453125 84 c 0x40
 187.064453125 84 234.731445312 83.6669921875 302.064453125 83 c 1
 308.064453125 109.666992188 312.731445312 131 316.064453125 147 c 0
 316.731445312 152.333007812 320.564453125 170 327.564453125 200 c 0
 334.564453125 230 339.731445312 251.666992188 343.064453125 265 c 0
 346.397460938 278.333007812 352.897460938 303 362.564453125 339 c 0
 372.231445312 375 379.231445312 401.833007812 383.564453125 419.5 c 0
 387.897460938 437.166992188 395.23046875 465.166992188 405.563476562 503.5 c 0
 415.896484375 541.833007812 423.729492188 570 429.0625 588 c 1
 373.729492188 546.666992188 334.396484375 522 311.063476562 514 c 0
 306.9609375 512.359375 303.016601562 511.5390625 299.229492188 511.5390625 c 0
 290.708984375 511.5390625 282.986328125 515.692382812 276.063476562 524 c 0
 268.563476562 533 264.813476562 542 264.813476562 551 c 0
 264.813476562 554 265.23046875 557 266.063476562 560 c 0
 268.063476562 570.666992188 272.396484375 580.166992188 279.063476562 588.5 c 0
 285.73046875 596.833007812 295.73046875 605.333007812 309.063476562 614 c 0
 330.396484375 628.666992188 352.896484375 644.833984375 376.563476562 662.500976562 c 0
 400.23046875 680.16796875 417.563476562 693.000976562 428.563476562 701.000976562 c 0
 439.563476562 709.000976562 450.23046875 715.833984375 460.563476562 721.500976562 c 0
 470.896484375 727.16796875 479.729492188 730.000976562 487.0625 730.000976562 c 0
 500.395507812 730.000976562 512.5625 724.000976562 523.5625 712.000976562 c 0
 532.870117188 701.846679688 537.524414062 693.125 537.524414062 685.834960938 c 0
 537.524414062 683.2109375 537.524414062 683.2109375 493.5625 518.500976562 c 0
 468.5625 424.833984375 454.395507812 370.000976562 451.0625 354.000976562 c 0
 435.729492188 287.333984375 423.0625 231.666992188 413.0625 187 c 0
 407.0625 162.333007812 399.729492188 126.333007812 391.0625 79 c 1
 409.0625 79 427.895507812 78.6669921875 447.5625 78 c 0
 467.229492188 77.3330078125 483.396484375 76.8330078125 496.063476562 76.5 c 0
 508.73046875 76.1669921875 517.397460938 76 522.064453125 76 c 0
 539.397460938 76 550.564453125 72.5 555.564453125 65.5 c 0
 560.564453125 58.5 562.064453125 49.3330078125 560.064453125 38 c 0x80
EndSplineSet
Validated: 524289
EndChar

StartChar: two
Encoding: 50 50 29
Width: 650
GlyphClass: 2
Flags: HMW
HStem: -18.0049 84.0049 -12 89<494.729 531.23> 637.997 83.999<479.063 492.065>
LayerCount: 2
Fore
SplineSet
507.729492188 -12 m 0x60
 481.729492188 -12 449.231445312 -12.6728515625 410.231445312 -14.005859375 c 0
 371.231445312 -15.3388671875 336.564453125 -16.671875 306.231445312 -18.0048828125 c 0
 275.8984375 -19.337890625 245.231445312 -20.0048828125 214.231445312 -20.0048828125 c 0
 183.231445312 -20.0048828125 159.064453125 -18.671875 141.731445312 -16.0048828125 c 0
 128.3984375 -14.671875 120.565429688 -5.671875 118.232421875 10.9951171875 c 0
 117.706054688 14.7587890625 117.442382812 18.8955078125 117.442382812 23.4072265625 c 0
 117.442382812 38.8740234375 120.5390625 58.7373046875 126.732421875 82.9951171875 c 0
 133.399414062 111.662109375 145.899414062 141.829101562 164.232421875 173.49609375 c 0
 182.565429688 205.163085938 206.3984375 235.49609375 235.731445312 264.49609375 c 0
 265.064453125 293.49609375 296.731445312 316.99609375 330.731445312 334.99609375 c 0
 406.731445312 374.99609375 456.064453125 402.99609375 478.731445312 418.99609375 c 0
 508.731445312 440.329101562 530.064453125 462.99609375 542.731445312 486.99609375 c 0
 549.3984375 500.99609375 555.065429688 518.329101562 559.732421875 538.99609375 c 0
 562.514648438 551.053710938 563.90625 561.962890625 563.90625 571.72265625 c 0
 563.90625 590.021484375 559.014648438 604.279296875 549.232421875 614.497070312 c 0
 534.232421875 630.1640625 509.399414062 637.997070312 474.732421875 637.997070312 c 0
 450.732421875 637.997070312 425.732421875 629.997070312 399.732421875 613.997070312 c 0
 373.732421875 597.997070312 352.399414062 580.330078125 335.732421875 560.997070312 c 0
 327.732421875 552.330078125 320.899414062 545.497070312 315.232421875 540.497070312 c 0
 309.565429688 535.497070312 303.8984375 532.6640625 298.231445312 531.997070312 c 0
 292.564453125 531.330078125 287.564453125 531.663085938 283.231445312 532.99609375 c 0
 278.8984375 534.329101562 273.731445312 536.662109375 267.731445312 539.995117188 c 0
 258.3984375 545.995117188 253.731445312 554.662109375 253.731445312 565.995117188 c 0
 253.731445312 577.328125 259.731445312 591.995117188 271.731445312 609.995117188 c 0
 281.064453125 622.662109375 293.231445312 635.329101562 308.231445312 647.99609375 c 0
 323.231445312 660.663085938 340.231445312 672.663085938 359.231445312 683.99609375 c 0
 378.231445312 695.329101562 399.3984375 704.49609375 422.731445312 711.49609375 c 0
 446.064453125 718.49609375 468.397460938 721.99609375 489.73046875 721.99609375 c 0
 557.063476562 721.99609375 604.23046875 705.329101562 631.23046875 671.99609375 c 0
 648.451171875 650.736328125 657.060546875 622.697265625 657.060546875 587.877929688 c 0
 657.060546875 568.103515625 654.284179688 546.143554688 648.73046875 521.99609375 c 0
 636.063476562 466.663085938 612.73046875 422.330078125 578.73046875 388.997070312 c 0
 553.397460938 364.330078125 512.397460938 336.997070312 455.73046875 306.997070312 c 0
 441.73046875 298.997070312 417.397460938 286.6640625 382.73046875 269.997070312 c 0
 352.73046875 254.6640625 326.23046875 235.831054688 303.23046875 213.498046875 c 0
 280.23046875 191.165039062 262.063476562 168.33203125 248.73046875 144.999023438 c 0
 235.397460938 121.666015625 224.73046875 96.3330078125 216.73046875 69 c 1
 250.73046875 67 283.73046875 66 315.73046875 66 c 0xa0
 347.73046875 66 372.897460938 66.5 391.23046875 67.5 c 0
 409.563476562 68.5 430.73046875 70 454.73046875 72 c 2
 502.73046875 76 l 2
 503.397460938 76 506.397460938 76.1669921875 511.73046875 76.5 c 0
 517.063476562 76.8330078125 520.563476562 77 522.23046875 77 c 2
 531.23046875 77 l 2
 535.563476562 77 538.73046875 76.3330078125 540.73046875 75 c 0
 542.73046875 73.6669921875 544.897460938 72 547.23046875 70 c 0
 549.563476562 68 551.23046875 65.3330078125 552.23046875 62 c 0
 553.23046875 58.6669921875 553.397460938 54.6669921875 552.73046875 50 c 0
 552.063476562 42 549.896484375 33.5 546.229492188 24.5 c 0
 542.5625 15.5 537.229492188 7.1669921875 530.229492188 -0.5 c 0
 523.229492188 -8.1669921875 515.729492188 -12 507.729492188 -12 c 0x60
EndSplineSet
Validated: 524289
EndChar

StartChar: three
Encoding: 51 51 30
Width: 650
GlyphClass: 2
Flags: HMW
HStem: -23.9941 84<318.37 342.037> 318.006 100<347.37 354.037> 638.006 83.998<457.705 472.703>
VStem: 489.204 100
LayerCount: 2
Fore
SplineSet
581.704101562 199 m 0
 566.37109375 130.333007812 534.37109375 76.005859375 485.704101562 36.005859375 c 0
 437.037109375 -3.994140625 377.370117188 -23.994140625 306.703125 -23.994140625 c 0
 284.703125 -23.994140625 263.870117188 -20.494140625 244.203125 -13.494140625 c 0
 224.536132812 -6.494140625 207.703125 2.505859375 193.703125 13.505859375 c 0
 179.703125 24.505859375 168.036132812 36.505859375 158.703125 49.505859375 c 0
 149.370117188 62.505859375 143.370117188 75.3388671875 140.703125 88.005859375 c 0
 139.370117188 94.138671875 138.703125 100.059570312 138.703125 105.765625 c 0
 138.703125 114.326171875 140.203125 122.405273438 143.203125 130.005859375 c 0
 148.203125 142.672851562 156.370117188 151.672851562 167.703125 157.005859375 c 0
 177.358398438 161.603515625 185.982421875 163.90234375 193.576171875 163.90234375 c 0
 196.994140625 163.90234375 200.203125 163.436523438 203.203125 162.505859375 c 0
 212.870117188 159.505859375 221.037109375 151.005859375 227.704101562 137.005859375 c 0
 237.037109375 117.005859375 250.370117188 99.1728515625 267.703125 83.505859375 c 0
 285.036132812 67.8388671875 306.036132812 60.005859375 330.703125 60.005859375 c 0
 367.370117188 60.005859375 400.370117188 71.3388671875 429.703125 94.005859375 c 0
 459.036132812 116.672851562 477.703125 146.005859375 485.703125 182.005859375 c 0
 488.814453125 196.673828125 490.370117188 210.0078125 490.370117188 222.008789062 c 0
 490.370117188 228.0078125 489.981445312 233.672851562 489.204101562 239.005859375 c 0
 486.87109375 255.005859375 480.37109375 269.005859375 469.704101562 281.005859375 c 0
 459.037109375 293.005859375 442.537109375 302.172851562 420.204101562 308.505859375 c 0
 397.87109375 314.838867188 370.37109375 318.005859375 337.704101562 318.005859375 c 0
 325.037109375 318.005859375 315.370117188 323.505859375 308.703125 334.505859375 c 0
 304.2578125 341.83984375 302.036132812 349.692382812 302.036132812 358.0625 c 0
 302.036132812 362.248046875 302.590820312 366.561523438 303.702148438 371.005859375 c 0
 307.03515625 385.005859375 313.03515625 396.338867188 321.702148438 405.005859375 c 0
 330.369140625 413.672851562 341.036132812 418.005859375 353.703125 418.005859375 c 0
 405.703125 418.005859375 449.203125 429.172851562 484.203125 451.505859375 c 0
 519.203125 473.838867188 541.036132812 506.338867188 549.703125 549.005859375 c 0
 552.262695312 558.60546875 553.54296875 567.420898438 553.54296875 575.450195312 c 0
 553.54296875 592.513671875 547.762695312 606.032226562 536.203125 616.005859375 c 0
 519.203125 630.672851562 491.703125 638.005859375 453.703125 638.005859375 c 0
 446.370117188 638.005859375 439.203125 637.172851562 432.203125 635.505859375 c 0
 425.203125 633.838867188 419.203125 632.171875 414.203125 630.504882812 c 0
 409.203125 628.837890625 403.703125 626.004882812 397.703125 622.004882812 c 0
 391.703125 618.004882812 386.870117188 614.671875 383.203125 612.004882812 c 0
 379.536132812 609.337890625 374.703125 605.004882812 368.703125 599.004882812 c 2
 356.203125 586.504882812 l 2
 353.870117188 584.171875 349.703125 579.338867188 343.703125 572.005859375 c 0
 330.370117188 557.338867188 318.203125 548.671875 307.203125 546.004882812 c 0
 304.060546875 545.243164062 300.958007812 544.862304688 297.896484375 544.862304688 c 0
 290.243164062 544.862304688 282.845703125 547.243164062 275.703125 552.004882812 c 0
 266.9921875 556.982421875 262.637695312 565.0078125 262.637695312 576.083007812 c 0
 262.637695312 588.150390625 267.678710938 603.212890625 279.705078125 622.00390625 c 0
 289.038085938 635.336914062 299.705078125 647.50390625 311.705078125 658.50390625 c 0
 323.705078125 669.50390625 337.372070312 680.00390625 352.705078125 690.00390625 c 0
 368.038085938 700.00390625 385.705078125 707.836914062 405.705078125 713.50390625 c 0
 425.705078125 719.170898438 446.705078125 722.00390625 468.705078125 722.00390625 c 0
 540.038085938 722.00390625 590.038085938 706.00390625 618.705078125 674.00390625 c 0
 637.103515625 653.466796875 646.301757812 626.614257812 646.301757812 593.4453125 c 0
 646.301757812 574.932617188 643.436523438 554.452148438 637.705078125 532.00390625 c 0
 633.705078125 512.670898438 627.538085938 495.170898438 619.205078125 479.50390625 c 0
 610.872070312 463.836914062 601.372070312 450.50390625 590.705078125 439.50390625 c 0
 580.038085938 428.50390625 567.87109375 418.836914062 554.204101562 410.50390625 c 0
 540.537109375 402.170898438 527.204101562 395.670898438 514.204101562 391.00390625 c 0
 501.204101562 386.336914062 487.37109375 382.669921875 472.704101562 380.002929688 c 1
 496.704101562 374.002929688 516.704101562 366.669921875 532.704101562 358.002929688 c 0
 548.704101562 349.3359375 561.704101562 338.168945312 571.704101562 324.501953125 c 0
 581.704101562 310.834960938 587.537109375 293.66796875 589.204101562 273.000976562 c 0
 589.537109375 268.8671875 589.704101562 264.573242188 589.704101562 260.119140625 c 0
 589.704101562 242.305664062 587.037109375 221.932617188 581.704101562 199 c 0
EndSplineSet
Validated: 524289
EndChar

StartChar: four
Encoding: 52 52 31
Width: 650
GlyphClass: 2
Flags: HMW
HStem: -23.001 21G<432.946 445.613> 223.999 79.999
LayerCount: 2
Fore
SplineSet
493.611328125 55 m 0
 492.944335938 33.6669921875 487.112304688 15.33203125 476.112304688 -0.0009765625 c 0
 465.112304688 -15.333984375 452.612304688 -23.0009765625 438.612304688 -23.0009765625 c 0
 427.279296875 -23.0009765625 417.279296875 -18.16796875 408.612304688 -8.5009765625 c 0
 401.100585938 -0.123046875 397.344726562 8.380859375 397.344726562 17.0087890625 c 0
 397.344726562 23.4921875 403.22265625 48.0009765625 406.110351562 59.9990234375 c 0
 410.443359375 77.9990234375 416.610351562 103.83203125 424.610351562 137.499023438 c 0
 432.610351562 171.166015625 439.27734375 199.999023438 444.610351562 223.999023438 c 1
 431.357421875 224.15625 418.565429688 224.234375 406.234375 224.234375 c 0
 313.740234375 224.234375 247.19921875 219.822265625 206.610351562 210.999023438 c 0
 196.610351562 208.999023438 187.77734375 209.33203125 180.110351562 211.999023438 c 0
 172.443359375 214.666015625 167.110351562 219.333007812 164.110351562 226 c 0
 161.110351562 232.666992188 159.27734375 240.333984375 158.610351562 249.000976562 c 0
 157.943359375 257.66796875 158.776367188 266.66796875 161.109375 276.000976562 c 0
 163.442382812 285.333984375 166.942382812 294.333984375 171.609375 303.000976562 c 0
 182.276367188 321.66796875 206.109375 352.16796875 243.109375 394.500976562 c 0
 280.109375 436.833984375 327.276367188 489.166992188 384.609375 551.5 c 0
 441.942382812 613.833007812 482.942382812 659 507.609375 687 c 0
 518.942382812 699.666992188 530.442382812 709.166992188 542.109375 715.5 c 0
 553.776367188 721.833007812 563.943359375 725 572.610351562 725 c 0
 574.913085938 725.2421875 577.155273438 725.36328125 579.336914062 725.36328125 c 0
 589.155273438 725.36328125 597.74609375 722.909179688 605.110351562 718 c 0
 613.489257812 712.4140625 617.6796875 703.072265625 617.6796875 689.973632812 c 0
 617.6796875 684.974609375 616.553710938 656.916992188 601.611328125 579 c 0
 592.278320312 530.333007812 583.9453125 489.166015625 576.612304688 455.499023438 c 0
 569.279296875 421.83203125 558.279296875 370.999023438 543.612304688 302.999023438 c 1
 554.279296875 302.33203125 566.279296875 301.999023438 579.612304688 301.999023438 c 0
 594.279296875 301.999023438 603.612304688 298.499023438 607.612304688 291.499023438 c 0
 611.612304688 284.499023438 612.612304688 275.33203125 610.612304688 263.999023438 c 0
 603.9453125 234.666015625 587.278320312 219.999023438 560.611328125 219.999023438 c 0
 547.944335938 219.999023438 536.611328125 220.33203125 526.611328125 220.999023438 c 1
 504.611328125 123.666015625 493.611328125 68.3330078125 493.611328125 55 c 0
524.612304688 601.998046875 m 1
 402.612304688 472.665039062 317.278320312 372.331054688 268.611328125 300.998046875 c 1
 303.850585938 303.37890625 346.9140625 304.569335938 397.801757812 304.569335938 c 0
 418.153320312 304.569335938 439.756835938 304.37890625 462.611328125 303.998046875 c 1
 491.278320312 428.665039062 511.9453125 527.998046875 524.612304688 601.998046875 c 1
EndSplineSet
Validated: 524289
EndChar

StartChar: five
Encoding: 53 53 32
Width: 650
GlyphClass: 2
Flags: HMW
HStem: -18.001 83.998<315.707 322.04> 419.997 89.0029<440.041 502.709> 619 88.998<640.376 671.71> 630 79.998
LayerCount: 2
Fore
SplineSet
613.708984375 296 m 0xd0
 602.375976562 246.666992188 586.373046875 202.166015625 565.706054688 162.499023438 c 0
 545.0390625 122.83203125 521.206054688 89.83203125 494.206054688 63.4990234375 c 0
 467.206054688 37.166015625 437.5390625 16.9990234375 405.206054688 2.9990234375 c 0
 372.873046875 -11.0009765625 339.373046875 -18.0009765625 304.706054688 -18.0009765625 c 0
 277.373046875 -18.0009765625 252.873046875 -15.0009765625 231.206054688 -9.0009765625 c 0
 209.5390625 -3.0009765625 192.206054688 5.33203125 179.206054688 15.9990234375 c 0
 166.206054688 26.666015625 155.873046875 37.8330078125 148.206054688 49.5 c 0
 140.5390625 61.1669921875 134.706054688 73.333984375 130.706054688 86.0009765625 c 0
 129.373046875 93.201171875 128.706054688 99.8681640625 128.706054688 106.000976562 c 0
 128.706054688 115.201171875 130.206054688 123.201171875 133.206054688 130.000976562 c 0
 138.206054688 141.333984375 147.0390625 150.000976562 159.706054688 156.000976562 c 0
 167.706054688 159.333984375 173.873046875 161.666992188 178.206054688 163 c 0
 182.5390625 164.333007812 187.5390625 164.666015625 193.206054688 163.999023438 c 0
 198.873046875 163.33203125 203.540039062 160.665039062 207.20703125 155.998046875 c 0
 210.874023438 151.331054688 214.374023438 144.6640625 217.70703125 135.997070312 c 0
 235.040039062 89.9970703125 267.70703125 66.6640625 315.70703125 65.9970703125 c 0
 362.374023438 65.9970703125 403.874023438 85.830078125 440.20703125 125.497070312 c 0
 476.540039062 165.1640625 502.373046875 218.331054688 517.706054688 284.998046875 c 0
 521.920898438 303.6640625 524.028320312 320.59765625 524.028320312 335.796875 c 0
 524.028320312 354.252929688 520.920898438 370.153320312 514.706054688 383.497070312 c 0
 503.373046875 407.830078125 480.040039062 419.997070312 444.70703125 419.997070312 c 0
 435.374023438 419.997070312 426.20703125 419.497070312 417.20703125 418.497070312 c 0
 408.20703125 417.497070312 400.540039062 416.1640625 394.20703125 414.497070312 c 0
 387.874023438 412.830078125 380.70703125 410.330078125 372.70703125 406.997070312 c 0
 364.70703125 403.6640625 358.70703125 400.997070312 354.70703125 398.997070312 c 0
 350.70703125 396.997070312 345.040039062 393.330078125 337.70703125 387.997070312 c 0
 330.374023438 382.6640625 325.541015625 378.997070312 323.208007812 376.997070312 c 0
 320.875 374.997070312 315.875 370.830078125 308.208007812 364.497070312 c 0
 300.541015625 358.1640625 295.708007812 354.331054688 293.708007812 352.998046875 c 0
 287.708007812 348.331054688 280.875 344.331054688 273.208007812 340.998046875 c 0
 265.541015625 337.665039062 257.208007812 335.498046875 248.208007812 334.498046875 c 0
 239.208007812 333.498046875 231.041015625 334.998046875 223.708007812 338.998046875 c 0
 214.375 343.665039062 208.875 353.998046875 207.208007812 369.998046875 c 0
 206.76953125 374.208984375 206.549804688 378.673828125 206.549804688 383.392578125 c 0
 206.549804688 396.603515625 208.26953125 411.805664062 211.708007812 428.998046875 c 0
 216.375 452.331054688 221.708007812 474.831054688 227.708007812 496.498046875 c 0
 233.708007812 518.165039062 240.375 541.498046875 247.708007812 566.498046875 c 0
 255.041015625 591.498046875 259.708007812 608.665039062 261.708007812 617.998046875 c 1
 258.375 626.665039062 257.375 636.498046875 258.708007812 647.498046875 c 0
 260.041015625 658.498046875 263.041015625 668.665039062 267.708007812 677.998046875 c 0
 272.375 687.331054688 278.541992188 695.331054688 286.208984375 701.998046875 c 0
 293.875976562 708.665039062 302.04296875 711.998046875 310.709960938 711.998046875 c 0
 334.04296875 711.998046875 388.209960938 711.331054688 473.209960938 709.998046875 c 0xd0
 558.209960938 708.665039062 623.04296875 707.998046875 667.709960938 707.998046875 c 0
 675.709960938 707.998046875 681.376953125 704.331054688 684.709960938 696.998046875 c 0
 688.04296875 689.665039062 689.375976562 681.33203125 688.708984375 671.999023438 c 0
 688.041992188 662.666015625 686.375 653.999023438 683.708007812 645.999023438 c 0
 682.375 641.33203125 680.541992188 637.33203125 678.208984375 633.999023438 c 0
 675.875976562 630.666015625 673.04296875 628.166015625 669.709960938 626.499023438 c 0
 666.376953125 624.83203125 663.543945312 623.33203125 661.2109375 621.999023438 c 0
 658.877929688 620.666015625 655.377929688 619.833007812 650.7109375 619.5 c 0
 646.043945312 619.166992188 642.876953125 619 641.209960938 619 c 0xe0
 639.54296875 619 636.04296875 619.333007812 630.709960938 620 c 0
 625.376953125 620.666992188 622.376953125 621 621.709960938 621 c 0
 613.04296875 621 597.875976562 622 576.208984375 624 c 0
 554.541992188 626 535.041992188 627.5 517.708984375 628.5 c 0
 500.375976562 629.5 476.208984375 630 445.208984375 630 c 0
 414.208984375 630 381.708984375 629 347.708984375 627 c 1
 345.708984375 620.333007812 340.541992188 601 332.208984375 569 c 0
 323.875976562 537 317.875976562 513.833007812 314.208984375 499.5 c 0
 310.541992188 485.166992188 306.041992188 464.666992188 300.708984375 438 c 1
 322.708984375 458.666992188 350.041992188 475.666992188 382.708984375 489 c 0
 415.375976562 502.333007812 450.708984375 509 488.708984375 509 c 0
 516.708984375 509 540.375976562 503.5 559.708984375 492.5 c 0
 579.041992188 481.5 593.708984375 466.333007812 603.708984375 447 c 0
 613.708984375 427.666992188 619.541992188 405.166992188 621.208984375 379.5 c 0
 621.541992188 374.366210938 621.708984375 369.145507812 621.708984375 363.837890625 c 0
 621.708984375 342.611328125 619.041992188 319.999023438 613.708984375 296 c 0xd0
EndSplineSet
Validated: 524289
EndChar

StartChar: six
Encoding: 54 54 33
Width: 650
GlyphClass: 2
Flags: HMW
HStem: -21.9971 84.0049<330.472 334.14> 393.004 87.9961<412.14 487.14> 657 80.002
VStem: 152.806 82.9971 520.306 95
LayerCount: 2
Fore
SplineSet
603.806640625 246 m 0
 595.139648438 208.666992188 581.138671875 173.502929688 561.805664062 140.502929688 c 0
 542.47265625 107.502929688 520.305664062 79.169921875 495.305664062 55.5029296875 c 0
 470.305664062 31.8359375 442.305664062 13.0029296875 411.305664062 -0.9970703125 c 0
 380.305664062 -14.9970703125 349.47265625 -21.9970703125 318.805664062 -21.9970703125 c 0
 280.805664062 -21.9970703125 249.305664062 -14.1640625 224.305664062 1.5029296875 c 0
 199.305664062 17.169921875 180.97265625 39.8369140625 169.305664062 69.50390625 c 0
 158.26953125 97.56640625 152.751953125 130.848632812 152.751953125 169.349609375 c 0
 152.751953125 171.55078125 152.76953125 173.768554688 152.805664062 176.00390625 c 0
 153.47265625 217.336914062 160.139648438 263.669921875 172.806640625 315.002929688 c 0
 186.806640625 372.3359375 204.139648438 424.002929688 224.806640625 470.002929688 c 0
 245.473632812 516.002929688 268.306640625 554.669921875 293.306640625 586.002929688 c 0
 318.306640625 617.3359375 346.139648438 643.8359375 376.806640625 665.502929688 c 0
 407.473632812 687.169921875 439.140625 703.669921875 471.807617188 715.002929688 c 0
 504.474609375 726.3359375 539.807617188 733.668945312 577.807617188 737.001953125 c 0
 580.600585938 737.255859375 583.291015625 737.3828125 585.877929688 737.3828125 c 0
 596.87890625 737.3828125 606.021484375 735.088867188 613.307617188 730.500976562 c 0
 621.686523438 725.224609375 625.876953125 716.915039062 625.876953125 705.571289062 c 0
 625.876953125 701.477539062 625.876953125 691.969726562 608.806640625 676.5 c 0
 598.139648438 666.833007812 587.47265625 660.333007812 576.805664062 657 c 0
 569.47265625 655 558.305664062 652.333007812 543.305664062 649 c 0
 528.305664062 645.666992188 515.638671875 642.5 505.305664062 639.5 c 0
 494.97265625 636.5 482.305664062 632 467.305664062 626 c 0
 452.305664062 620 436.805664062 611.333007812 420.805664062 600 c 0
 404.805664062 588.666992188 388.47265625 575 371.805664062 559 c 0
 354.47265625 541.666992188 336.639648438 518 318.306640625 488 c 0
 299.973632812 458 286.473632812 431.333007812 277.806640625 408 c 1
 303.139648438 432.666992188 332.47265625 451 365.805664062 463 c 0
 399.138671875 475 434.805664062 481 472.805664062 481 c 0
 501.47265625 481 525.97265625 476.666992188 546.305664062 468 c 0
 566.638671875 459.333007812 582.805664062 445.666015625 594.805664062 426.999023438 c 0
 606.805664062 408.33203125 613.638671875 383.83203125 615.305664062 353.499023438 c 0
 615.55859375 348.90234375 615.684570312 344.178710938 615.684570312 339.330078125 c 0
 615.684570312 312.178710938 611.725585938 281.069335938 603.806640625 246 c 0
237.805664062 230.002929688 m 0
 236.3046875 218.997070312 235.552734375 207.899414062 235.552734375 196.708007812 c 0
 235.552734375 192.984375 235.63671875 189.250976562 235.802734375 185.506835938 c 0
 236.469726562 170.506835938 239.13671875 155.33984375 243.803710938 140.006835938 c 0
 248.470703125 124.673828125 254.637695312 111.340820312 262.3046875 100.0078125 c 0
 269.971679688 88.6748046875 280.471679688 79.5078125 293.8046875 72.5078125 c 0
 307.137695312 65.5078125 322.137695312 62.0078125 338.8046875 62.0078125 c 0
 361.471679688 62.0078125 385.138671875 70.6748046875 409.805664062 88.0078125 c 0
 434.47265625 105.340820312 455.805664062 127.173828125 473.805664062 153.506835938 c 0
 491.805664062 179.83984375 503.805664062 206.672851562 509.805664062 234.005859375 c 0
 516.8203125 263.977539062 520.327148438 289.375 520.327148438 310.196289062 c 0
 520.327148438 333.04296875 516.104492188 350.248046875 507.805664062 362.00390625 c 0
 499.805664062 373.336914062 489.47265625 381.336914062 476.805664062 386.00390625 c 0
 464.138671875 390.670898438 447.805664062 393.00390625 427.805664062 393.00390625 c 0
 396.47265625 393.00390625 365.305664062 384.336914062 334.305664062 367.00390625 c 0
 303.305664062 349.670898438 276.138671875 327.670898438 252.805664062 301.00390625 c 1
 245.47265625 272.336914062 240.47265625 248.669921875 237.805664062 230.002929688 c 0
EndSplineSet
Validated: 524289
EndChar

StartChar: seven
Encoding: 55 55 34
Width: 650
GlyphClass: 2
Flags: HMW
HStem: 622.497 90.5
LayerCount: 2
Fore
SplineSet
233.213867188 26 m 0
 221.880859375 8.6669921875 209.375976562 -4.3359375 195.708984375 -13.0029296875 c 0
 185.2578125 -19.630859375 175.489257812 -22.9443359375 166.403320312 -22.9443359375 c 0
 163.607421875 -22.9443359375 160.875976562 -22.630859375 158.208984375 -22.0029296875 c 0
 145.541992188 -18.669921875 138.041992188 -10.669921875 135.708984375 1.9970703125 c 0
 135.267578125 4.3935546875 135.046875 6.837890625 135.046875 9.3291015625 c 0
 135.046875 20.0087890625 139.100585938 31.564453125 147.208984375 43.9970703125 c 0
 194.541992188 112.6640625 244.208984375 180.997070312 296.208984375 248.997070312 c 0
 348.208984375 316.997070312 390.708984375 371.1640625 423.708984375 411.497070312 c 0
 456.708984375 451.830078125 487.708984375 490.997070312 516.708984375 528.997070312 c 0
 545.708984375 566.997070312 566.541992188 597.997070312 579.208984375 621.997070312 c 1
 550.1171875 623.087890625 519.8359375 623.633789062 488.36328125 623.633789062 c 0
 462.138671875 623.633789062 435.087890625 623.254882812 407.209960938 622.497070312 c 0
 345.876953125 620.830078125 305.209960938 617.330078125 285.209960938 611.997070312 c 0
 277.209960938 609.997070312 270.709960938 610.330078125 265.709960938 612.997070312 c 0
 260.709960938 615.6640625 257.04296875 619.6640625 254.709960938 624.997070312 c 0
 252.376953125 630.330078125 251.043945312 635.997070312 250.7109375 641.997070312 c 0
 250.377929688 647.997070312 250.544921875 653.997070312 251.211914062 659.997070312 c 0
 253.87890625 671.997070312 258.87890625 681.497070312 266.211914062 688.497070312 c 0
 273.544921875 695.497070312 285.211914062 700.6640625 301.211914062 703.997070312 c 0
 325.211914062 708.6640625 357.544921875 711.6640625 398.211914062 712.997070312 c 0
 418.545898438 713.6640625 438.045898438 713.997070312 456.711914062 713.997070312 c 0
 475.37890625 713.997070312 493.211914062 713.663085938 510.211914062 712.997070312 c 0
 544.211914062 711.6640625 577.37890625 710.331054688 609.711914062 708.998046875 c 0
 642.044921875 707.665039062 659.544921875 706.998046875 662.211914062 706.998046875 c 0
 668.87890625 706.998046875 674.87890625 705.498046875 680.211914062 702.498046875 c 0
 685.544921875 699.498046875 690.211914062 694.665039062 694.211914062 687.998046875 c 0
 698.211914062 681.331054688 699.044921875 672.6640625 696.711914062 661.997070312 c 0
 694.37890625 651.330078125 688.545898438 638.997070312 679.212890625 624.997070312 c 0
 665.879882812 604.997070312 643.212890625 574.830078125 611.212890625 534.497070312 c 0
 579.212890625 494.1640625 546.045898438 452.831054688 511.712890625 410.498046875 c 0
 477.379882812 368.165039062 434.546875 311.83203125 383.213867188 241.499023438 c 0
 331.880859375 171.166015625 281.880859375 99.3330078125 233.213867188 26 c 0
EndSplineSet
Validated: 524289
EndChar

StartChar: eight
Encoding: 56 56 35
Width: 650
GlyphClass: 2
Flags: HMW
HStem: -27.9922 85.9971<316.737 321.403> 646.004 72.001<469.403 474.403>
VStem: 514.57 90.501
LayerCount: 2
Fore
SplineSet
600.0703125 204 m 0
 595.403320312 182.666992188 587.90234375 161.338867188 577.569335938 140.005859375 c 0
 567.236328125 118.672851562 553.569335938 97.83984375 536.569335938 77.5068359375 c 0
 519.569335938 57.173828125 500.236328125 39.3408203125 478.569335938 24.0078125 c 0
 456.90234375 8.6748046875 431.069335938 -3.8251953125 401.069335938 -13.4921875 c 0
 371.069335938 -23.1591796875 338.736328125 -27.9921875 304.069335938 -27.9921875 c 0
 272.736328125 -27.9921875 245.569335938 -23.3251953125 222.569335938 -13.9921875 c 0
 199.569335938 -4.6591796875 181.90234375 7.173828125 169.569335938 21.5068359375 c 0
 157.236328125 35.83984375 147.903320312 53.0068359375 141.5703125 73.0068359375 c 0
 135.553710938 92.0078125 132.544921875 111.159179688 132.544921875 130.4609375 c 0
 132.544921875 141.575195312 133.374023438 165.397460938 140.0703125 196.005859375 c 0
 145.403320312 218.672851562 156.403320312 243.005859375 173.0703125 269.005859375 c 0
 189.737304688 295.005859375 210.737304688 319.005859375 236.0703125 341.005859375 c 0
 261.403320312 363.005859375 287.403320312 378.338867188 314.0703125 387.005859375 c 1
 284.737304688 403.672851562 264.0703125 425.505859375 252.0703125 452.505859375 c 0
 244.356445312 469.86328125 240.499023438 487.426757812 240.499023438 505.197265625 c 0
 240.499023438 515.069335938 241.689453125 525.005859375 244.0703125 535.005859375 c 0
 246.0703125 543.005859375 248.5703125 551.505859375 251.5703125 560.505859375 c 0
 254.5703125 569.505859375 259.403320312 580.172851562 266.0703125 592.505859375 c 0
 272.737304688 604.838867188 280.237304688 616.671875 288.5703125 628.004882812 c 0
 296.903320312 639.337890625 307.403320312 650.504882812 320.0703125 661.504882812 c 0
 332.737304688 672.504882812 346.5703125 682.171875 361.5703125 690.504882812 c 0
 376.5703125 698.837890625 394.403320312 705.504882812 415.0703125 710.504882812 c 0
 435.737304688 715.504882812 457.737304688 718.004882812 481.0703125 718.004882812 c 0
 505.0703125 718.004882812 526.237304688 715.504882812 544.5703125 710.504882812 c 0
 562.903320312 705.504882812 577.903320312 698.837890625 589.5703125 690.504882812 c 0
 601.237304688 682.171875 610.737304688 672.504882812 618.0703125 661.504882812 c 0
 625.403320312 650.504882812 630.736328125 639.337890625 634.069335938 628.004882812 c 0
 637.40234375 616.671875 639.40234375 604.671875 640.069335938 592.004882812 c 0
 640.3359375 586.938476562 640.469726562 582.112304688 640.469726562 577.525390625 c 0
 640.469726562 570.64453125 640.168945312 564.3046875 639.569335938 558.50390625 c 0
 638.569335938 548.836914062 637.069335938 539.669921875 635.069335938 531.002929688 c 0
 633.069335938 523.002929688 630.236328125 515.002929688 626.569335938 507.002929688 c 0
 622.90234375 499.002929688 618.90234375 492.002929688 614.569335938 486.002929688 c 0
 610.236328125 480.002929688 604.736328125 473.669921875 598.069335938 467.002929688 c 0
 591.40234375 460.3359375 585.40234375 454.668945312 580.069335938 450.001953125 c 0
 574.736328125 445.334960938 567.903320312 440.001953125 559.5703125 434.001953125 c 0
 551.237304688 428.001953125 544.5703125 423.501953125 539.5703125 420.501953125 c 0
 534.5703125 417.501953125 527.903320312 413.334960938 519.5703125 408.001953125 c 0
 511.237304688 402.668945312 505.404296875 399.001953125 502.071289062 397.001953125 c 1
 522.73828125 386.334960938 540.23828125 374.334960938 554.571289062 361.001953125 c 0
 568.904296875 347.668945312 579.571289062 334.501953125 586.571289062 321.501953125 c 0
 593.571289062 308.501953125 598.571289062 294.668945312 601.571289062 280.001953125 c 0
 604.025390625 268.001953125 605.252929688 257.006835938 605.252929688 247.014648438 c 0
 605.252929688 244.793945312 605.192382812 242.623046875 605.071289062 240.500976562 c 0
 604.404296875 228.833984375 602.737304688 216.666992188 600.0703125 204 c 0
332.069335938 538.004882812 m 0
 330.670898438 532.235351562 329.971679688 526.637695312 329.971679688 521.211914062 c 0
 329.971679688 505.94921875 335.504882812 492.046875 346.571289062 479.504882812 c 0
 361.571289062 462.504882812 389.071289062 445.337890625 429.071289062 428.004882812 c 1
 457.73828125 439.337890625 484.23828125 454.670898438 508.571289062 474.00390625 c 0
 532.904296875 493.336914062 546.737304688 511.336914062 550.0703125 528.00390625 c 0
 551.784179688 536.00390625 552.641601562 543.942382812 552.641601562 551.819335938 c 0
 552.641601562 562.323242188 551.118164062 572.717773438 548.0703125 583.00390625 c 0
 542.737304688 601.00390625 532.5703125 616.00390625 517.5703125 628.00390625 c 0
 502.5703125 640.00390625 484.737304688 646.00390625 464.0703125 646.00390625 c 0
 435.403320312 646.00390625 407.736328125 634.836914062 381.069335938 612.50390625 c 0
 354.40234375 590.170898438 338.069335938 565.337890625 332.069335938 538.004882812 c 0
328.071289062 58.0048828125 m 0
 346.071289062 58.0048828125 364.737304688 60.8330078125 384.0703125 66.5 c 0
 403.403320312 72.1669921875 421.5703125 80.333984375 438.5703125 91.0009765625 c 0
 455.5703125 101.66796875 470.5703125 115.66796875 483.5703125 133.000976562 c 0
 496.5703125 150.333984375 505.403320312 168.666992188 510.0703125 188 c 0
 511.821289062 195.001953125 514.620117188 208.245117188 514.620117188 221.444335938 c 0
 514.620117188 230.415039062 513.270507812 240.600585938 510.5703125 252.001953125 c 0
 507.5703125 264.668945312 502.403320312 276.3359375 495.0703125 287.002929688 c 0
 487.737304688 297.669921875 476.737304688 308.836914062 462.0703125 320.50390625 c 0
 447.403320312 332.170898438 429.0703125 342.670898438 407.0703125 352.00390625 c 1
 359.0703125 339.336914062 317.737304688 317.336914062 283.0703125 286.00390625 c 0
 248.403320312 254.670898438 226.736328125 221.337890625 218.069335938 186.004882812 c 0
 215.771484375 176.557617188 214.622070312 167.453125 214.622070312 158.690429688 c 0
 214.622070312 144.573242188 217.604492188 131.344726562 223.569335938 119.004882812 c 0
 233.236328125 99.0048828125 247.403320312 83.837890625 266.0703125 73.5048828125 c 0
 284.737304688 63.171875 305.404296875 58.0048828125 328.071289062 58.0048828125 c 0
EndSplineSet
Validated: 524289
EndChar

StartChar: nine
Encoding: 57 57 36
Width: 650
GlyphClass: 2
Flags: HMW
HStem: -22 79.9961<211.612 211.612> 234.998 89<337.945 409.279> 654.995 84.0049<477.279 480.943>
LayerCount: 2
Fore
SplineSet
211.612304688 -22 m 0
 208.81640625 -22.25390625 206.1171875 -22.380859375 203.514648438 -22.380859375 c 0
 192.465820312 -22.380859375 183.163085938 -20.0908203125 175.609375 -15.50390625 c 0
 167.442382812 -10.544921875 163.359375 -2.90625 163.359375 7.412109375 c 0
 163.359375 14.451171875 164.158203125 24.6025390625 180.610351562 38.9970703125 c 0
 191.27734375 48.330078125 201.944335938 54.6630859375 212.611328125 57.99609375 c 0
 219.944335938 59.99609375 231.611328125 62.6630859375 247.611328125 65.99609375 c 0
 263.611328125 69.3291015625 278.111328125 72.8291015625 291.111328125 76.49609375 c 0
 304.111328125 80.1630859375 318.944335938 84.99609375 335.611328125 90.99609375 c 0
 352.278320312 96.99609375 368.778320312 105.329101562 385.111328125 115.99609375 c 0
 401.444335938 126.663085938 417.611328125 139.330078125 433.611328125 153.997070312 c 0
 453.611328125 173.330078125 472.611328125 195.830078125 490.611328125 221.497070312 c 0
 508.611328125 247.1640625 521.944335938 270.331054688 530.611328125 290.998046875 c 1
 508.611328125 269.665039062 483.278320312 254.998046875 454.611328125 246.998046875 c 0
 425.944335938 238.998046875 391.611328125 234.998046875 351.611328125 234.998046875 c 0
 324.278320312 234.998046875 299.778320312 241.831054688 278.111328125 255.498046875 c 0
 256.444335938 269.165039062 239.611328125 287.33203125 227.611328125 309.999023438 c 0
 215.611328125 332.666015625 207.944335938 358.833007812 204.611328125 388.5 c 0
 203.5 398.387695312 202.9453125 408.33203125 202.9453125 418.331054688 c 0
 202.9453125 438.33203125 205.166992188 458.555664062 209.612304688 479.000976562 c 0
 218.279296875 516.333984375 232.112304688 551.166992188 251.112304688 583.5 c 0
 270.112304688 615.833007812 292.112304688 643.333007812 317.112304688 666 c 0
 342.112304688 688.666992188 369.9453125 706.5 400.612304688 719.5 c 0
 431.279296875 732.5 461.946289062 739 492.61328125 739 c 0
 568.61328125 739 618.11328125 708 641.11328125 646 c 0
 651.485351562 618.0390625 656.671875 584.586914062 656.671875 545.643554688 c 0
 656.671875 498.234375 648.985351562 442.686523438 633.61328125 379 c 0
 620.946289062 325.666992188 603.779296875 277.5 582.112304688 234.5 c 0
 560.4453125 191.5 536.278320312 155 509.611328125 125 c 0
 482.944335938 95 453.111328125 69.3330078125 420.111328125 48 c 0
 387.111328125 26.6669921875 353.444335938 10.5 319.111328125 -0.5 c 0
 284.778320312 -11.5 248.9453125 -18.6669921875 211.612304688 -22 c 0
303.609375 490.995117188 m 0
 297.879882812 466.268554688 295.015625 444.237304688 295.015625 424.8984375 c 0
 295.015625 401.482421875 299.215820312 382.015625 307.61328125 366.498046875 c 0
 322.946289062 338.165039062 352.279296875 323.998046875 395.612304688 323.998046875 c 0
 422.9453125 323.998046875 451.278320312 330.665039062 480.611328125 343.998046875 c 0
 509.944335938 357.331054688 534.944335938 375.6640625 555.611328125 398.997070312 c 1
 560.944335938 418.330078125 566.944335938 447.663085938 573.611328125 486.99609375 c 0
 575.111328125 497.99609375 575.861328125 509.088867188 575.861328125 520.276367188 c 0
 575.861328125 524.005859375 575.778320312 527.74609375 575.611328125 531.49609375 c 0
 574.944335938 546.49609375 572.27734375 561.663085938 567.610351562 576.99609375 c 0
 562.943359375 592.329101562 556.776367188 605.662109375 549.109375 616.995117188 c 0
 541.442382812 628.328125 530.942382812 637.495117188 517.609375 644.495117188 c 0
 504.276367188 651.495117188 489.276367188 654.995117188 472.609375 654.995117188 c 0
 449.276367188 654.995117188 425.776367188 646.995117188 402.109375 630.995117188 c 0
 378.442382812 614.995117188 357.609375 594.495117188 339.609375 569.495117188 c 0
 321.609375 544.495117188 309.609375 518.328125 303.609375 490.995117188 c 0
EndSplineSet
Validated: 524289
EndChar

StartChar: colon
Encoding: 58 58 37
Width: 650
GlyphClass: 2
Flags: HMW
VStem: 284.892 192.996
LayerCount: 2
Fore
SplineSet
477.887695312 417 m 0
 474.5546875 395 466.891601562 371.6640625 454.891601562 346.997070312 c 0
 448.891601562 333.6640625 439.891601562 323.497070312 427.891601562 316.497070312 c 0
 416.935546875 310.106445312 406.8125 306.91015625 397.5234375 306.91015625 c 0
 396.638671875 306.91015625 395.76171875 306.939453125 394.891601562 306.997070312 c 0
 361.831054688 308.80078125 345.301757812 321.442382812 345.301757812 344.924804688 c 0
 345.301757812 347.486328125 345.498046875 350.177734375 345.891601562 352.997070312 c 0
 348.55859375 370.997070312 353.225585938 393.997070312 359.892578125 421.997070312 c 0
 361.892578125 430.6640625 365.892578125 437.831054688 371.892578125 443.498046875 c 0
 377.892578125 449.165039062 384.559570312 453.33203125 391.892578125 455.999023438 c 0
 399.225585938 458.666015625 406.05859375 460.333007812 412.391601562 461 c 0
 418.724609375 461.666992188 425.224609375 462 431.891601562 462 c 0
 437.224609375 462 442.557617188 461.333007812 447.890625 460 c 0
 453.223632812 458.666992188 458.556640625 456.5 463.889648438 453.5 c 0
 469.22265625 450.5 473.055664062 445.833007812 475.388671875 439.5 c 0
 477.721679688 433.166992188 478.5546875 425.666992188 477.887695312 417 c 0
416.891601562 149.997070312 m 0
 415.55859375 126.6640625 408.892578125 102.66015625 396.892578125 77.9931640625 c 0
 390.892578125 64.66015625 380.892578125 54.8271484375 366.892578125 48.494140625 c 0
 354.2265625 42.7646484375 342.924804688 39.8994140625 332.987304688 39.8994140625 c 0
 331.940429688 39.8994140625 330.909179688 39.931640625 329.892578125 39.9951171875 c 0
 317.225585938 40.662109375 306.05859375 44.8291015625 296.391601562 52.49609375 c 0
 288.381835938 58.8486328125 284.376953125 67.375 284.376953125 78.0751953125 c 0
 284.376953125 80.2890625 284.548828125 82.595703125 284.891601562 84.99609375 c 0
 287.55859375 98.99609375 289.225585938 107.829101562 289.892578125 111.49609375 c 0
 290.559570312 115.163085938 292.392578125 121.99609375 295.392578125 131.99609375 c 0
 298.392578125 141.99609375 300.559570312 149.663085938 301.892578125 154.99609375 c 0
 303.892578125 162.99609375 307.725585938 169.99609375 313.392578125 175.99609375 c 0
 319.059570312 181.99609375 325.392578125 186.163085938 332.392578125 188.49609375 c 0
 339.392578125 190.829101562 346.059570312 192.49609375 352.392578125 193.49609375 c 0
 358.725585938 194.49609375 364.892578125 194.99609375 370.892578125 194.99609375 c 0
 378.225585938 194.99609375 385.225585938 193.829101562 391.892578125 191.49609375 c 0
 398.559570312 189.163085938 404.559570312 184.330078125 409.892578125 176.997070312 c 0
 415.225585938 169.6640625 417.55859375 160.6640625 416.891601562 149.997070312 c 0
EndSplineSet
Validated: 524289
EndChar

StartChar: semicolon
Encoding: 59 59 38
Width: 650
GlyphClass: 2
Flags: HMW
VStem: 196.4 300.994
LayerCount: 2
Fore
SplineSet
497.393554688 375 m 0
 494.060546875 353 486.065429688 329.666015625 473.3984375 304.999023438 c 0
 467.3984375 291.666015625 458.3984375 281.499023438 446.3984375 274.499023438 c 0
 435.442382812 268.108398438 425.59765625 264.912109375 416.864257812 264.912109375 c 0
 416.032226562 264.912109375 415.209960938 264.94140625 414.3984375 264.999023438 c 0
 406.3984375 265.666015625 398.565429688 267.499023438 390.8984375 270.499023438 c 0
 383.231445312 273.499023438 376.564453125 278.666015625 370.897460938 285.999023438 c 0
 365.23046875 293.33203125 363.063476562 301.999023438 364.396484375 311.999023438 c 0
 367.063476562 329.999023438 372.396484375 352.999023438 380.396484375 380.999023438 c 0
 382.396484375 388.999023438 386.229492188 395.999023438 391.896484375 401.999023438 c 0
 397.563476562 407.999023438 404.063476562 412.166015625 411.396484375 414.499023438 c 0
 418.729492188 416.83203125 425.729492188 418.499023438 432.396484375 419.499023438 c 0
 439.063476562 420.499023438 445.063476562 420.666015625 450.396484375 419.999023438 c 0
 456.396484375 419.999023438 462.063476562 419.499023438 467.396484375 418.499023438 c 0
 472.729492188 417.499023438 478.0625 415.33203125 483.395507812 411.999023438 c 0
 488.728515625 408.666015625 492.561523438 403.833007812 494.89453125 397.5 c 0
 497.227539062 391.166992188 498.060546875 383.666992188 497.393554688 375 c 0
409.3984375 73.9990234375 m 0
 402.731445312 52.666015625 362.399414062 -34.3349609375 288.399414062 -187.001953125 c 0
 281.732421875 -201.001953125 273.232421875 -211.168945312 262.899414062 -217.501953125 c 0
 253.55078125 -223.231445312 244.338867188 -226.096679688 235.262695312 -226.096679688 c 0
 234.306640625 -226.096679688 233.352539062 -226.064453125 232.399414062 -226.000976562 c 0
 219.732421875 -225.333984375 209.399414062 -221.000976562 201.399414062 -213.000976562 c 0
 196.346679688 -207.948242188 193.8203125 -201.69921875 193.8203125 -194.252929688 c 0
 193.8203125 -189.909179688 194.6796875 -185.159179688 196.399414062 -180.000976562 c 0
 201.06640625 -164.000976562 216.56640625 -125.000976562 242.899414062 -63.0009765625 c 0
 269.232421875 -1.0009765625 289.732421875 46.33203125 304.399414062 78.9990234375 c 0
 309.06640625 88.9990234375 313.899414062 96.9990234375 318.899414062 102.999023438 c 0
 323.899414062 108.999023438 328.732421875 112.999023438 333.399414062 114.999023438 c 0
 338.06640625 116.999023438 343.06640625 118.33203125 348.399414062 118.999023438 c 0
 353.732421875 119.666015625 358.399414062 119.666015625 362.399414062 118.999023438 c 0
 368.399414062 118.999023438 374.399414062 118.166015625 380.399414062 116.499023438 c 0
 386.399414062 114.83203125 392.232421875 112.499023438 397.899414062 109.499023438 c 0
 403.56640625 106.499023438 407.56640625 101.999023438 409.899414062 95.9990234375 c 0
 412.232421875 89.9990234375 412.065429688 82.666015625 409.3984375 73.9990234375 c 0
EndSplineSet
Validated: 524289
EndChar

StartChar: less
Encoding: 60 60 39
Width: 650
GlyphClass: 2
Flags: W
HStem: -12.3984 21G<499.678 505.411>
LayerCount: 2
Fore
SplineSet
555.502929688 14 m 0
 550.8359375 7.3330078125 545.00390625 1.66796875 538.00390625 -2.9990234375 c 0
 531.00390625 -7.666015625 522.00390625 -10.666015625 511.00390625 -11.9990234375 c 0
 508.8046875 -12.265625 506.557617188 -12.3984375 504.264648438 -12.3984375 c 0
 495.090820312 -12.3984375 485.170898438 -10.265625 474.50390625 -5.9990234375 c 0
 460.50390625 -0.666015625 444.170898438 11.0009765625 425.50390625 29.0009765625 c 0
 406.836914062 47.0009765625 387.169921875 68.5009765625 366.502929688 93.5009765625 c 0
 345.8359375 118.500976562 325.502929688 144.000976562 305.502929688 170.000976562 c 0
 285.502929688 196.000976562 264.3359375 222.833984375 242.002929688 250.500976562 c 0
 219.669921875 278.16796875 200.169921875 299.66796875 183.502929688 315.000976562 c 0
 176.8359375 321.000976562 173.502929688 330.000976562 173.502929688 342.000976562 c 0
 173.502929688 354.000976562 176.3359375 365.500976562 182.002929688 376.500976562 c 0
 187.669921875 387.500976562 194.836914062 395.333984375 203.50390625 400.000976562 c 0
 244.836914062 428.000976562 294.336914062 463.16796875 352.00390625 505.500976562 c 0
 409.670898438 547.833984375 462.170898438 586.166992188 509.50390625 620.5 c 0
 556.836914062 654.833007812 598.169921875 682 633.502929688 702 c 0
 644.8359375 708.666992188 654.8359375 712.166992188 663.502929688 712.5 c 0
 672.169921875 712.833007812 679.169921875 711.166015625 684.502929688 707.499023438 c 0
 689.8359375 703.83203125 694.002929688 699.33203125 697.002929688 693.999023438 c 0
 700.002929688 688.666015625 702.169921875 682.999023438 703.502929688 676.999023438 c 0
 704.095703125 674.48046875 704.391601562 671.953125 704.391601562 669.41796875 c 0
 704.391601562 660.545898438 700.762695312 651.573242188 693.50390625 642.499023438 c 0
 684.170898438 630.83203125 667.170898438 616.999023438 642.50390625 600.999023438 c 0
 601.836914062 574.999023438 539.169921875 532.33203125 454.502929688 472.999023438 c 0
 369.8359375 413.666015625 316.168945312 375.999023438 293.501953125 359.999023438 c 1
 312.834960938 339.999023438 334.001953125 315.83203125 357.001953125 287.499023438 c 0
 380.001953125 259.166015625 400.001953125 233.499023438 417.001953125 210.499023438 c 0
 434.001953125 187.499023438 452.834960938 163.999023438 473.501953125 139.999023438 c 0
 494.168945312 115.999023438 512.8359375 96.9990234375 529.502929688 82.9990234375 c 0
 546.169921875 68.9990234375 556.502929688 56.83203125 560.502929688 46.4990234375 c 0
 561.915039062 42.8525390625 562.620117188 39.142578125 562.620117188 35.3720703125 c 0
 562.620117188 28.45703125 560.248046875 21.3330078125 555.502929688 14 c 0
EndSplineSet
Validated: 524289
EndChar

StartChar: equal
Encoding: 61 61 40
Width: 650
GlyphClass: 2
Flags: HMW
HStem: 246.996 83<239.86 268.527> 442.999 85.001
LayerCount: 2
Fore
SplineSet
311.528320312 528 m 0
 346.861328125 526.666992188 383.02734375 525.99609375 420.02734375 525.99609375 c 0
 457.02734375 525.99609375 491.860351562 526.329101562 524.52734375 526.99609375 c 0
 557.194335938 527.663085938 576.861328125 527.99609375 583.528320312 527.99609375 c 0
 598.1953125 527.99609375 607.528320312 524.663085938 611.528320312 517.99609375 c 0
 615.528320312 511.329101562 616.528320312 502.329101562 614.528320312 490.99609375 c 0
 613.1953125 484.99609375 611.528320312 479.49609375 609.528320312 474.49609375 c 0
 607.528320312 469.49609375 604.528320312 464.663085938 600.528320312 459.99609375 c 0
 596.528320312 455.329101562 591.528320312 451.829101562 585.528320312 449.49609375 c 0
 579.528320312 447.163085938 572.861328125 446.330078125 565.528320312 446.997070312 c 0
 550.854492188 447.442382812 535.513671875 447.6640625 519.504882812 447.6640625 c 0
 511.512695312 447.6640625 503.353515625 447.609375 495.028320312 447.498046875 c 0
 470.028320312 447.165039062 435.6953125 446.33203125 392.028320312 444.999023438 c 0
 348.361328125 443.666015625 316.528320312 442.999023438 296.528320312 442.999023438 c 0
 281.1953125 442.999023438 270.028320312 446.999023438 263.028320312 454.999023438 c 0
 256.028320312 462.999023438 253.861328125 472.666015625 256.528320312 483.999023438 c 0
 258.528320312 496.666015625 264.361328125 507.333007812 274.028320312 516 c 0
 283.004882812 524.047851562 294.422851562 528.071289062 308.28515625 528.071289062 c 0
 309.3515625 528.071289062 310.432617188 528.047851562 311.528320312 528 c 0
268.52734375 329.99609375 m 0
 284.778320312 329.7734375 301.958984375 329.662109375 320.069335938 329.662109375 c 0
 356.19140625 329.662109375 396.009765625 330.10546875 439.526367188 330.993164062 c 0
 504.859375 332.326171875 537.859375 332.993164062 538.526367188 332.993164062 c 0
 553.193359375 332.993164062 562.526367188 329.493164062 566.526367188 322.493164062 c 0
 570.526367188 315.493164062 571.526367188 306.326171875 569.526367188 294.993164062 c 0
 568.193359375 288.993164062 566.360351562 283.493164062 564.02734375 278.493164062 c 0
 561.694335938 273.493164062 558.694335938 268.66015625 555.02734375 263.993164062 c 0
 551.360351562 259.326171875 546.52734375 255.826171875 540.52734375 253.493164062 c 0
 534.52734375 251.16015625 527.860351562 250.327148438 520.52734375 250.994140625 c 0
 505.853515625 251.439453125 490.364257812 251.661132812 474.059570312 251.661132812 c 0
 465.918945312 251.661132812 457.57421875 251.606445312 449.02734375 251.495117188 c 0
 423.360351562 251.162109375 388.360351562 250.329101562 344.02734375 248.99609375 c 0
 299.694335938 247.663085938 267.52734375 246.99609375 247.52734375 246.99609375 c 0
 232.194335938 246.99609375 221.694335938 251.163085938 216.02734375 259.49609375 c 0
 212.173828125 265.162109375 210.247070312 271.676757812 210.247070312 279.0390625 c 0
 210.247070312 282.50390625 210.673828125 286.15625 211.52734375 289.99609375 c 0
 213.52734375 301.329101562 219.52734375 310.829101562 229.52734375 318.49609375 c 0
 239.52734375 326.163085938 252.52734375 329.99609375 268.52734375 329.99609375 c 0
EndSplineSet
Validated: 524289
EndChar

StartChar: greater
Encoding: 62 62 41
Width: 650
GlyphClass: 2
Flags: W
LayerCount: 2
Fore
SplineSet
176.201171875 5 m 0
 165.534179688 -1 155.700195312 -4.333984375 146.700195312 -5.0009765625 c 0
 137.700195312 -5.66796875 130.533203125 -4.16796875 125.200195312 -0.5009765625 c 0
 119.8671875 3.166015625 115.700195312 7.666015625 112.700195312 12.9990234375 c 0
 109.700195312 18.33203125 107.533203125 23.9990234375 106.200195312 29.9990234375 c 0
 105.607421875 32.517578125 105.311523438 35.044921875 105.311523438 37.580078125 c 0
 105.311523438 46.4521484375 108.940429688 55.4248046875 116.19921875 64.4990234375 c 0
 125.532226562 76.166015625 142.865234375 89.9990234375 168.198242188 105.999023438 c 0
 208.865234375 131.999023438 271.365234375 174.666015625 355.698242188 233.999023438 c 0
 440.03125 293.33203125 493.864257812 330.999023438 517.197265625 346.999023438 c 1
 497.864257812 366.999023438 476.53125 391.166015625 453.198242188 419.499023438 c 0
 429.865234375 447.83203125 409.532226562 473.499023438 392.19921875 496.499023438 c 0
 374.866210938 519.499023438 356.033203125 542.999023438 335.700195312 566.999023438 c 0
 315.3671875 590.999023438 296.8671875 609.999023438 280.200195312 623.999023438 c 0
 263.533203125 637.999023438 253.200195312 650.166015625 249.200195312 660.499023438 c 0
 247.788085938 664.145507812 247.083007812 667.85546875 247.083007812 671.625976562 c 0
 247.083007812 678.541015625 249.455078125 685.665039062 254.200195312 692.998046875 c 0
 258.8671875 699.665039062 264.700195312 705.33203125 271.700195312 709.999023438 c 0
 278.700195312 714.666015625 287.700195312 717.666015625 298.700195312 718.999023438 c 0
 300.899414062 719.265625 303.146484375 719.3984375 305.439453125 719.3984375 c 0
 314.61328125 719.3984375 324.533203125 717.265625 335.200195312 712.999023438 c 0
 349.200195312 707.666015625 365.700195312 696.166015625 384.700195312 678.499023438 c 0
 403.700195312 660.83203125 423.3671875 639.33203125 443.700195312 613.999023438 c 0
 464.033203125 588.666015625 484.200195312 562.999023438 504.200195312 536.999023438 c 0
 524.200195312 510.999023438 545.3671875 484.33203125 567.700195312 456.999023438 c 0
 590.033203125 429.666015625 609.866210938 407.999023438 627.19921875 391.999023438 c 0
 633.19921875 385.999023438 636.032226562 376.999023438 635.69921875 364.999023438 c 0
 635.366210938 352.999023438 632.533203125 341.499023438 627.200195312 330.499023438 c 0
 621.8671875 319.499023438 614.8671875 311.666015625 606.200195312 306.999023438 c 0
 564.8671875 278.999023438 515.3671875 243.83203125 457.700195312 201.499023438 c 0
 400.033203125 159.166015625 347.533203125 120.833007812 300.200195312 86.5 c 0
 252.8671875 52.1669921875 211.534179688 25 176.201171875 5 c 0
EndSplineSet
Validated: 524289
EndChar

StartChar: question
Encoding: 63 63 42
Width: 650
GlyphClass: 2
Flags: HMW
HStem: -14.0039 153.998 637.999 84.001<466.135 478.799>
VStem: 240.469 151 316.467 95.001
LayerCount: 2
Fore
SplineSet
411.467773438 262 m 0xd0
 404.80078125 244.666992188 395.966796875 231.330078125 384.966796875 221.997070312 c 0
 377.633789062 215.775390625 369.189453125 212.6640625 359.634765625 212.6640625 c 0
 354.856445312 212.6640625 349.80078125 213.442382812 344.466796875 214.998046875 c 0
 328.466796875 219.665039062 319.133789062 228.33203125 316.466796875 240.999023438 c 0
 315.905273438 243.666015625 315.625 246.524414062 315.625 249.576171875 c 0
 315.625 261.016601562 319.572265625 275.157226562 327.466796875 291.999023438 c 0
 336.133789062 309.999023438 346.466796875 326.999023438 358.466796875 342.999023438 c 0
 370.466796875 358.999023438 382.633789062 372.666015625 394.966796875 383.999023438 c 0
 407.299804688 395.33203125 420.1328125 406.165039062 433.465820312 416.498046875 c 0
 446.798828125 426.831054688 459.465820312 436.498046875 471.465820312 445.498046875 c 0
 483.465820312 454.498046875 494.6328125 463.665039062 504.965820312 472.998046875 c 0
 515.298828125 482.331054688 524.131835938 492.498046875 531.46484375 503.498046875 c 0
 538.797851562 514.498046875 543.797851562 526.331054688 546.46484375 538.998046875 c 0
 549.247070312 551.055664062 550.638671875 561.96484375 550.638671875 571.724609375 c 0
 550.638671875 590.0234375 545.747070312 604.28125 535.96484375 614.499023438 c 0
 520.96484375 630.166015625 496.131835938 637.999023438 461.46484375 637.999023438 c 0
 452.797851562 637.999023438 443.46484375 635.83203125 433.46484375 631.499023438 c 0
 423.46484375 627.166015625 414.797851562 622.333007812 407.46484375 617 c 0
 400.131835938 611.666992188 391.631835938 604.5 381.96484375 595.5 c 0
 372.297851562 586.5 364.797851562 578.833007812 359.46484375 572.5 c 0
 354.131835938 566.166992188 347.798828125 558.666992188 340.465820312 550 c 0
 333.1328125 541.333007812 326.299804688 534.5 319.966796875 529.5 c 0
 313.633789062 524.5 307.80078125 521.833007812 302.467773438 521.5 c 0
 297.134765625 521.166992188 292.301757812 521.5 287.96875 522.5 c 0
 283.635742188 523.5 278.135742188 525.666992188 271.46875 529 c 0
 262.135742188 535 257.635742188 543.666992188 257.96875 555 c 0
 258.301757812 566.333007812 264.46875 581 276.46875 599 c 0
 286.46875 613 297.801757812 626.5 310.46875 639.5 c 0
 323.135742188 652.5 338.135742188 665.5 355.46875 678.5 c 0
 372.801757812 691.5 392.134765625 702 413.467773438 710 c 0
 434.80078125 718 455.80078125 722 476.467773438 722 c 0
 543.80078125 722 590.967773438 705.333007812 617.967773438 672 c 0
 635.188476562 650.740234375 643.797851562 622.701171875 643.797851562 587.881835938 c 0
 643.797851562 568.107421875 641.021484375 546.147460938 635.467773438 522 c 0
 631.467773438 504 624.967773438 487.666992188 615.967773438 473 c 0
 606.967773438 458.333007812 596.967773438 445.666015625 585.967773438 434.999023438 c 0
 574.967773438 424.33203125 562.967773438 414.33203125 549.967773438 404.999023438 c 0
 536.967773438 395.666015625 523.80078125 386.333007812 510.467773438 377 c 0
 497.134765625 367.666992188 484.301757812 358 471.96875 348 c 0
 459.635742188 338 448.135742188 325.5 437.46875 310.5 c 0
 426.801757812 295.5 418.134765625 279.333007812 411.467773438 262 c 0xd0
300.466796875 -14.00390625 m 0
 297.096679688 -14.3779296875 293.858398438 -14.5654296875 290.751953125 -14.5654296875 c 0
 271.731445312 -14.5654296875 257.638671875 -7.5478515625 248.469726562 6.4921875 c 0
 241.358398438 17.380859375 237.802734375 29.5302734375 237.802734375 42.9375 c 0
 237.802734375 49.6416015625 238.69140625 56.6591796875 240.46875 63.9921875 c 0
 245.135742188 84.6591796875 257.135742188 102.326171875 276.46875 116.993164062 c 0
 295.801757812 131.66015625 315.46875 139.327148438 335.46875 139.994140625 c 0
 336.447265625 140.0234375 337.4140625 140.0390625 338.369140625 140.0390625 c 0
 358.89453125 140.0390625 374.094726562 133.190429688 383.96875 119.495117188 c 0
 390.784179688 110.041015625 394.192382812 98.919921875 394.192382812 86.1298828125 c 0
 394.192382812 79.529296875 393.284179688 72.484375 391.46875 64.9951171875 c 0xe0
 386.801757812 43.662109375 376.134765625 25.8291015625 359.467773438 11.49609375 c 0
 342.80078125 -2.8369140625 323.133789062 -11.3369140625 300.466796875 -14.00390625 c 0
EndSplineSet
Validated: 524289
EndChar

StartChar: at
Encoding: 64 64 43
Width: 650
GlyphClass: 2
Flags: HMW
HStem: -129 84.9961<270.875 319.206> 102.002 77.9951<471.875 514.873> 118.002 79.9941<352.873 361.208> 612.994 90.0078<484.539 488.208>
VStem: 120.706 85.501 437.207 81 587.708 75.499
LayerCount: 2
Fore
SplineSet
518.202148438 5 m 0xde
 512.869140625 -4.3330078125 507.54296875 -12.5009765625 502.209960938 -19.5009765625 c 0
 496.876953125 -26.5009765625 490.209960938 -35.16796875 482.209960938 -45.5009765625 c 0
 474.209960938 -55.833984375 465.876953125 -64.6669921875 457.209960938 -72 c 0
 448.54296875 -79.3330078125 438.209960938 -86.8330078125 426.209960938 -94.5 c 0
 414.209960938 -102.166992188 401.54296875 -108.5 388.209960938 -113.5 c 0
 374.876953125 -118.5 359.376953125 -122.5 341.709960938 -125.5 c 0
 327.255859375 -127.954101562 312.466796875 -129.181640625 297.342773438 -129.181640625 c 0
 293.981445312 -129.181640625 290.603515625 -129.12109375 287.208984375 -129 c 0
 254.541992188 -129 225.875 -120.333007812 201.208007812 -103 c 0
 176.541015625 -85.6669921875 157.374023438 -61.5 143.70703125 -30.5 c 0
 130.040039062 0.5 122.373046875 38.1669921875 120.706054688 82.5 c 0
 120.502929688 87.9072265625 120.401367188 93.3759765625 120.401367188 98.9072265625 c 0
 120.401367188 138.725585938 125.669921875 181.756835938 136.206054688 228 c 0
 150.206054688 286.666992188 167.206054688 341.333984375 187.206054688 392.000976562 c 0
 207.206054688 442.66796875 229.373046875 486.834960938 253.706054688 524.501953125 c 0
 278.0390625 562.168945312 303.706054688 594.501953125 330.706054688 621.501953125 c 0
 357.706054688 648.501953125 385.5390625 668.834960938 414.206054688 682.501953125 c 0
 442.873046875 696.168945312 470.873046875 703.001953125 498.206054688 703.001953125 c 0
 518.873046875 703.001953125 537.373046875 701.168945312 553.706054688 697.501953125 c 0
 570.0390625 693.834960938 585.206054688 687.834960938 599.206054688 679.501953125 c 0
 613.206054688 671.168945312 624.5390625 660.001953125 633.206054688 646.001953125 c 0
 641.873046875 632.001953125 649.040039062 614.501953125 654.70703125 593.501953125 c 0
 660.374023438 572.501953125 663.20703125 548.001953125 663.20703125 520.001953125 c 0
 663.20703125 492.001953125 660.540039062 459.001953125 655.20703125 421.001953125 c 0
 649.874023438 383.001953125 641.874023438 340.334960938 631.20703125 293.001953125 c 0
 625.874023438 269.001953125 619.041015625 246.168945312 610.708007812 224.501953125 c 0
 602.375 202.834960938 592.541992188 182.501953125 581.208984375 163.501953125 c 0
 569.875976562 144.501953125 556.708984375 129.501953125 541.708984375 118.501953125 c 0
 526.708984375 107.501953125 510.875976562 102.001953125 494.208984375 102.001953125 c 0xde
 455.840820312 102.001953125 436.657226562 122.662109375 436.657226562 163.981445312 c 0
 436.657226562 170.764648438 437.173828125 178.104492188 438.208007812 186.001953125 c 1
 413.541015625 140.668945312 381.208007812 118.001953125 341.208007812 118.001953125 c 0
 304.541015625 118.001953125 278.874023438 130.334960938 264.20703125 155.001953125 c 0
 256.140625 168.568359375 252.106445312 186.068359375 252.106445312 207.5 c 0
 252.106445312 225.03515625 254.806640625 245.202148438 260.20703125 268.002929688 c 0
 266.20703125 293.3359375 274.20703125 316.668945312 284.20703125 338.001953125 c 0
 294.20703125 359.334960938 305.374023438 377.501953125 317.70703125 392.501953125 c 0
 330.040039062 407.501953125 343.540039062 420.168945312 358.20703125 430.501953125 c 0
 372.874023438 440.834960938 387.70703125 448.16796875 402.70703125 452.500976562 c 0
 415.706054688 456.255859375 428.705078125 458.133789062 441.704101562 458.133789062 c 0
 447.70703125 458 l 0
 462.70703125 457.333007812 476.874023438 453.666015625 490.20703125 446.999023438 c 0
 503.540039062 440.999023438 513.20703125 432.999023438 519.20703125 422.999023438 c 0
 525.20703125 412.999023438 525.20703125 403.999023438 519.20703125 395.999023438 c 0
 515.874023438 390.666015625 512.20703125 386.333007812 508.20703125 383 c 0
 504.20703125 379.666992188 499.874023438 377.333984375 495.20703125 376.000976562 c 0
 490.540039062 374.66796875 486.373046875 373.66796875 482.706054688 373.000976562 c 0
 479.0390625 372.333984375 474.372070312 372.500976562 468.705078125 373.500976562 c 0
 463.038085938 374.500976562 458.705078125 375.333984375 455.705078125 376.000976562 c 0
 452.705078125 376.66796875 448.538085938 378.000976562 443.205078125 380.000976562 c 0
 435.872070312 381.333984375 428.0390625 381.666992188 419.706054688 381 c 0
 411.373046875 380.333007812 403.040039062 377.5 394.70703125 372.5 c 0
 386.374023438 367.5 378.374023438 361.166992188 370.70703125 353.5 c 0
 363.040039062 345.833007812 356.040039062 335.666015625 349.70703125 322.999023438 c 0
 343.374023438 310.33203125 338.20703125 295.999023438 334.20703125 279.999023438 c 0
 332.20703125 271.33203125 330.874023438 263.165039062 330.20703125 255.498046875 c 0
 329.540039062 247.831054688 329.373046875 239.1640625 329.706054688 229.497070312 c 0
 330.0390625 219.830078125 332.5390625 212.163085938 337.206054688 206.49609375 c 0
 341.873046875 200.829101562 348.540039062 197.99609375 357.20703125 197.99609375 c 0xbe
 376.540039062 197.99609375 392.20703125 206.163085938 404.20703125 222.49609375 c 0
 416.20703125 238.829101562 427.20703125 265.99609375 437.20703125 303.99609375 c 0
 439.874023438 314.663085938 449.874023438 323.330078125 467.20703125 329.997070312 c 0
 478.014648438 334.2421875 487.48046875 336.365234375 495.606445312 336.365234375 c 0
 501.516601562 336.365234375 506.716796875 335.2421875 511.208007812 332.997070312 c 0
 518.541015625 329.6640625 520.874023438 322.997070312 518.20703125 312.997070312 c 0
 506.20703125 277.6640625 498.874023438 250.1640625 496.20703125 230.497070312 c 0
 494.874023438 220.6640625 494.20703125 212.4140625 494.20703125 205.747070312 c 0
 494.20703125 199.080078125 494.874023438 193.997070312 496.20703125 190.497070312 c 0
 498.874023438 183.497070312 504.20703125 179.997070312 512.20703125 179.997070312 c 0
 517.540039062 179.997070312 523.040039062 184.330078125 528.70703125 192.997070312 c 0
 534.374023438 201.6640625 539.541015625 212.997070312 544.208007812 226.997070312 c 0
 548.875 240.997070312 552.708007812 253.330078125 555.708007812 263.997070312 c 0
 558.708007812 274.6640625 561.208007812 284.997070312 563.208007812 294.997070312 c 0
 571.208007812 328.997070312 577.208007812 360.330078125 581.208007812 388.997070312 c 0
 585.208007812 417.6640625 587.375 442.1640625 587.708007812 462.497070312 c 0
 587.741210938 464.529296875 587.7578125 466.541015625 587.7578125 468.533203125 c 0
 587.7578125 486.474609375 586.408203125 502.794921875 583.708007812 517.49609375 c 0
 580.708007812 533.829101562 577.375 547.162109375 573.708007812 557.495117188 c 0
 570.041015625 567.828125 564.708007812 576.661132812 557.708007812 583.994140625 c 0
 550.708007812 591.327148438 544.375 596.827148438 538.708007812 600.494140625 c 0
 533.041015625 604.161132812 526.208007812 606.994140625 518.208007812 608.994140625 c 0
 510.208007812 610.994140625 504.208007812 612.161132812 500.208007812 612.494140625 c 0
 496.208007812 612.827148438 491.208007812 612.994140625 485.208007812 612.994140625 c 0
 460.541015625 612.994140625 435.374023438 604.661132812 409.70703125 587.994140625 c 0
 384.040039062 571.327148438 359.70703125 548.16015625 336.70703125 518.493164062 c 0
 313.70703125 488.826171875 292.374023438 451.993164062 272.70703125 407.993164062 c 0
 253.040039062 363.993164062 237.20703125 315.993164062 225.20703125 263.993164062 c 0
 214.540039062 218.66015625 208.20703125 177.827148438 206.20703125 141.494140625 c 0
 205.661132812 131.5859375 205.388671875 122.198242188 205.388671875 113.330078125 c 0
 205.388671875 89.6826171875 207.328125 69.7373046875 211.20703125 53.4951171875 c 0
 216.540039062 31.162109375 224.373046875 12.3291015625 234.706054688 -3.00390625 c 0
 245.0390625 -18.3369140625 256.5390625 -29.00390625 269.206054688 -35.00390625 c 0
 281.873046875 -41.00390625 295.873046875 -44.00390625 311.206054688 -44.00390625 c 0
 327.206054688 -44.00390625 342.373046875 -42.3369140625 356.706054688 -39.00390625 c 0
 371.0390625 -35.6708984375 383.206054688 -31.6708984375 393.206054688 -27.00390625 c 0
 403.206054688 -22.3369140625 413.0390625 -16.00390625 422.706054688 -8.00390625 c 0
 432.373046875 -0.00390625 440.373046875 7.3291015625 446.706054688 13.99609375 c 0
 453.0390625 20.6630859375 460.206054688 29.330078125 468.206054688 39.9970703125 c 0
 471.5390625 44.6640625 474.372070312 48.3310546875 476.705078125 50.998046875 c 0
 479.038085938 53.6650390625 481.87109375 56.83203125 485.204101562 60.4990234375 c 0
 488.537109375 64.166015625 491.370117188 66.8330078125 493.703125 68.5 c 0
 496.036132812 70.1669921875 498.703125 71.6669921875 501.703125 73 c 0
 504.703125 74.3330078125 507.703125 75 510.703125 75 c 0
 513.703125 75 516.536132812 74.3330078125 519.203125 73 c 0
 523.870117188 71 527.370117188 68.5 529.703125 65.5 c 0
 532.036132812 62.5 533.703125 58.5 534.703125 53.5 c 0
 535.703125 48.5 534.870117188 41.8330078125 532.203125 33.5 c 0
 529.536132812 25.1669921875 524.869140625 15.6669921875 518.202148438 5 c 0xde
EndSplineSet
Validated: 524289
EndChar

StartChar: A
Encoding: 65 65 44
Width: 650
GlyphClass: 2
Flags: HMW
HStem: 251 81.0059
VStem: 490.088 91.501
LayerCount: 2
Fore
SplineSet
171.087890625 41 m 2
 160.420898438 20.3330078125 148.420898438 6.671875 135.087890625 0.0048828125 c 0
 127.680664062 -3.69921875 120.787109375 -5.55078125 114.408203125 -5.55078125 c 0
 109.305664062 -5.55078125 104.532226562 -4.3662109375 100.087890625 -1.99609375 c 0
 89.89453125 3.6279296875 84.796875 13.330078125 84.796875 27.109375 c 0
 84.796875 39.4638671875 88.89453125 55.0947265625 97.087890625 74.00390625 c 0
 105.754882812 95.3369140625 135.754882812 147.336914062 187.087890625 230.00390625 c 1
 179.829101562 236.225585938 176.200195312 243.456054688 176.200195312 251.694335938 c 0
 176.200195312 254.048828125 176.49609375 256.485351562 177.088867188 259.00390625 c 0
 178.421875 268.336914062 184.421875 277.169921875 195.088867188 285.502929688 c 0
 205.755859375 293.8359375 218.088867188 300.3359375 232.088867188 305.002929688 c 1
 352.088867188 495.669921875 440.088867188 623.002929688 496.088867188 687.002929688 c 0
 508.088867188 700.3359375 518.421875 710.002929688 527.088867188 716.002929688 c 0
 535.755859375 722.002929688 544.422851562 725.002929688 553.08984375 725.002929688 c 0
 555.271484375 725.245117188 557.392578125 725.366210938 559.453125 725.366210938 c 0
 568.725585938 725.366210938 576.771484375 722.912109375 583.58984375 718.002929688 c 0
 590.7734375 712.830078125 594.365234375 704.4375 594.365234375 692.823242188 c 0
 594.365234375 690.965820312 594.2734375 689.025390625 594.08984375 687.002929688 c 0
 587.422851562 604.3359375 582.08984375 487.168945312 578.08984375 335.501953125 c 0
 576.58984375 278.625 575.83984375 230.819335938 575.83984375 192.083984375 c 0
 575.83984375 127.528320312 577.922851562 88.16796875 582.08984375 74.0009765625 c 0
 583.676757812 67.9697265625 584.470703125 62.203125 584.470703125 56.701171875 c 0
 584.470703125 50.6474609375 583.509765625 44.9140625 581.588867188 39.5009765625 c 0
 577.921875 29.16796875 572.754882812 20.5009765625 566.087890625 13.5009765625 c 0
 559.420898438 6.5009765625 552.087890625 1.333984375 544.087890625 -1.9990234375 c 0
 538.296875 -4.4365234375 532.750976562 -5.65625 527.447265625 -5.65625 c 0
 521.150390625 -5.65625 515.197265625 -3.9365234375 509.587890625 -0.4990234375 c 0
 499.254882812 5.833984375 492.754882812 19.6669921875 490.087890625 41 c 0
 489.021484375 49.2666015625 488.487304688 65.4267578125 488.487304688 89.4794921875 c 0
 488.487304688 125.559570312 489.6875 179.399414062 492.087890625 251 c 1
 412.087890625 247.666992188 339.754882812 240.666992188 275.087890625 230 c 1
 171.087890625 41 l 2
507.087890625 602.005859375 m 1
 469.754882812 557.338867188 409.087890625 462.672851562 325.087890625 318.005859375 c 1
 389.754882812 326.005859375 446.754882812 330.672851562 496.087890625 332.005859375 c 1
 507.087890625 602.005859375 l 1
EndSplineSet
Validated: 524289
EndChar

StartChar: B
Encoding: 66 66 45
Width: 650
GlyphClass: 2
Flags: HMW
HStem: -22.9961 21G<153.544 159.877> 297.005 72<342.211 346.21> 630.005 78.998<426.208 440.544>
LayerCount: 2
Fore
SplineSet
272.208007812 -14 m 0
 261.541015625 -14.6669921875 249.7109375 -15.662109375 236.7109375 -16.9951171875 c 0
 223.7109375 -18.328125 213.043945312 -19.328125 204.7109375 -19.9951171875 c 0
 196.377929688 -20.662109375 187.877929688 -21.3291015625 179.2109375 -21.99609375 c 0
 170.543945312 -22.6630859375 163.043945312 -22.99609375 156.7109375 -22.99609375 c 0
 150.377929688 -22.99609375 144.877929688 -22.3291015625 140.2109375 -20.99609375 c 2
 136.2109375 -20.99609375 l 2
 123.543945312 -20.99609375 114.376953125 -16.49609375 108.709960938 -7.49609375 c 0
 105.602539062 -2.560546875 104.048828125 3.427734375 104.048828125 10.4677734375 c 0
 104.048828125 16.265625 105.102539062 22.7783203125 107.209960938 30.00390625 c 0
 115.876953125 58.00390625 128.876953125 111.336914062 146.209960938 190.00390625 c 0
 163.54296875 268.670898438 180.54296875 349.670898438 197.209960938 433.00390625 c 0
 206.54296875 477.670898438 212.875976562 507.670898438 216.208984375 523.00390625 c 0
 219.541992188 538.336914062 224.708984375 559.00390625 231.708984375 585.00390625 c 0
 238.708984375 611.00390625 243.541992188 629.00390625 246.208984375 639.00390625 c 0
 250.875976562 657.00390625 258.708984375 670.50390625 269.708984375 679.50390625 c 0
 280.708984375 688.50390625 292.541992188 693.00390625 305.208984375 693.00390625 c 2
 308.208984375 693.00390625 l 2
 318.875976562 696.336914062 330.04296875 699.169921875 341.709960938 701.502929688 c 0
 353.376953125 703.8359375 363.876953125 705.502929688 373.209960938 706.502929688 c 0
 382.54296875 707.502929688 392.375976562 708.169921875 402.708984375 708.502929688 c 0
 413.041992188 708.8359375 420.875 709.002929688 426.208007812 709.002929688 c 2
 444.708007812 709.002929688 l 1
 455.208007812 709.002929688 l 2
 497.208007812 709.002929688 532.708007812 700.669921875 561.708007812 684.002929688 c 0
 590.708007812 667.3359375 611.208007812 643.168945312 623.208007812 611.501953125 c 0
 629.958007812 593.689453125 633.333007812 574.2421875 633.333007812 553.16015625 c 0
 633.333007812 536.762695312 631.291015625 519.376953125 627.208007812 501.001953125 c 0
 618.541015625 462.334960938 602.541015625 429.16796875 579.208007812 401.500976562 c 0
 555.875 373.833984375 528.208007812 353.666992188 496.208007812 341 c 1
 515.541015625 333.666992188 533.708007812 322.833984375 550.708007812 308.500976562 c 0
 567.708007812 294.16796875 580.875 278.16796875 590.208007812 260.500976562 c 0
 597.084960938 247.483398438 600.5234375 235.098632812 600.5234375 223.34765625 c 0
 600.5234375 219.151367188 600.084960938 215.036132812 599.208007812 211.000976562 c 0
 593.875 185.66796875 582.208007812 160.500976562 564.208007812 135.500976562 c 0
 546.208007812 110.500976562 523.375 87.66796875 495.708007812 67.0009765625 c 0
 468.041015625 46.333984375 434.708007812 28.6669921875 395.708007812 14 c 0
 356.708007812 -0.6669921875 315.541015625 -10 272.208007812 -14 c 0
435.2109375 630.004882812 m 0
 401.877929688 630.004882812 368.209960938 625.671875 334.209960938 617.004882812 c 1
 330.876953125 604.337890625 325.543945312 584.004882812 318.2109375 556.004882812 c 0
 310.877929688 528.004882812 303.377929688 498.337890625 295.7109375 467.004882812 c 0
 288.043945312 435.671875 280.543945312 403.671875 273.2109375 371.004882812 c 1
 301.877929688 369.671875 329.2109375 369.004882812 355.2109375 369.004882812 c 0
 373.877929688 369.004882812 391.377929688 370.671875 407.7109375 374.004882812 c 0
 424.043945312 377.337890625 438.043945312 381.670898438 449.7109375 387.00390625 c 0
 461.377929688 392.336914062 472.2109375 398.836914062 482.2109375 406.50390625 c 0
 492.2109375 414.170898438 500.543945312 422.00390625 507.2109375 430.00390625 c 0
 513.877929688 438.00390625 519.7109375 446.836914062 524.7109375 456.50390625 c 0
 529.7109375 466.170898438 533.543945312 474.837890625 536.2109375 482.504882812 c 0
 538.877929688 490.171875 541.2109375 498.338867188 543.2109375 507.005859375 c 0
 545.497070312 516.91015625 546.639648438 526.379882812 546.639648438 535.4140625 c 0
 546.639648438 542.189453125 545.997070312 548.719726562 544.7109375 555.005859375 c 0
 541.7109375 569.672851562 536.377929688 581.505859375 528.7109375 590.505859375 c 0
 521.043945312 599.505859375 511.7109375 607.172851562 500.7109375 613.505859375 c 0
 489.7109375 619.838867188 478.7109375 624.171875 467.7109375 626.504882812 c 0
 456.7109375 628.837890625 445.877929688 630.004882812 435.2109375 630.004882812 c 0
346.209960938 297.004882812 m 1
 300.876953125 297.004882812 271.208007812 296.670898438 257.208007812 296.00390625 c 1
 235.208007812 188.670898438 219.875 112.337890625 211.208007812 67.0048828125 c 1
 217.875 67.0048828125 229.041992188 67.337890625 244.708984375 68.0048828125 c 0
 260.375976562 68.671875 272.54296875 69.0048828125 281.209960938 69.0048828125 c 0
 309.876953125 70.337890625 337.876953125 75.6708984375 365.209960938 85.00390625 c 0
 392.54296875 94.3369140625 415.54296875 105.50390625 434.209960938 118.50390625 c 0
 452.876953125 131.50390625 468.376953125 145.170898438 480.709960938 159.50390625 c 0
 493.04296875 173.836914062 500.875976562 187.00390625 504.208984375 199.00390625 c 0
 506.208984375 207.670898438 504.708984375 216.337890625 499.708984375 225.004882812 c 0
 494.708984375 233.671875 486.541992188 242.671875 475.208984375 252.004882812 c 0
 463.875976562 261.337890625 447.04296875 270.004882812 424.709960938 278.004882812 c 0
 402.376953125 286.004882812 376.209960938 292.337890625 346.209960938 297.004882812 c 1
EndSplineSet
Validated: 524289
EndChar

StartChar: C
Encoding: 67 67 46
Width: 650
GlyphClass: 2
Flags: HMW
HStem: -31.002 90.0029<270.805 325.471> 632.001 80.9961<555.805 557.805>
VStem: 595.471 77
LayerCount: 2
Fore
SplineSet
551.47265625 64 m 0
 485.4921875 0.607421875 399.426757812 -31.0908203125 293.276367188 -31.0908203125 c 0
 290.026367188 -31.0908203125 286.758789062 -31.0615234375 283.471679688 -31.001953125 c 0
 258.138671875 -31.001953125 235.305664062 -26.3349609375 214.97265625 -17.001953125 c 0
 194.639648438 -7.6689453125 178.139648438 4.6640625 165.47265625 19.9970703125 c 0
 152.805664062 35.330078125 142.805664062 53.1630859375 135.47265625 73.49609375 c 0
 128.139648438 93.8291015625 124.139648438 115.49609375 123.47265625 138.49609375 c 0
 123.40625 140.796875 123.373046875 143.099609375 123.373046875 145.403320312 c 0
 123.373046875 166.1328125 126.073242188 186.997070312 131.47265625 207.99609375 c 0
 142.805664062 256.663085938 158.305664062 303.663085938 177.97265625 348.99609375 c 0
 197.639648438 394.329101562 219.639648438 435.329101562 243.97265625 471.99609375 c 0
 268.305664062 508.663085938 294.638671875 542.330078125 322.971679688 572.997070312 c 0
 351.3046875 603.6640625 379.471679688 629.1640625 407.471679688 649.497070312 c 0
 435.471679688 669.830078125 463.3046875 685.497070312 490.971679688 696.497070312 c 0
 518.638671875 707.497070312 544.138671875 712.997070312 567.471679688 712.997070312 c 0
 590.138671875 712.997070312 610.471679688 710.330078125 628.471679688 704.997070312 c 1
 633.138671875 714.997070312 639.638671875 723.1640625 647.971679688 729.497070312 c 0
 656.3046875 735.830078125 665.137695312 739.330078125 674.470703125 739.997070312 c 0
 685.137695312 741.997070312 694.8046875 739.497070312 703.471679688 732.497070312 c 0
 712.138671875 725.497070312 716.471679688 715.330078125 716.471679688 701.997070312 c 0
 716.471679688 691.997070312 715.8046875 682.1640625 714.471679688 672.497070312 c 0
 713.138671875 662.830078125 711.638671875 653.330078125 709.971679688 643.997070312 c 0
 708.3046875 634.6640625 706.8046875 626.997070312 705.471679688 620.997070312 c 0
 704.138671875 614.997070312 702.471679688 607.997070312 700.471679688 599.997070312 c 0
 698.471679688 591.997070312 697.138671875 586.997070312 696.471679688 584.997070312 c 0
 693.138671875 570.997070312 685.138671875 556.830078125 672.471679688 542.497070312 c 0
 659.8046875 528.1640625 648.137695312 520.331054688 637.470703125 518.998046875 c 0
 635.1484375 518.611328125 632.875976562 518.416992188 630.653320312 518.416992188 c 0
 621.391601562 518.416992188 612.997070312 521.77734375 605.470703125 528.498046875 c 0
 598.211914062 534.979492188 594.583007812 543.174804688 594.583007812 553.083007812 c 0
 594.583007812 555.915039062 594.87890625 558.88671875 595.471679688 561.998046875 c 0
 596.8046875 567.331054688 600.8046875 581.331054688 607.471679688 603.998046875 c 0
 606.8046875 604.665039062 604.3046875 606.83203125 599.971679688 610.499023438 c 0
 595.638671875 614.166015625 592.471679688 616.833007812 590.471679688 618.5 c 0
 588.471679688 620.166992188 585.3046875 622.333984375 580.971679688 625.000976562 c 0
 576.638671875 627.66796875 572.471679688 629.500976562 568.471679688 630.500976562 c 0
 564.471679688 631.500976562 560.138671875 632.000976562 555.471679688 632.000976562 c 0
 536.138671875 632.000976562 513.971679688 625.333984375 488.971679688 612.000976562 c 0
 463.971679688 598.66796875 438.471679688 579.66796875 412.471679688 555.000976562 c 0
 386.471679688 530.333984375 361.638671875 502.000976562 337.971679688 470.000976562 c 0
 314.3046875 438.000976562 292.8046875 401.833984375 273.471679688 361.500976562 c 0
 254.138671875 321.16796875 240.138671875 280.66796875 231.471679688 240.000976562 c 0
 227.430664062 222.22265625 225.41015625 204.688476562 225.41015625 187.399414062 c 0
 225.41015625 176.163085938 226.263671875 165.030273438 227.970703125 154.000976562 c 0
 232.303710938 126.000976562 242.303710938 103.16796875 257.970703125 85.5009765625 c 0
 273.637695312 67.833984375 292.8046875 59.0009765625 315.471679688 59.0009765625 c 0
 335.471679688 59.0009765625 355.471679688 61.16796875 375.471679688 65.5009765625 c 0
 395.471679688 69.833984375 413.8046875 75.5009765625 430.471679688 82.5009765625 c 0
 447.138671875 89.5009765625 461.805664062 96.5009765625 474.47265625 103.500976562 c 0
 487.139648438 110.500976562 499.139648438 118.000976562 510.47265625 126.000976562 c 0
 519.805664062 132.000976562 527.805664062 136.66796875 534.47265625 140.000976562 c 0
 541.139648438 143.333984375 547.97265625 145.000976562 554.97265625 145.000976562 c 0
 561.97265625 145.000976562 567.805664062 142.66796875 572.47265625 138.000976562 c 0
 579.260742188 131.212890625 582.654296875 123.631835938 582.654296875 115.256835938 c 0
 582.654296875 100.600585938 572.260742188 83.515625 551.47265625 64 c 0
EndSplineSet
Validated: 524289
EndChar

StartChar: D
Encoding: 68 68 47
Width: 650
GlyphClass: 2
Flags: HMW
HStem: -31 85.998<350.653 362.323> 694.001 20G<288.321 298.654>
LayerCount: 2
Fore
SplineSet
349.65625 -31 m 0
 318.989257812 -31 289.15234375 -29.5 260.15234375 -26.5 c 0
 231.15234375 -23.5 208.319335938 -20 191.65234375 -16 c 0
 174.985351562 -12 160.485351562 -8.3330078125 148.15234375 -5 c 0
 135.819335938 -1.6669921875 128.65234375 0 126.65234375 0 c 0
 113.985351562 0 104.818359375 4.5 99.1513671875 13.5 c 0
 96.0439453125 18.435546875 94.490234375 24.423828125 94.490234375 31.4638671875 c 0
 94.490234375 37.26171875 95.5439453125 43.7744140625 97.6513671875 51 c 0
 106.984375 83 120.651367188 139.833007812 138.651367188 221.5 c 0
 156.651367188 303.166992188 175.318359375 391.666992188 194.651367188 487 c 0
 202.651367188 524.333007812 207.984375 548.833007812 210.651367188 560.5 c 0
 213.318359375 572.166992188 217.985351562 590.333984375 224.65234375 615.000976562 c 0
 231.319335938 639.66796875 235.319335938 654.66796875 236.65234375 660.000976562 c 0
 241.319335938 678.000976562 248.986328125 691.500976562 259.653320312 700.500976562 c 0
 270.3203125 709.500976562 281.987304688 714.000976562 294.654296875 714.000976562 c 0
 302.654296875 714.000976562 312.654296875 713.333984375 324.654296875 712.000976562 c 0
 336.654296875 710.66796875 352.154296875 708.000976562 371.154296875 704.000976562 c 0
 390.154296875 700.000976562 409.154296875 694.500976562 428.154296875 687.500976562 c 0
 447.154296875 680.500976562 466.987304688 670.66796875 487.654296875 658.000976562 c 0
 508.321289062 645.333984375 527.321289062 630.666992188 544.654296875 614 c 0
 561.987304688 597.333007812 577.8203125 576.5 592.153320312 551.5 c 0
 606.486328125 526.5 617.486328125 499.166992188 625.153320312 469.5 c 0
 632.20703125 442.20703125 635.733398438 410.119140625 635.733398438 373.235351562 c 0
 635.733398438 370.026367188 635.70703125 366.78125 635.653320312 363.5 c 0
 634.986328125 322.5 628.986328125 278.333007812 617.653320312 231 c 0
 612.3203125 207.666992188 603.987304688 184 592.654296875 160 c 0
 581.321289062 136 566.98828125 112.5 549.655273438 89.5 c 0
 532.322265625 66.5 513.489257812 46 493.15625 28 c 0
 472.823242188 10 450.15625 -4.3330078125 425.15625 -15 c 0
 400.15625 -25.6669921875 374.989257812 -31 349.65625 -31 c 0
253.65234375 348 m 0
 247.65234375 319.333007812 238.8203125 276.165039062 227.153320312 218.498046875 c 0
 215.486328125 160.831054688 206.986328125 117.331054688 201.653320312 87.998046875 c 1
 224.3203125 75.998046875 248.8203125 67.498046875 275.153320312 62.498046875 c 0
 301.486328125 57.498046875 332.653320312 54.998046875 368.653320312 54.998046875 c 0
 385.986328125 54.998046875 403.653320312 61.1650390625 421.653320312 73.498046875 c 0
 439.653320312 85.8310546875 455.986328125 101.831054688 470.653320312 121.498046875 c 0
 485.3203125 141.165039062 498.3203125 162.83203125 509.653320312 186.499023438 c 0
 520.986328125 210.166015625 529.319335938 233.333007812 534.65234375 256 c 0
 542.21484375 289.063476562 545.99609375 320.0625 545.99609375 348.99609375 c 0
 545.99609375 429.743164062 516.547851562 494.411132812 457.65234375 543 c 0
 428.985351562 566.333007812 385.65234375 590.333007812 327.65234375 615 c 1
 327.65234375 616 l 1
 326.65234375 616 l 1
 325.65234375 616 l 1
 324.65234375 617 l 1
 323.65234375 617 l 1
 322.65234375 618 l 1
 321.65234375 618 l 1
 320.65234375 618 l 1
 320.65234375 619 l 1
 319.65234375 619 l 1
 318.65234375 619 l 1
 317.65234375 620 l 1
 316.65234375 620 l 1
 315.65234375 620 l 1
 315.65234375 621 l 1
 293.65234375 534.333007812 272.985351562 443.333007812 253.65234375 348 c 0
EndSplineSet
Validated: 524289
EndChar

StartChar: E
Encoding: 69 69 48
Width: 650
GlyphClass: 2
Flags: HMW
HStem: -17.498 87.4961 -6 90.4971 312.001 85.999<255.403 297.074> 332.001 80.999<569.737 601.739> 614.501 82.5
LayerCount: 2
Fore
SplineSet
504.40234375 -6 m 0x48
 502.4609375 -5.87890625 499.967773438 -5.818359375 496.921875 -5.818359375 c 0
 483.234375 -5.818359375 458.396484375 -7.0439453125 422.405273438 -9.498046875 c 0
 378.405273438 -12.498046875 330.405273438 -15.1650390625 278.405273438 -17.498046875 c 0
 250.404296875 -18.75390625 225.8828125 -19.3828125 204.840820312 -19.3828125 c 0
 186.806640625 -19.3828125 171.328125 -18.9208984375 158.405273438 -17.998046875 c 0
 144.405273438 -17.3310546875 132.072265625 -9.8310546875 121.405273438 4.501953125 c 0
 112.422851562 16.5712890625 107.931640625 30.8876953125 107.931640625 47.44921875 c 0
 107.931640625 50.5546875 108.08984375 53.73828125 108.405273438 57.001953125 c 0
 110.405273438 74.3349609375 116.572265625 105.501953125 126.905273438 150.501953125 c 0
 137.23828125 195.501953125 148.571289062 243.334960938 160.904296875 294.001953125 c 0
 173.237304688 344.668945312 185.737304688 401.668945312 198.404296875 465.001953125 c 0
 207.071289062 505.001953125 212.904296875 531.501953125 215.904296875 544.501953125 c 0
 218.904296875 557.501953125 223.737304688 576.668945312 230.404296875 602.001953125 c 0
 237.071289062 627.334960938 241.404296875 643.001953125 243.404296875 649.001953125 c 0
 248.071289062 667.001953125 255.73828125 680.668945312 266.405273438 690.001953125 c 0
 277.072265625 699.334960938 288.739257812 704.001953125 301.40625 704.001953125 c 0
 302.284179688 704.037109375 303.146484375 704.0546875 303.994140625 704.0546875 c 0
 319.251953125 704.0546875 329.721679688 698.370117188 335.40625 687.001953125 c 1
 372.073242188 692.334960938 414.240234375 695.66796875 461.907226562 697.000976562 c 0
 485.740234375 697.66796875 508.157226562 698.000976562 529.157226562 698.000976562 c 0
 550.157226562 698.000976562 569.740234375 697.666992188 587.907226562 697.000976562 c 0
 624.240234375 695.66796875 652.740234375 693.66796875 673.407226562 691.000976562 c 0
 687.407226562 689.000976562 696.740234375 685.000976562 701.407226562 679.000976562 c 0
 706.07421875 673.000976562 707.07421875 664.66796875 704.407226562 654.000976562 c 0
 703.07421875 648.000976562 701.241210938 642.333984375 698.908203125 637.000976562 c 0
 696.575195312 631.66796875 693.575195312 626.834960938 689.908203125 622.501953125 c 0
 686.241210938 618.168945312 681.408203125 614.668945312 675.408203125 612.001953125 c 0
 669.408203125 609.334960938 662.408203125 608.66796875 654.408203125 610.000976562 c 0
 612.1640625 613.439453125 569.376953125 615.159179688 526.047851562 615.159179688 c 0
 510.5703125 615.159179688 495.024414062 614.939453125 479.409179688 614.500976562 c 0
 420.076171875 612.833984375 368.409179688 608.666992188 324.409179688 602 c 1
 305.7421875 532.666992188 289.075195312 464.666992188 274.408203125 398 c 1xa8
 319.741210938 398 382.07421875 400.5 461.407226562 405.5 c 0
 540.740234375 410.5 585.073242188 413 594.40625 413 c 0
 609.073242188 413 618.573242188 409.666992188 622.90625 403 c 0
 627.239257812 396.333007812 628.072265625 387 625.405273438 375 c 0
 618.88671875 346.319335938 602.807617188 331.978515625 577.16796875 331.978515625 c 0
 576.584960938 331.978515625 575.997070312 331.986328125 575.404296875 332.000976562 c 0x18
 564.071289062 332.000976562 515.571289062 328.66796875 429.904296875 322.000976562 c 0
 344.237304688 315.333984375 286.0703125 312.000976562 255.403320312 312.000976562 c 1
 252.0703125 297.333984375 247.737304688 278.166992188 242.404296875 254.5 c 0
 237.071289062 230.833007812 232.571289062 210.5 228.904296875 193.5 c 0
 225.237304688 176.5 221.5703125 159 217.903320312 141 c 0
 214.236328125 123 211.569335938 108.166992188 209.90234375 96.5 c 0
 208.235351562 84.8330078125 207.735351562 76.666015625 208.40234375 71.9990234375 c 1
 216.958984375 69.2763671875 236.916015625 67.9150390625 268.274414062 67.9150390625 c 0
 290.668945312 67.9150390625 318.87890625 68.609375 352.903320312 69.998046875 c 0xa8
 434.5703125 73.3310546875 487.403320312 77.6640625 511.403320312 82.9970703125 c 0
 520.736328125 84.330078125 528.569335938 84.830078125 534.90234375 84.4970703125 c 0
 541.235351562 84.1640625 546.40234375 82.8310546875 550.40234375 80.498046875 c 0
 554.40234375 78.1650390625 557.40234375 75.6650390625 559.40234375 72.998046875 c 0
 561.40234375 70.3310546875 562.735351562 66.8310546875 563.40234375 62.498046875 c 0
 564.069335938 58.1650390625 564.40234375 54.33203125 564.40234375 50.9990234375 c 0
 564.40234375 47.666015625 564.069335938 44.3330078125 563.40234375 41 c 0
 560.735351562 28.3330078125 554.235351562 17 543.90234375 7 c 0
 534.78515625 -1.8232421875 523.4609375 -6.2353515625 509.930664062 -6.2353515625 c 0
 508.126953125 -6.2353515625 506.284179688 -6.1572265625 504.40234375 -6 c 0x48
EndSplineSet
Validated: 524289
EndChar

StartChar: F
Encoding: 70 70 49
Width: 650
GlyphClass: 2
Flags: HMW
HStem: 316 86.002 619.002 86.999
LayerCount: 2
Fore
SplineSet
197.013671875 24 m 0
 192.346679688 10 183.513671875 -1.166015625 170.513671875 -9.4990234375 c 0
 158.477539062 -17.21484375 146.297851562 -21.072265625 133.975585938 -21.072265625 c 0
 132.989257812 -21.072265625 132.001953125 -21.0478515625 131.013671875 -20.998046875 c 0
 118.346679688 -20.998046875 109.1796875 -16.498046875 103.512695312 -7.498046875 c 0
 100.405273438 -2.5625 98.8515625 3.42578125 98.8515625 10.4658203125 c 0
 98.8515625 16.263671875 99.9052734375 22.7763671875 102.012695312 30.001953125 c 0
 110.6796875 59.3349609375 124.1796875 115.501953125 142.512695312 198.501953125 c 0
 160.845703125 281.501953125 178.678710938 367.001953125 196.01171875 455.001953125 c 0
 205.344726562 499.668945312 211.844726562 529.668945312 215.51171875 545.001953125 c 0
 219.178710938 560.334960938 224.51171875 581.001953125 231.51171875 607.001953125 c 0
 238.51171875 633.001953125 243.344726562 650.668945312 246.01171875 660.001953125 c 0
 250.678710938 678.001953125 258.345703125 691.501953125 269.012695312 700.501953125 c 0
 279.6796875 709.501953125 291.346679688 714.001953125 304.013671875 714.001953125 c 0
 305.6640625 714.12890625 307.262695312 714.192382812 308.810546875 714.192382812 c 0
 323.516601562 714.192382812 333.584960938 708.461914062 339.013671875 697.000976562 c 1
 401.013671875 701.66796875 463.013671875 704.66796875 525.013671875 706.000976562 c 0
 540.512695312 706.333984375 555.283203125 706.500976562 569.32421875 706.500976562 c 0
 611.450195312 706.500976562 647.012695312 705.000976562 676.013671875 702.000976562 c 0
 690.013671875 700.66796875 699.180664062 696.834960938 703.513671875 690.501953125 c 0
 707.846679688 684.168945312 709.013671875 675.3359375 707.013671875 664.002929688 c 0
 704.346679688 651.3359375 698.513671875 640.668945312 689.513671875 632.001953125 c 0
 680.513671875 623.334960938 668.346679688 619.001953125 653.013671875 619.001953125 c 0
 618.694335938 620.856445312 583.166015625 621.784179688 546.426757812 621.784179688 c 0
 477.541992188 621.784179688 404.404296875 618.5234375 327.012695312 612.001953125 c 1
 324.345703125 600.668945312 319.678710938 582.501953125 313.01171875 557.501953125 c 0
 306.344726562 532.501953125 299.844726562 507.001953125 293.51171875 481.001953125 c 0
 287.178710938 455.001953125 281.01171875 428.668945312 275.01171875 402.001953125 c 1
 303.58203125 405.430664062 334.845703125 407.14453125 368.803710938 407.14453125 c 0
 374.46484375 407.14453125 380.201171875 407.09765625 386.01171875 407.001953125 c 0
 426.678710938 406.334960938 463.01171875 404.501953125 495.01171875 401.501953125 c 0
 527.01171875 398.501953125 552.344726562 395.334960938 571.01171875 392.001953125 c 0
 585.01171875 389.334960938 594.178710938 385.001953125 598.51171875 379.001953125 c 0
 602.844726562 373.001953125 604.01171875 364.668945312 602.01171875 354.001953125 c 0
 600.678710938 348.001953125 598.845703125 342.501953125 596.512695312 337.501953125 c 0
 594.1796875 332.501953125 591.012695312 327.668945312 587.012695312 323.001953125 c 0
 583.012695312 318.334960938 578.1796875 314.834960938 572.512695312 312.501953125 c 0
 566.845703125 310.168945312 560.012695312 309.3359375 552.012695312 310.002929688 c 0
 534.012695312 313.3359375 508.345703125 316.168945312 475.012695312 318.501953125 c 0
 441.6796875 320.834960938 403.846679688 322.16796875 361.513671875 322.500976562 c 0
 358.694335938 322.5234375 355.90625 322.534179688 353.150390625 322.534179688 c 0
 314.528320312 322.534179688 282.1484375 320.356445312 256.013671875 316 c 1
 220.013671875 139.333007812 200.346679688 42 197.013671875 24 c 0
EndSplineSet
Validated: 524289
EndChar

StartChar: G
Encoding: 71 71 50
Width: 650
GlyphClass: 2
Flags: HMW
HStem: -30.9971 89.9971<270.033 321.033> 643.002 80.999<557.032 562.364>
LayerCount: 2
Fore
SplineSet
592.700195312 244 m 0
 588.033203125 230 580.366210938 213.669921875 569.69921875 195.002929688 c 0
 559.032226562 176.3359375 546.19921875 156.502929688 531.19921875 135.502929688 c 0
 516.19921875 114.502929688 499.032226562 94.169921875 479.69921875 74.5029296875 c 0
 460.366210938 54.8359375 440.366210938 37.0029296875 419.69921875 21.0029296875 c 0
 399.032226562 5.0029296875 376.532226562 -7.830078125 352.19921875 -17.4970703125 c 0
 329.436523438 -26.5400390625 307.694335938 -31.0615234375 286.973632812 -31.0615234375 c 0
 285.543945312 -31.0615234375 284.119140625 -31.0400390625 282.69921875 -30.9970703125 c 0
 257.366210938 -30.9970703125 234.533203125 -26.330078125 214.200195312 -16.9970703125 c 0
 193.8671875 -7.6640625 177.3671875 4.6689453125 164.700195312 20.001953125 c 0
 152.033203125 35.3349609375 142.033203125 53.16796875 134.700195312 73.5009765625 c 0
 127.3671875 93.833984375 123.3671875 115.500976562 122.700195312 138.500976562 c 0
 122.625976562 141.057617188 122.588867188 143.616210938 122.588867188 146.177734375 c 0
 122.588867188 166.653320312 124.958984375 187.26171875 129.69921875 208.000976562 c 0
 141.032226562 257.333984375 156.865234375 305.333984375 177.198242188 352.000976562 c 0
 197.53125 398.66796875 219.698242188 440.66796875 243.698242188 478.000976562 c 0
 267.698242188 515.333984375 294.03125 549.500976562 322.698242188 580.500976562 c 0
 351.365234375 611.500976562 379.865234375 637.500976562 408.198242188 658.500976562 c 0
 436.53125 679.500976562 464.53125 695.66796875 492.198242188 707.000976562 c 0
 519.865234375 718.333984375 545.365234375 724.000976562 568.698242188 724.000976562 c 0
 594.698242188 724.000976562 622.198242188 717.500976562 651.198242188 704.500976562 c 0
 680.198242188 691.500976562 698.03125 680.333984375 704.698242188 671.000976562 c 0
 709.57421875 664.295898438 712.012695312 656.685546875 712.012695312 648.169921875 c 0
 712.012695312 638.056640625 708.57421875 626.666992188 701.698242188 614.000976562 c 0
 697.698242188 605.333984375 690.53125 599.000976562 680.198242188 595.000976562 c 0
 669.865234375 591.000976562 660.365234375 591.000976562 651.698242188 595.000976562 c 0
 648.365234375 596.333984375 640.865234375 601.333984375 629.198242188 610.000976562 c 0
 617.53125 618.66796875 605.364257812 626.334960938 592.697265625 633.001953125 c 0
 580.030273438 639.668945312 568.030273438 643.001953125 556.697265625 643.001953125 c 0
 537.364257812 643.001953125 515.03125 636.168945312 489.698242188 622.501953125 c 0
 464.365234375 608.834960938 438.698242188 589.16796875 412.698242188 563.500976562 c 0
 386.698242188 537.833984375 361.698242188 508.666992188 337.698242188 476 c 0
 313.698242188 443.333007812 292.03125 406.333007812 272.698242188 365 c 0
 253.365234375 323.666992188 239.032226562 282 229.69921875 240 c 0
 225.658203125 222.221679688 223.637695312 204.6875 223.637695312 187.3984375 c 0
 223.637695312 176.162109375 224.491210938 165.029296875 226.198242188 154 c 0
 230.53125 126 240.53125 103.166992188 256.198242188 85.5 c 0
 271.865234375 67.8330078125 291.032226562 59 313.69921875 59 c 0
 328.366210938 59 344.866210938 64.1669921875 363.19921875 74.5 c 0
 381.532226562 84.8330078125 398.865234375 98 415.198242188 114 c 0
 431.53125 130 447.53125 148 463.198242188 168 c 0
 478.865234375 188 492.532226562 207.333007812 504.19921875 226 c 0
 515.866210938 244.666992188 525.366210938 262 532.69921875 278 c 1
 493.366210938 276 454.366210938 272.333007812 415.69921875 267 c 0
 377.032226562 261.666992188 349.69921875 254.666992188 333.69921875 246 c 0
 328.014648438 243.158203125 322.779296875 241.736328125 317.9921875 241.736328125 c 0
 312.673828125 241.736328125 307.91015625 243.491210938 303.69921875 247 c 0
 295.69921875 253.666992188 292.366210938 262.666992188 293.69921875 274 c 0
 295.69921875 299.333007812 312.032226562 319 342.69921875 333 c 0
 362.69921875 342.333007812 402.19921875 349.5 461.19921875 354.5 c 0
 503.341796875 358.071289062 538.9375 359.857421875 567.985351562 359.857421875 c 0
 579.604492188 359.857421875 590.17578125 359.571289062 599.69921875 359 c 0
 615.032226562 358.333007812 625.032226562 355.5 629.69921875 350.5 c 0
 634.366210938 345.5 636.366210938 337.666992188 635.69921875 327 c 0
 633.032226562 302.333007812 623.032226562 287 605.69921875 281 c 0
 605.032226562 279 603.032226562 273.666992188 599.69921875 265 c 0
 596.366210938 256.333007812 594.033203125 249.333007812 592.700195312 244 c 0
EndSplineSet
Validated: 524289
EndChar

StartChar: H
Encoding: 72 72 51
Width: 650
GlyphClass: 2
Flags: HMW
HStem: 311.999 86.001<270.289 307.621>
LayerCount: 2
Fore
SplineSet
544.290039062 24 m 0
 539.623046875 10 530.958007812 -1.16796875 518.291015625 -9.5009765625 c 0
 506.5625 -17.216796875 494.548828125 -21.07421875 482.25 -21.07421875 c 0
 481.265625 -21.07421875 480.279296875 -21.0498046875 479.291015625 -21 c 0
 466.624023438 -21 457.45703125 -16.5 451.790039062 -7.5 c 0
 448.682617188 -2.564453125 447.12890625 3.423828125 447.12890625 10.4638671875 c 0
 447.12890625 16.26171875 448.182617188 22.7744140625 450.290039062 30 c 0
 477.623046875 122.666992188 504.290039062 226.666992188 530.290039062 342 c 1
 519.623046875 341.333007812 480.456054688 336.166015625 412.7890625 326.499023438 c 0
 345.122070312 316.83203125 297.622070312 311.999023438 270.2890625 311.999023438 c 0
 269.622070312 309.999023438 268.622070312 306.499023438 267.2890625 301.499023438 c 0
 265.956054688 296.499023438 264.956054688 292.999023438 264.2890625 290.999023438 c 0
 245.622070312 224.999023438 224.955078125 135.999023438 202.288085938 23.9990234375 c 0
 197.62109375 9.9990234375 188.788085938 -1.16796875 175.788085938 -9.5009765625 c 0
 163.751953125 -17.216796875 151.858398438 -21.07421875 140.107421875 -21.07421875 c 0
 139.166992188 -21.07421875 138.2265625 -21.0498046875 137.288085938 -21 c 0
 125.288085938 -21 116.12109375 -16.5 109.788085938 -7.5 c 0
 106.350585938 -2.6142578125 104.630859375 3.302734375 104.630859375 10.251953125 c 0
 104.630859375 16.1025390625 105.850585938 22.685546875 108.288085938 30 c 0
 110.955078125 39.3330078125 114.955078125 54.3330078125 120.288085938 75 c 0
 125.62109375 95.6669921875 132.288085938 123.333984375 140.288085938 158.000976562 c 0
 148.288085938 192.66796875 155.62109375 224.000976562 162.288085938 252.000976562 c 0
 167.62109375 274.66796875 175.788085938 307.16796875 186.788085938 349.500976562 c 0
 197.788085938 391.833984375 205.62109375 423.166992188 210.288085938 443.5 c 2
 231.288085938 535 l 2
 237.288085938 565 241.288085938 584.166992188 243.288085938 592.5 c 0
 245.288085938 600.833007812 248.288085938 612.333007812 252.288085938 627 c 2
 261.288085938 660 l 2
 265.955078125 678 273.788085938 691.5 284.788085938 700.5 c 0
 295.788085938 709.5 307.62109375 714 320.288085938 714 c 0
 321.325195312 714.049804688 322.34375 714.07421875 323.342773438 714.07421875 c 0
 335.825195312 714.07421875 345.306640625 710.216796875 351.788085938 702.500976562 c 0
 356.2421875 697.198242188 358.469726562 689.9375 358.469726562 680.719726562 c 0
 358.469726562 675.453125 357.7421875 669.546875 356.288085938 663.000976562 c 0
 354.955078125 656.333984375 350.788085938 642.000976562 343.788085938 620.000976562 c 0
 336.788085938 598.000976562 331.288085938 577.66796875 327.288085938 559.000976562 c 0
 323.288085938 541.66796875 317.455078125 515.16796875 309.788085938 479.500976562 c 0
 302.12109375 443.833984375 295.954101562 416.666992188 291.287109375 398 c 1
 323.954101562 398 357.954101562 400 393.287109375 404 c 0
 428.620117188 408 460.620117188 412 489.287109375 416 c 0
 517.954101562 420 537.954101562 422.666992188 549.287109375 424 c 1
 549.954101562 428.666992188 551.12109375 435.5 552.788085938 444.5 c 0
 554.455078125 453.5 555.955078125 460.333007812 557.288085938 465 c 0
 566.62109375 506.333007812 572.62109375 533.666015625 575.288085938 546.999023438 c 0
 577.955078125 560.33203125 582.955078125 580.999023438 590.288085938 608.999023438 c 0
 597.62109375 636.999023438 602.288085938 653.999023438 604.288085938 659.999023438 c 0
 608.955078125 677.999023438 616.622070312 691.499023438 627.2890625 700.499023438 c 0
 637.956054688 709.499023438 649.623046875 713.999023438 662.290039062 713.999023438 c 0
 663.327148438 714.048828125 664.345703125 714.073242188 665.344726562 714.073242188 c 0
 677.827148438 714.073242188 687.30859375 710.215820312 693.790039062 702.5 c 0
 698.244140625 697.197265625 700.471679688 689.936523438 700.471679688 680.71875 c 0
 700.471679688 675.452148438 699.744140625 669.545898438 698.290039062 663 c 0
 695.623046875 650.333007812 689.290039062 624.333007812 679.290039062 585 c 0
 669.290039062 545.666992188 660.790039062 511.166992188 653.790039062 481.5 c 0
 646.790039062 451.833007812 637.290039062 409 625.290039062 353 c 0
 615.95703125 306.333007812 601.290039062 245 581.290039062 169 c 0
 561.290039062 93 548.95703125 44.6669921875 544.290039062 24 c 0
EndSplineSet
Validated: 524289
EndChar

StartChar: I
Encoding: 73 73 52
Width: 650
GlyphClass: 2
Flags: HMW
HStem: -13.998 80.001 -6.49902 77.999 612.001 89.001 625.002 82.999<281.728 308.395 300.062 308.395 300.062 424.394>
LayerCount: 2
Fore
SplineSet
514.400390625 -11 m 0x60
 499.067382812 -8.3330078125 473.221679688 -6.83203125 436.888671875 -6.4990234375 c 0x60
 429.625976562 -6.4326171875 422.383789062 -6.3994140625 415.161132812 -6.3994140625 c 0
 386.250976562 -6.3994140625 357.66015625 -6.9326171875 329.389648438 -7.9990234375 c 0
 294.056640625 -9.33203125 256.723632812 -10.6650390625 217.390625 -11.998046875 c 0
 178.057617188 -13.3310546875 150.724609375 -13.998046875 135.391601562 -13.998046875 c 0
 119.391601562 -13.998046875 108.224609375 -10.6650390625 101.891601562 -3.998046875 c 0
 95.55859375 2.6689453125 93.7255859375 11.3359375 96.392578125 22.0029296875 c 0
 98.392578125 34.0029296875 104.059570312 44.169921875 113.392578125 52.5029296875 c 0
 122.725585938 60.8359375 135.392578125 65.3359375 151.392578125 66.0029296875 c 0
 178.059570312 67.3359375 224.059570312 69.0029296875 289.392578125 71.0029296875 c 1
 322.059570312 185.002929688 351.7265625 305.669921875 378.393554688 433.002929688 c 0
 383.060546875 457.002929688 387.893554688 479.669921875 392.893554688 501.002929688 c 0
 397.893554688 522.3359375 401.393554688 537.668945312 403.393554688 547.001953125 c 0
 405.393554688 556.334960938 409.2265625 570.834960938 414.893554688 590.501953125 c 0
 420.560546875 610.168945312 423.727539062 621.668945312 424.39453125 625.001953125 c 1
 396.39453125 625.66796875 371.14453125 626.001953125 348.64453125 626.001953125 c 0
 326.14453125 626.001953125 306.39453125 625.66796875 289.39453125 625.001953125 c 0
 274.061523438 625.001953125 263.228515625 628.668945312 256.895507812 636.001953125 c 0
 250.5625 643.334960938 248.395507812 652.66796875 250.395507812 664.000976562 c 0
 252.395507812 676.000976562 258.395507812 686.333984375 268.395507812 695.000976562 c 0
 278.395507812 703.66796875 291.728515625 708.000976562 308.395507812 708.000976562 c 0x90
 360.62109375 709.556640625 408.995117188 710.334960938 453.516601562 710.334960938 c 0
 542.548828125 710.334960938 616.17578125 707.223632812 674.395507812 701.001953125 c 0
 697.090820312 698.732421875 708.438476562 688.495117188 708.438476562 670.291015625 c 0
 708.438476562 667.104492188 708.090820312 663.674804688 707.395507812 660.000976562 c 0
 706.0625 654.000976562 703.895507812 648.16796875 700.895507812 642.500976562 c 0
 697.895507812 636.833984375 694.228515625 631.333984375 689.895507812 626.000976562 c 0
 685.5625 620.66796875 680.0625 616.500976562 673.395507812 613.500976562 c 0
 666.728515625 610.500976562 659.395507812 610.000976562 651.395507812 612.000976562 c 0
 634.0625 615.333984375 589.729492188 619.000976562 518.396484375 623.000976562 c 1
 517.063476562 617.66796875 513.23046875 602.66796875 506.897460938 578.000976562 c 0
 500.564453125 553.333984375 495.564453125 533.666992188 491.897460938 519 c 0
 488.23046875 504.333007812 483.397460938 483.333007812 477.397460938 456 c 0
 471.397460938 428.666992188 465.397460938 401.666992188 459.397460938 375 c 0
 449.397460938 327.666992188 435.23046875 268.666992188 416.897460938 198 c 0
 398.564453125 127.333007812 387.731445312 85.3330078125 384.3984375 72 c 1
 411.731445312 72 442.731445312 71.8330078125 477.3984375 71.5 c 0
 512.065429688 71.1669921875 530.732421875 71 533.399414062 71 c 0
 548.06640625 71 557.399414062 67.5 561.399414062 60.5 c 0
 565.399414062 53.5 566.399414062 44.3330078125 564.399414062 33 c 0
 563.06640625 27 561.399414062 21.5 559.399414062 16.5 c 0
 557.399414062 11.5 554.399414062 6.5 550.399414062 1.5 c 0
 546.399414062 -3.5 541.232421875 -7.1669921875 534.899414062 -9.5 c 0
 528.56640625 -11.8330078125 521.733398438 -12.3330078125 514.400390625 -11 c 0x60
EndSplineSet
Validated: 524289
EndChar

StartChar: J
Encoding: 74 74 53
Width: 650
GlyphClass: 2
Flags: HMW
HStem: -35.001 101.001<301.944 309.277> 625 82.999<284.611 310.277>
VStem: 128.277 87.501 141.278 77
LayerCount: 2
Fore
SplineSet
466.275390625 215 m 0xe0
 447.608398438 155 429.110351562 106.33203125 410.77734375 68.9990234375 c 0
 392.444335938 31.666015625 374.27734375 4.9990234375 356.27734375 -11.0009765625 c 0
 338.27734375 -27.0009765625 319.27734375 -35.0009765625 299.27734375 -35.0009765625 c 0
 277.944335938 -35.0009765625 258.27734375 -31.0009765625 240.27734375 -23.0009765625 c 0
 222.27734375 -15.0009765625 207.110351562 -4.333984375 194.77734375 8.9990234375 c 0
 182.444335938 22.33203125 171.611328125 36.83203125 162.278320312 52.4990234375 c 0
 152.9453125 68.166015625 145.778320312 83.8330078125 140.778320312 99.5 c 0
 135.778320312 115.166992188 132.278320312 129.166992188 130.278320312 141.5 c 0
 128.278320312 153.833007812 127.611328125 163.666015625 128.278320312 170.999023438 c 0xe0
 128.278320312 176.999023438 129.611328125 184.166015625 132.278320312 192.499023438 c 0
 134.9453125 200.83203125 137.9453125 208.665039062 141.278320312 215.998046875 c 0
 144.611328125 223.331054688 149.778320312 229.831054688 156.778320312 235.498046875 c 0
 163.778320312 241.165039062 172.278320312 244.665039062 182.278320312 245.998046875 c 0
 185.833984375 246.64453125 189.145507812 246.967773438 192.211914062 246.967773438 c 0
 201.791992188 246.967773438 208.98046875 243.811523438 213.778320312 237.499023438 c 0
 217.927734375 232.0390625 220.001953125 225.649414062 220.001953125 218.329101562 c 0
 220.001953125 214.4765625 219.427734375 210.3671875 218.278320312 205.999023438 c 0xd0
 218.225585938 205.706054688 215.729492188 191.61328125 215.729492188 176.352539062 c 0
 215.729492188 166.751953125 217.079101562 155.80078125 219.779296875 143.5 c 0
 222.779296875 129.833007812 227.446289062 117.333007812 233.779296875 106 c 0
 240.112304688 94.6669921875 249.9453125 85.1669921875 263.278320312 77.5 c 0
 276.611328125 69.8330078125 292.611328125 66 311.278320312 66 c 0
 333.278320312 66 359.611328125 124 390.278320312 240 c 0
 393.611328125 254.666992188 403.778320312 301.666992188 420.778320312 381 c 0
 437.778320312 460.333007812 456.278320312 541.333007812 476.278320312 624 c 1
 435.079101562 625.200195312 396.51953125 625.799804688 360.600585938 625.799804688 c 0
 336.653320312 625.799804688 313.87890625 625.533203125 292.278320312 625 c 0
 276.9453125 625 265.9453125 628.666992188 259.278320312 636 c 0
 252.611328125 643.333007812 250.611328125 652.666015625 253.278320312 663.999023438 c 0
 255.278320312 675.999023438 261.4453125 686.33203125 271.778320312 694.999023438 c 0
 282.111328125 703.666015625 294.944335938 707.999023438 310.27734375 707.999023438 c 0
 362.502929688 709.5546875 410.9140625 710.333007812 455.508789062 710.333007812 c 0
 544.690429688 710.333007812 618.612304688 707.221679688 677.27734375 701 c 0
 699.97265625 698.73046875 711.3203125 688.493164062 711.3203125 670.2890625 c 0
 711.3203125 667.102539062 710.97265625 663.672851562 710.27734375 659.999023438 c 0
 708.944335938 653.999023438 706.77734375 648.166015625 703.77734375 642.499023438 c 0
 700.77734375 636.83203125 696.944335938 631.33203125 692.27734375 625.999023438 c 0
 687.610351562 620.666015625 681.943359375 616.499023438 675.276367188 613.499023438 c 0
 668.609375 610.499023438 661.609375 609.999023438 654.276367188 611.999023438 c 0
 633.609375 615.33203125 600.942382812 618.33203125 556.275390625 620.999023438 c 1
 551.608398438 601.666015625 545.44140625 572.333007812 537.774414062 533 c 0
 530.107421875 493.666992188 523.107421875 457.833984375 516.774414062 425.500976562 c 0
 510.44140625 393.16796875 502.608398438 357.16796875 493.275390625 317.500976562 c 0
 483.942382812 277.833984375 474.942382812 243.666992188 466.275390625 215 c 0xe0
EndSplineSet
Validated: 524289
EndChar

StartChar: K
Encoding: 75 75 54
Width: 650
GlyphClass: 2
Flags: W
HStem: -21.0752 21G<136.602 143.256 500.446 510.955> 694.072 20G<309.69 316.431>
LayerCount: 2
Fore
SplineSet
200.1328125 24 m 0
 195.465820312 10 186.6328125 -1.1689453125 173.6328125 -9.501953125 c 0
 161.596679688 -17.2177734375 149.416992188 -21.0751953125 137.094726562 -21.0751953125 c 0
 136.108398438 -21.0751953125 135.12109375 -21.05078125 134.1328125 -21.0009765625 c 0
 121.465820312 -21.0009765625 112.298828125 -16.5009765625 106.631835938 -7.5009765625 c 0
 103.524414062 -2.5654296875 101.970703125 3.4228515625 101.970703125 10.462890625 c 0
 101.970703125 16.2607421875 103.024414062 22.7734375 105.131835938 29.9990234375 c 0
 113.798828125 59.33203125 127.465820312 115.499023438 146.1328125 198.499023438 c 0
 164.799804688 281.499023438 182.799804688 366.999023438 200.1328125 454.999023438 c 0
 208.799804688 497.666015625 214.799804688 526.499023438 218.1328125 541.499023438 c 0
 221.465820312 556.499023438 226.965820312 578.166015625 234.6328125 606.499023438 c 0
 242.299804688 634.83203125 247.1328125 652.665039062 249.1328125 659.998046875 c 0
 253.799804688 677.998046875 261.466796875 691.498046875 272.133789062 700.498046875 c 0
 282.80078125 709.498046875 294.467773438 713.998046875 307.134765625 713.998046875 c 0
 308.171875 714.047851562 309.190429688 714.072265625 310.189453125 714.072265625 c 0
 322.671875 714.072265625 332.153320312 710.21484375 338.634765625 702.499023438 c 0
 343.088867188 697.196289062 345.31640625 689.935546875 345.31640625 680.717773438 c 0
 345.31640625 675.451171875 344.588867188 669.544921875 343.134765625 662.999023438 c 0
 339.801757812 646.999023438 331.134765625 611.999023438 317.134765625 557.999023438 c 0
 303.134765625 503.999023438 291.801757812 459.33203125 283.134765625 423.999023438 c 1
 311.134765625 447.33203125 353.134765625 482.665039062 409.134765625 529.998046875 c 0
 465.134765625 577.331054688 509.467773438 614.831054688 542.134765625 642.498046875 c 0
 574.801757812 670.165039062 595.801757812 687.33203125 605.134765625 693.999023438 c 0
 615.801757812 702.666015625 625.46875 708.499023438 634.135742188 711.499023438 c 0
 642.802734375 714.499023438 649.969726562 715.166015625 655.63671875 713.499023438 c 0
 661.303710938 711.83203125 666.13671875 708.33203125 670.13671875 702.999023438 c 0
 673.677734375 697.490234375 675.448242188 691.576171875 675.448242188 685.254882812 c 0
 675.448242188 670.155273438 665.344726562 652.736328125 645.13671875 632.999023438 c 0
 633.13671875 620.999023438 591.969726562 584.499023438 521.63671875 523.499023438 c 0
 451.303710938 462.499023438 389.13671875 409.33203125 335.13671875 363.999023438 c 1
 350.469726562 339.999023438 377.469726562 302.499023438 416.13671875 251.499023438 c 0
 454.803710938 200.499023438 488.303710938 155.666015625 516.63671875 116.999023438 c 0
 534.409179688 92.744140625 561.241210938 56.1259765625 561.241210938 40.0419921875 c 0
 561.241210938 28.9599609375 558.706054688 18.9462890625 553.635742188 9.9990234375 c 0
 547.96875 -0.0009765625 540.801757812 -7.66796875 532.134765625 -13.0009765625 c 0
 523.129882812 -18.5986328125 514.791015625 -21.3974609375 507.118164062 -21.3974609375 c 0
 493.774414062 -21.3974609375 482.446289062 -12.931640625 473.133789062 4 c 0
 468.466796875 12.6669921875 451.633789062 35.6669921875 422.633789062 73 c 0
 393.633789062 110.333007812 362.30078125 151.5 328.633789062 196.5 c 0
 294.966796875 241.5 270.799804688 277.333007812 256.1328125 304 c 1
 251.1328125 284 l 2
 249.1328125 272.666992188 232.1328125 186 200.1328125 24 c 0
EndSplineSet
Validated: 524289
EndChar

StartChar: L
Encoding: 76 76 55
Width: 650
GlyphClass: 2
Flags: HMW
HStem: -9.00488 81.0029
LayerCount: 2
Fore
SplineSet
517.734375 10 m 0
 473.734375 1.3330078125 408.407226562 -5.0048828125 321.740234375 -9.0048828125 c 0
 235.073242188 -13.0048828125 171.740234375 -15.0048828125 131.740234375 -15.0048828125 c 0
 119.073242188 -15.0048828125 109.90625 -10.5048828125 104.239257812 -1.5048828125 c 0
 101.131835938 3.4306640625 99.578125 9.4189453125 99.578125 16.458984375 c 0
 99.578125 22.2568359375 100.631835938 28.76953125 102.739257812 35.9951171875 c 0
 104.072265625 41.328125 116.405273438 79.4951171875 139.73828125 150.495117188 c 0
 163.071289062 221.495117188 184.071289062 289.995117188 202.73828125 355.995117188 c 0
 211.405273438 385.995117188 224.405273438 440.995117188 241.73828125 520.995117188 c 0
 259.071289062 600.995117188 268.404296875 644.328125 269.737304688 650.995117188 c 0
 274.404296875 668.995117188 282.237304688 682.662109375 293.237304688 691.995117188 c 0
 304.237304688 701.328125 315.737304688 705.995117188 327.737304688 705.995117188 c 0
 328.774414062 706.044921875 329.793945312 706.069335938 330.794921875 706.069335938 c 0
 343.299804688 706.069335938 352.947265625 702.211914062 359.737304688 694.49609375 c 0
 364.21875 689.404296875 366.458984375 682.506835938 366.458984375 673.8046875 c 0
 366.458984375 668.265625 365.551757812 661.997070312 363.736328125 654.99609375 c 0
 359.069335938 635.663085938 352.40234375 609.330078125 343.735351562 575.997070312 c 0
 335.068359375 542.6640625 324.068359375 500.6640625 310.735351562 449.997070312 c 0
 297.40234375 399.330078125 286.069335938 355.330078125 276.736328125 317.997070312 c 0
 269.403320312 289.997070312 257.5703125 249.330078125 241.237304688 195.997070312 c 0
 224.904296875 142.6640625 213.404296875 101.331054688 206.737304688 71.998046875 c 1
 211.260742188 71.9404296875 215.853515625 71.9111328125 220.514648438 71.9111328125 c 0
 269.448242188 71.9111328125 326.022460938 75.107421875 390.237304688 81.498046875 c 0
 460.5703125 88.498046875 508.0703125 95.3310546875 532.737304688 101.998046875 c 0
 540.737304688 103.998046875 547.404296875 103.665039062 552.737304688 100.998046875 c 0
 558.0703125 98.3310546875 561.903320312 94.3310546875 564.236328125 88.998046875 c 0
 566.569335938 83.6650390625 567.90234375 77.83203125 568.235351562 71.4990234375 c 0
 568.568359375 65.166015625 568.401367188 59.3330078125 567.734375 54 c 0
 565.067382812 42 560.067382812 32.3330078125 552.734375 25 c 0
 545.401367188 17.6669921875 533.734375 12.6669921875 517.734375 10 c 0
EndSplineSet
Validated: 524289
EndChar

StartChar: M
Encoding: 77 77 56
Width: 650
GlyphClass: 2
Flags: HMW
HStem: -9.99414 21G<109.119 115.119>
VStem: 279.116 97.001 496.116 89.001
LayerCount: 2
Fore
SplineSet
169.118164062 59 m 0
 165.118164062 37.6669921875 157.119140625 20.8388671875 145.119140625 8.505859375 c 0
 133.119140625 -3.8271484375 121.119140625 -9.994140625 109.119140625 -9.994140625 c 0
 94.302734375 -9.544921875 86.89453125 1.7900390625 86.89453125 24.009765625 c 0
 86.89453125 34.783203125 88.6357421875 48.115234375 92.119140625 64.0068359375 c 0
 94.119140625 72.0068359375 98.2861328125 85.673828125 104.619140625 105.006835938 c 0
 110.952148438 124.33984375 119.119140625 149.672851562 129.119140625 181.005859375 c 0
 139.119140625 212.338867188 147.786132812 239.671875 155.119140625 263.004882812 c 0
 157.119140625 271.004882812 160.786132812 283.337890625 166.119140625 300.004882812 c 0
 180.786132812 349.337890625 192.619140625 387.837890625 201.619140625 415.504882812 c 0
 210.619140625 443.171875 221.786132812 477.671875 235.119140625 519.004882812 c 0
 248.452148438 560.337890625 259.78515625 592.837890625 269.118164062 616.504882812 c 0
 278.451171875 640.171875 286.451171875 656.671875 293.118164062 666.004882812 c 0
 302.451171875 680.004882812 314.451171875 690.171875 329.118164062 696.504882812 c 0
 341.234375 701.736328125 352.213867188 704.352539062 362.0546875 704.352539062 c 0
 364.126953125 704.352539062 366.147460938 704.236328125 368.118164062 704.004882812 c 0
 396.118164062 704.004882812 410.118164062 691.671875 410.118164062 667.004882812 c 0
 410.178710938 664.336914062 410.208984375 661.510742188 410.208984375 658.526367188 c 0
 410.208984375 628.69140625 407.178710938 583.017578125 401.118164062 521.504882812 c 0
 394.451171875 453.837890625 385.784179688 376.670898438 375.1171875 290.00390625 c 0
 364.450195312 203.336914062 357.450195312 146.00390625 354.1171875 118.00390625 c 1
 382.1171875 212.00390625 408.784179688 296.670898438 434.1171875 372.00390625 c 0
 452.1171875 427.336914062 472.450195312 483.00390625 495.1171875 539.00390625 c 0
 517.784179688 595.00390625 536.1171875 637.670898438 550.1171875 667.00390625 c 0
 554.784179688 677.00390625 561.784179688 685.170898438 571.1171875 691.50390625 c 0
 580.450195312 697.836914062 589.450195312 701.669921875 598.1171875 703.002929688 c 0
 606.784179688 704.3359375 615.1171875 704.668945312 623.1171875 704.001953125 c 2
 627.1171875 704.001953125 l 1
 639.6171875 704.001953125 l 2
 642.6171875 704.001953125 646.784179688 703.168945312 652.1171875 701.501953125 c 0
 657.450195312 699.834960938 661.6171875 697.66796875 664.6171875 695.000976562 c 0
 667.6171875 692.333984375 670.1171875 688.166992188 672.1171875 682.5 c 0
 674.1171875 676.833007812 674.784179688 670 674.1171875 662 c 0
 672.1171875 642 656.784179688 544.333007812 628.1171875 369 c 0
 599.450195312 193.666992188 585.1171875 94.6669921875 585.1171875 72 c 0
 584.450195312 32 571.783203125 6.6669921875 547.116210938 -4 c 0
 541.021484375 -6.4375 535.309570312 -7.6572265625 529.98046875 -7.6572265625 c 0
 523.65234375 -7.6572265625 517.864257812 -5.9375 512.616210938 -2.5 c 0
 502.94921875 3.8330078125 497.44921875 17.666015625 496.116210938 38.9990234375 c 0
 496.017578125 40.6533203125 495.967773438 42.513671875 495.967773438 44.580078125 c 0
 495.967773438 98.29296875 529.350585938 291.099609375 596.115234375 623 c 1
 556.115234375 526.333007812 524.448242188 438.333007812 501.115234375 359 c 0
 477.782226562 283 453.44921875 210.833007812 428.116210938 142.5 c 0
 402.783203125 74.1669921875 385.450195312 32.333984375 376.1171875 17.0009765625 c 0
 365.450195312 1.0009765625 346.1171875 -6.9990234375 318.1171875 -6.9990234375 c 0
 305.450195312 -7.666015625 295.783203125 -5.666015625 289.116210938 -0.9990234375 c 0
 282.44921875 3.66796875 279.116210938 10.3349609375 279.116210938 19.001953125 c 0
 279.116210938 51.001953125 283.783203125 124.501953125 293.116210938 239.501953125 c 0
 302.44921875 354.501953125 312.116210938 464.668945312 322.116210938 570.001953125 c 1
 299.616210938 498.001953125 l 2
 291.283203125 471.334960938 284.283203125 448.16796875 278.616210938 428.500976562 c 0
 272.94921875 408.833984375 264.44921875 379.666992188 253.116210938 341 c 0
 241.783203125 302.333007812 233.116210938 273 227.116210938 253 c 0
 219.116210938 225 210.44921875 196.166992188 201.116210938 166.5 c 0
 191.783203125 136.833007812 184.450195312 113.5 179.1171875 96.5 c 0
 173.784179688 79.5 170.451171875 67 169.118164062 59 c 0
EndSplineSet
Validated: 524289
EndChar

StartChar: N
Encoding: 78 78 57
Width: 650
GlyphClass: 2
Flags: W
HStem: -12.0664 21G<127.325 133.606>
LayerCount: 2
Fore
SplineSet
480.356445312 -14 m 0
 468.356445312 -14.6669921875 459.182617188 -12.5029296875 452.849609375 -7.5029296875 c 0
 446.516601562 -2.5029296875 442.68359375 4.330078125 441.350585938 12.9970703125 c 0
 438.68359375 26.330078125 430.516601562 55.6630859375 416.849609375 100.99609375 c 0
 403.182617188 146.329101562 389.182617188 193.49609375 374.849609375 242.49609375 c 0
 360.516601562 291.49609375 346.18359375 346.329101562 331.850585938 406.99609375 c 0
 317.517578125 467.663085938 308.350585938 519.330078125 304.350585938 561.997070312 c 1
 291.017578125 489.330078125 276.684570312 421.663085938 261.3515625 358.99609375 c 0
 246.018554688 296.329101562 229.8515625 232.49609375 212.8515625 167.49609375 c 0
 195.8515625 102.49609375 186.018554688 62.99609375 183.3515625 48.99609375 c 0
 179.3515625 27.6630859375 171.8515625 11.99609375 160.8515625 1.99609375 c 0
 150.5390625 -7.37890625 139.495117188 -12.06640625 127.717773438 -12.06640625 c 0
 126.932617188 -12.06640625 126.143554688 -12.0458984375 125.3515625 -12.00390625 c 0
 112.684570312 -12.00390625 105.3515625 -6.3369140625 103.3515625 4.99609375 c 0
 102.751953125 8.396484375 102.451171875 12.2763671875 102.451171875 16.63671875 c 0
 102.451171875 26.8095703125 104.084960938 39.5966796875 107.3515625 54.99609375 c 0
 110.018554688 68.3291015625 122.685546875 119.99609375 145.352539062 209.99609375 c 0
 168.01953125 299.99609375 187.686523438 378.663085938 204.353515625 445.99609375 c 0
 221.020507812 513.329101562 235.353515625 577.99609375 247.353515625 639.99609375 c 0
 249.353515625 653.329101562 253.353515625 664.662109375 259.353515625 673.995117188 c 0
 265.353515625 683.328125 272.353515625 690.161132812 280.353515625 694.494140625 c 0
 288.353515625 698.827148438 296.353515625 701.827148438 304.353515625 703.494140625 c 0
 312.353515625 705.161132812 320.020507812 705.328125 327.353515625 703.995117188 c 0
 354.686523438 703.995117188 369.01953125 691.662109375 370.352539062 666.995117188 c 0
 373.01953125 622.995117188 390.186523438 541.995117188 421.853515625 423.995117188 c 0
 453.520507812 305.995117188 481.353515625 210.662109375 505.353515625 137.995117188 c 1
 522.020507812 200.662109375 543.6875 291.829101562 570.354492188 411.49609375 c 0
 597.021484375 531.163085938 612.354492188 609.99609375 616.354492188 647.99609375 c 0
 618.354492188 663.99609375 624.521484375 677.49609375 634.854492188 688.49609375 c 0
 645.1875 699.49609375 656.354492188 704.99609375 668.354492188 704.99609375 c 0
 675.021484375 704.99609375 680.688476562 704.163085938 685.35546875 702.49609375 c 0
 690.022460938 700.829101562 693.522460938 698.829101562 695.85546875 696.49609375 c 0
 698.188476562 694.163085938 699.688476562 690.330078125 700.35546875 684.997070312 c 0
 701.022460938 679.6640625 701.189453125 674.831054688 700.856445312 670.498046875 c 0
 700.5234375 666.165039062 700.0234375 659.33203125 699.356445312 649.999023438 c 0
 698.689453125 639.33203125 687.356445312 585.83203125 665.356445312 489.499023438 c 0
 643.356445312 393.166015625 619.189453125 293.333007812 592.856445312 190 c 0
 566.5234375 86.6669921875 548.0234375 27 537.356445312 11 c 0
 527.356445312 -5.6669921875 508.356445312 -14 480.356445312 -14 c 0
EndSplineSet
Validated: 524289
EndChar

StartChar: O
Encoding: 79 79 58
Width: 650
GlyphClass: 2
Flags: HMW
HStem: -24 83.998<298.035 299.039> 636.997 81.001<487.037 498.703>
LayerCount: 2
Fore
SplineSet
286.372070312 -24 m 0
 248.372070312 -23.3330078125 217.03515625 -10.8349609375 192.368164062 13.498046875 c 0
 167.701171875 37.8310546875 151.868164062 70.498046875 144.868164062 111.498046875 c 0
 142.2890625 126.603515625 141 142.228515625 141 158.375 c 0
 141 186.053710938 144.7890625 215.260742188 152.368164062 245.998046875 c 0
 153.03515625 249.331054688 154.368164062 254.998046875 156.368164062 262.998046875 c 0
 163.03515625 292.998046875 168.702148438 316.998046875 173.369140625 334.998046875 c 0
 178.036132812 352.998046875 184.869140625 376.998046875 193.869140625 406.998046875 c 0
 202.869140625 436.998046875 213.036132812 465.498046875 224.369140625 492.498046875 c 0
 235.702148438 519.498046875 248.369140625 544.998046875 262.369140625 568.998046875 c 0
 288.369140625 612.331054688 324.202148438 647.998046875 369.869140625 675.998046875 c 0
 415.536132812 703.998046875 462.703125 717.998046875 511.370117188 717.998046875 c 0
 536.037109375 717.998046875 558.704101562 712.831054688 579.37109375 702.498046875 c 0
 600.038085938 692.165039062 617.205078125 677.33203125 630.872070312 657.999023438 c 0
 644.5390625 638.666015625 653.872070312 613.999023438 658.872070312 583.999023438 c 0
 661.291015625 569.483398438 662.500976562 554.108398438 662.500976562 537.875976562 c 0
 662.500976562 520.560546875 661.125 502.267578125 658.372070312 482.999023438 c 0
 653.0390625 449.666015625 646.206054688 413.999023438 637.873046875 375.999023438 c 0
 629.540039062 337.999023438 619.540039062 299.499023438 607.873046875 260.499023438 c 0
 596.206054688 221.499023438 585.0390625 190.666015625 574.372070312 167.999023438 c 0
 559.705078125 136.666015625 543.705078125 109.666015625 526.372070312 86.9990234375 c 0
 509.0390625 64.33203125 491.5390625 45.83203125 473.872070312 31.4990234375 c 0
 456.205078125 17.166015625 437.038085938 5.8330078125 416.37109375 -2.5 c 0
 395.704101562 -10.8330078125 375.204101562 -16.5 354.87109375 -19.5 c 0
 334.538085938 -22.5 311.705078125 -24 286.372070312 -24 c 0
305.368164062 59.998046875 m 0
 322.03515625 59.998046875 338.702148438 62.1650390625 355.369140625 66.498046875 c 0
 372.036132812 70.8310546875 388.369140625 77.8310546875 404.369140625 87.498046875 c 0
 420.369140625 97.1650390625 435.869140625 109.998046875 450.869140625 125.998046875 c 0
 465.869140625 141.998046875 478.702148438 160.665039062 489.369140625 181.998046875 c 0
 493.369140625 190.665039062 500.536132812 210.665039062 510.869140625 241.998046875 c 0
 521.202148438 273.331054688 532.03515625 310.6640625 543.368164062 353.997070312 c 0
 554.701171875 397.330078125 563.701171875 439.997070312 570.368164062 481.997070312 c 0
 572.30078125 494.750976562 573.266601562 506.903320312 573.266601562 518.453125 c 0
 573.266601562 546.748046875 567.467773438 571.4296875 555.869140625 592.497070312 c 0
 539.536132812 622.1640625 515.036132812 636.997070312 482.369140625 636.997070312 c 0
 449.036132812 636.997070312 418.036132812 623.830078125 389.369140625 597.497070312 c 0
 360.702148438 571.1640625 335.702148438 534.331054688 314.369140625 486.998046875 c 0
 285.702148438 423.665039062 263.03515625 348.665039062 246.368164062 261.998046875 c 0
 242.368164062 240.665039062 239.53515625 220.998046875 237.868164062 202.998046875 c 0
 236.826171875 191.749023438 236.305664062 180.499023438 236.305664062 169.25 c 0
 236.305664062 162.499023438 236.493164062 155.749023438 236.868164062 148.998046875 c 0
 237.868164062 130.998046875 240.701171875 115.498046875 245.368164062 102.498046875 c 0
 250.03515625 89.498046875 257.53515625 79.1650390625 267.868164062 71.498046875 c 0
 278.201171875 63.8310546875 290.701171875 59.998046875 305.368164062 59.998046875 c 0
EndSplineSet
Validated: 524289
EndChar

StartChar: P
Encoding: 80 80 59
Width: 650
GlyphClass: 2
Flags: HMW
HStem: 230.001 82<357.197 366.197 357.197 382.863> 630.003 80.998<453.529 504.196>
LayerCount: 2
Fore
SplineSet
218.198242188 24 m 0
 215.53125 10 207.694335938 -0.830078125 194.694335938 -8.4970703125 c 0
 182.734375 -15.55078125 170.633789062 -19.0771484375 158.392578125 -19.0771484375 c 0
 157.327148438 -19.0771484375 156.26171875 -19.05078125 155.194335938 -18.9970703125 c 0
 141.861328125 -18.9970703125 132.028320312 -14.830078125 125.6953125 -6.4970703125 c 0
 122.2578125 -1.9736328125 120.538085938 3.6796875 120.538085938 10.462890625 c 0
 120.538085938 16.17578125 121.7578125 22.6884765625 124.1953125 30.0029296875 c 0
 126.862304688 40.669921875 130.862304688 56.5029296875 136.1953125 77.5029296875 c 0
 141.528320312 98.5029296875 147.528320312 124.502929688 154.1953125 155.502929688 c 0
 160.862304688 186.502929688 167.1953125 216.502929688 173.1953125 245.502929688 c 0
 179.1953125 274.502929688 186.528320312 310.002929688 195.1953125 352.002929688 c 0
 203.862304688 394.002929688 211.1953125 429.002929688 217.1953125 457.002929688 c 0
 226.528320312 500.3359375 240.1953125 557.668945312 258.1953125 629.001953125 c 1
 254.1953125 634.001953125 l 2
 251.528320312 642.001953125 251.861328125 650.168945312 255.194335938 658.501953125 c 0
 258.52734375 666.834960938 263.52734375 674.334960938 270.194335938 681.001953125 c 0
 276.861328125 687.668945312 283.528320312 691.668945312 290.1953125 693.001953125 c 0
 314.1953125 698.334960938 348.1953125 702.66796875 392.1953125 706.000976562 c 0
 436.1953125 709.333984375 466.528320312 711.000976562 483.1953125 711.000976562 c 0
 525.1953125 711.000976562 560.862304688 703.000976562 590.1953125 687.000976562 c 0
 619.528320312 671.000976562 640.1953125 646.833984375 652.1953125 614.500976562 c 0
 658.9453125 596.313476562 662.3203125 576.174804688 662.3203125 554.0859375 c 0
 662.3203125 536.904296875 660.278320312 518.54296875 656.1953125 499.000976562 c 0
 647.528320312 461.66796875 633.6953125 426.500976562 614.6953125 393.500976562 c 0
 595.6953125 360.500976562 573.6953125 332.000976562 548.6953125 308.000976562 c 0
 523.6953125 284.000976562 495.362304688 265.000976562 463.6953125 251.000976562 c 0
 432.028320312 237.000976562 399.528320312 230.000976562 366.1953125 230.000976562 c 0
 317.528320312 230.000976562 280.1953125 233.66796875 254.1953125 241.000976562 c 1
 248.862304688 213.000976562 244.029296875 186.16796875 239.696289062 160.500976562 c 0
 235.36328125 134.833984375 231.030273438 108.166992188 226.697265625 80.5 c 0
 222.364257812 52.8330078125 219.53125 34 218.198242188 24 c 0
464.194335938 630.002929688 m 0
 442.861328125 630.002929688 403.194335938 627.333984375 345.194335938 622.000976562 c 1
 341.861328125 608.66796875 335.528320312 584.000976562 326.1953125 548.000976562 c 0
 316.862304688 512.000976562 307.529296875 475.000976562 298.196289062 437.000976562 c 0
 288.86328125 399.000976562 280.196289062 362.000976562 272.196289062 326.000976562 c 1
 293.446289062 316.625976562 319.67578125 311.938476562 350.885742188 311.938476562 c 0
 352.966796875 311.938476562 355.0703125 311.958984375 357.196289062 312.000976562 c 0
 375.196289062 312.000976562 391.86328125 313.333984375 407.196289062 316.000976562 c 0
 422.529296875 318.66796875 436.196289062 322.334960938 448.196289062 327.001953125 c 0
 460.196289062 331.668945312 471.529296875 337.8359375 482.196289062 345.502929688 c 0
 492.86328125 353.169921875 501.86328125 360.836914062 509.196289062 368.50390625 c 0
 516.529296875 376.170898438 523.362304688 385.170898438 529.6953125 395.50390625 c 0
 536.028320312 405.836914062 541.1953125 415.169921875 545.1953125 423.502929688 c 0
 549.1953125 431.8359375 553.028320312 441.502929688 556.6953125 452.502929688 c 0
 560.362304688 463.502929688 563.1953125 472.502929688 565.1953125 479.502929688 c 0
 567.1953125 486.502929688 569.528320312 495.002929688 572.1953125 505.002929688 c 0
 574.595703125 516.203125 575.795898438 526.743164062 575.795898438 536.623046875 c 0
 575.795898438 543.209960938 575.26171875 549.502929688 574.1953125 555.502929688 c 0
 571.528320312 570.502929688 566.361328125 582.502929688 558.694335938 591.502929688 c 0
 551.02734375 600.502929688 541.694335938 608.002929688 530.694335938 614.002929688 c 0
 519.694335938 620.002929688 508.52734375 624.169921875 497.194335938 626.502929688 c 0
 485.861328125 628.8359375 474.861328125 630.002929688 464.194335938 630.002929688 c 0
EndSplineSet
Validated: 524289
EndChar

StartChar: Q
Encoding: 81 81 60
Width: 650
GlyphClass: 2
Flags: HMW
HStem: -23.9961 84.002<293.707 337.707> 637.005 80.9971<485.375 497.04>
LayerCount: 2
Fore
SplineSet
486.708007812 -206 m 0
 479.154296875 -210.443359375 471.749023438 -212.6640625 464.491210938 -212.6640625 c 0
 460.859375 -212.6640625 457.264648438 -212.107421875 453.70703125 -210.99609375 c 0
 443.040039062 -207.663085938 434.70703125 -199.99609375 428.70703125 -187.99609375 c 0
 422.70703125 -175.99609375 413.20703125 -153.663085938 400.20703125 -120.99609375 c 0
 387.20703125 -88.3291015625 374.70703125 -54.99609375 362.70703125 -20.99609375 c 1
 349.374023438 -23.1298828125 334.975585938 -24.1962890625 319.510742188 -24.1962890625 c 0
 315.642578125 -24.1962890625 311.708007812 -24.1298828125 307.70703125 -23.99609375 c 0
 279.70703125 -23.99609375 255.374023438 -19.3291015625 234.70703125 -9.99609375 c 0
 214.040039062 -0.6630859375 197.040039062 12.3369140625 183.70703125 29.00390625 c 0
 170.374023438 45.6708984375 160.20703125 65.50390625 153.20703125 88.50390625 c 0
 145.797851562 112.848632812 142.180664062 138.78515625 142.180664062 166.670898438 c 0
 142.180664062 191.768554688 145.022460938 218.212890625 150.70703125 246.002929688 c 0
 176.040039062 375.3359375 212.70703125 481.668945312 260.70703125 565.001953125 c 0
 286.70703125 609.001953125 322.540039062 645.501953125 368.20703125 674.501953125 c 0
 413.874023438 703.501953125 461.041015625 718.001953125 509.708007812 718.001953125 c 0
 535.041015625 718.001953125 557.708007812 713.334960938 577.708007812 704.001953125 c 0
 597.708007812 694.668945312 614.541015625 681.001953125 628.208007812 663.001953125 c 0
 641.875 645.001953125 651.208007812 620.668945312 656.208007812 590.001953125 c 0
 658.626953125 575.163085938 659.836914062 559.154296875 659.836914062 541.974609375 c 0
 659.836914062 523.6484375 658.4609375 503.991210938 655.708007812 483.000976562 c 0
 649.708007812 437.000976562 638.375 380.833984375 621.708007812 314.500976562 c 0
 605.041015625 248.16796875 589.374023438 197.66796875 574.70703125 163.000976562 c 0
 544.70703125 91.0009765625 502.374023438 39.66796875 447.70703125 9.0009765625 c 1
 455.70703125 -10.33203125 464.374023438 -29.9990234375 473.70703125 -49.9990234375 c 0
 483.040039062 -69.9990234375 492.040039062 -88.666015625 500.70703125 -105.999023438 c 0
 509.374023438 -123.33203125 515.374023438 -134.999023438 518.70703125 -140.999023438 c 0
 521.374023438 -148.33203125 521.041015625 -156.33203125 517.708007812 -164.999023438 c 0
 514.375 -173.666015625 509.708007812 -181.833007812 503.708007812 -189.5 c 0
 497.708007812 -197.166992188 492.041015625 -202.666992188 486.708007812 -206 c 0
244.70703125 262.004882812 m 0
 240.666992188 238.974609375 238.646484375 217.353515625 238.646484375 197.139648438 c 0
 238.646484375 184 239.5 171.456054688 241.20703125 159.505859375 c 0
 245.540039062 129.172851562 255.040039062 105.005859375 269.70703125 87.005859375 c 0
 284.374023438 69.005859375 303.70703125 60.005859375 327.70703125 60.005859375 c 2
 337.70703125 60.005859375 l 1
 329.70703125 90.005859375 324.374023438 113.338867188 321.70703125 130.005859375 c 0
 320.928710938 136.561523438 320.540039062 142.802734375 320.540039062 148.729492188 c 0
 320.540039062 178.358398438 330.26171875 200.1171875 349.706054688 214.005859375 c 0
 356.373046875 218.672851562 363.040039062 221.505859375 369.70703125 222.505859375 c 0
 376.374023438 223.505859375 382.20703125 221.505859375 387.20703125 216.505859375 c 0
 392.20703125 211.505859375 395.040039062 204.005859375 395.70703125 194.005859375 c 0
 399.040039062 160.672851562 407.040039062 124.33984375 419.70703125 85.0068359375 c 1
 451.040039062 104.33984375 475.70703125 135.33984375 493.70703125 178.006835938 c 0
 497.70703125 188.006835938 504.20703125 208.173828125 513.20703125 238.506835938 c 0
 522.20703125 268.83984375 532.374023438 306.672851562 543.70703125 352.005859375 c 0
 555.040039062 397.338867188 563.373046875 440.671875 568.706054688 482.004882812 c 0
 570.342773438 494.9140625 571.16015625 507.103515625 571.16015625 518.575195312 c 0
 571.16015625 549.1640625 565.342773438 574.641601562 553.706054688 595.004882812 c 0
 537.706054688 623.004882812 513.373046875 637.004882812 480.706054688 637.004882812 c 0
 446.706054688 637.004882812 415.206054688 624.004882812 386.206054688 598.004882812 c 0
 357.206054688 572.004882812 332.373046875 535.671875 311.706054688 489.004882812 c 0
 280.373046875 419.671875 258.040039062 344.004882812 244.70703125 262.004882812 c 0
EndSplineSet
Validated: 524289
EndChar

